<?xml version="1.0" encoding="utf-8"?>
<!-- Generator: Adobe Illustrator 22.1.0, SVG Export Plug-In . SVG Version: 6.00 Build 0)  -->
<svg version="1.1" id="Layer_1" xmlns="http://www.w3.org/2000/svg" xmlns:xlink="http://www.w3.org/1999/xlink" x="0px" y="0px"
	 viewBox="0 0 972.2 1947.1" style="enable-background:new 0 0 972.2 1947.1;" xml:space="preserve">
<style type="text/css">
	.st0{fill:none;}
	.st1{fill:#474747;}
	.st2{opacity:0.36;fill:url(#SVGID_1_);}
</style>
<pattern  y="1223.1" width="282.4" height="242.7" patternUnits="userSpaceOnUse" id="New_Pattern_4" viewBox="70.4 -320.4 282.4 242.7" style="overflow:visible;">
	<g>
		<rect x="70.4" y="-320.4" class="st0" width="282.4" height="242.7"/>
		<g>
			<rect x="70.4" y="-320.4" class="st0" width="282.4" height="242.7"/>
			<g>
				<g>
					<path class="st1" d="M199.9-303.6c1.2-8.1-0.1-16.1-3.4-20.8c-1.8-2.6-4.1-4.1-6.7-4.6c-3-0.5-6.5,0.4-10,2.9
						c-1.5,1-2.4,2.6-2.7,4.3c-0.3,1.8,0.1,3.5,1.1,5c0.5,0.7,0.2,1.9-0.6,3.3c-0.5-1-0.9-2-1.4-3c-1.7-3.8-3.5-7.7-5.5-10.9
						c0,0,0-0.1-0.1-0.1c-0.6-0.9-1.2-1.8-1.8-2.6c-0.7-0.9-2.1-1.1-3-0.4c-0.9,0.7-1.1,2.1-0.4,3c2.5,3.3,4.7,8.1,6.8,12.7
						c0.9,1.9,1.7,3.7,2.5,5.5v0.1c0.2,0.3,0.2,0.4,0.4,0.8c0.2,0.5,0.7,0.8,1.1,1c0.1,0,0.2,0.1,0.2,0.1c0.5,0.1,1,0.1,1.5-0.1
						c0,0,0.1,0,0.1-0.1l0,0l0,0c0.2-0.1,0.4-0.3,0.5-0.4c3.9-4.2,5-8.3,3-11.2c-0.4-0.5-0.5-1.2-0.4-1.8c0.1-0.6,0.5-1.2,1-1.6
						c4.6-3.2,8.2-3,10.7,0.7c2.7,3.8,3.7,10.8,2.7,17.7c-1.2,7.7-4.6,14.1-9.6,17.6c-4.9,3.4-12.1,4.5-19.8,3
						c-6.9-1.4-13-4.8-15.7-8.6c-2.5-3.6-1.5-7.1,3-10.3c1.1-0.8,2.6-0.5,3.4,0.6c2,2.8,5.9,3.3,10.8,1.4c0.6,0.1,1.3-0.1,1.8-0.6
						c0.8-0.8,0.9-2.2,0.1-3c-0.2-0.3-0.5-0.5-0.8-0.8c-1.2-1.2-2.4-2.4-3.7-3.6c-5.5-5.3-12.4-11.9-12.1-16.7
						c0.1-0.7,0.2-1.3,0.6-1.9c0.5-0.9,1.3-1.7,2.4-2.5c0.5-0.3,0.8-0.8,0.9-1.4c0.1-0.5,0-1.1-0.4-1.6c-0.7-1-2-1.2-3-0.5
						c-1.7,1.2-2.9,2.5-3.7,3.9c-0.6,1.1-1,2.4-1.1,3.6c-0.5,6.8,6.9,13.9,13.4,20.1c0.6,0.6,1.1,1.1,1.7,1.6
						c-1.7,0.3-2.9,0.2-3.4-0.5c-2.1-3-6.3-3.8-9.3-1.6c-6.5,4.5-8,10.6-4.1,16.2c3.3,4.8,10.4,8.7,18.4,10.3
						c8.8,1.8,17.2,0.4,23.1-3.7C194.4-287.3,198.5-294.8,199.9-303.6z"/>
					<path class="st1" d="M184.1-293.2c-0.3-0.5-0.8-0.8-1.4-0.9c-0.5-0.1-1.1,0-1.6,0.4c-3.3,2.3-7.9,2.2-10.3,2
						c-1-0.1-2-0.2-3-0.4c-1.2-0.2-2.3,0.5-2.5,1.7c-0.2,1.2,0.5,2.3,1.7,2.5c1.1,0.2,2.3,0.4,3.4,0.5c3,0.3,8.8,0.3,13.2-2.8
						C184.6-290.9,184.8-292.2,184.1-293.2z"/>
					<path class="st1" d="M162.8-293.7l-0.1-0.1c-0.2-0.1-0.3-0.1-0.5-0.2c-0.9-0.2-1.9,0.3-2.3,1.2c-0.5,1.1,0,2.3,1.1,2.8l0.1,0.1
						c1.1,0.5,2.3,0,2.8-1.1C164.3-292,163.8-293.3,162.8-293.7z"/>
				</g>
			</g>
			<g>
				<g>
					<path class="st1" d="M418.3-227.9c5.8-9.9,8.1-21.2,6.7-32.6c-0.1-0.7-0.6-1.2-1.3-1.4l-12.5-2.3l-1.2-10.6
						c-0.2-1.5-0.9-2.8-2.1-3.7c-1.2-0.9-2.7-1.3-4.1-1.1c-3.1,0.4-5.3,3.2-4.9,6.2l0.9,7.1l-8.6-1.6l-1.3-10.6
						c-0.2-1.8-1.1-3.4-2.6-4.4c-1.4-1.1-3.1-1.5-4.8-1.3c-0.1,0-0.1,0-0.2,0c-3.5,0.5-6,3.9-5.6,7.5l0.8,6.3l-23.9-4.5
						c-2-0.4-4.1,0.4-5.3,2c-1.2,1.6-1.5,3.7-0.6,5.6l7.4,16l0,0l5.8,12.5l16.7,36.1c0.3,0.6,0.9,1,1.6,0.9
						c11.4-1.4,21.8-6.3,30.1-14.2c0.6-0.6,0.7-1.6,0.1-2.2c-0.4-0.4-0.9-0.5-1.3-0.5c-0.3,0-0.6,0.2-0.9,0.4
						c-7.5,7.2-16.9,11.7-27.2,13.2l-2.7-5.8c15.7-4.1,26.8-12.2,32.9-24.1l0,0c1.8-3.5,3.2-7.4,4.2-11.6l0,0
						c0.9-4.1,1.4-8.6,1.5-13.3l6.4,1.2c1,10.3-1.2,20.4-6.4,29.4c-0.4,0.8-0.2,1.7,0.6,2.2C416.9-226.9,417.9-227.1,418.3-227.9
						L418.3-227.9z M407.6-237.7c-1.7-0.5-2.9-2-3.1-3.8c-0.3-2.5,1.5-4.8,4-5.1c0.8-0.1,1.5,0,2.2,0.3
						C410-243.3,408.9-240.4,407.6-237.7L407.6-237.7z M365.7-246c0.2,1.6-0.2,3.2-1.3,4.4c-0.3,0.4-0.6,0.7-1,1l-4.9-10.6
						c1.7-0.3,3.5,0.1,4.9,1.2C364.7-249,365.5-247.6,365.7-246z M364-269.8c-0.7,1.2-2,2.1-3.4,2.3c-2.5,0.3-4.7-1.4-5-3.9
						L364-269.8z M382.2-265.6c1.2,1,2,2.4,2.2,3.9c0.2,1.6-0.2,3.1-1.2,4.3c-1,1.3-2.5,2-4,2.2s-3.1-0.2-4.4-1.2
						c-1.2-1-2-2.4-2.2-3.9c-0.2-1.6,0.2-3.1,1.2-4.3C375.8-267.1,379.6-267.6,382.2-265.6L382.2-265.6z M412.4-260.7
						c0,4-0.4,7.7-1,11.2c-1.1-0.3-2.2-0.4-3.3-0.3c-4.2,0.5-7.3,4.4-6.8,8.6c0.3,2.8,2.2,5.2,4.8,6.2
						c-5.9,10.2-16.2,17.2-30.5,20.8l-10.9-23.5c0.8-0.5,1.5-1.2,2.2-2c1.5-1.9,2.2-4.4,1.9-6.8c-0.3-2.4-1.5-4.6-3.5-6.1
						s-4.4-2.2-6.8-1.9c-0.5,0.1-0.9,0.2-1.4,0.3l-6.8-14.6c-0.4-0.8-0.3-1.6,0.3-2.3c0.4-0.6,1-0.9,1.7-0.9c0,0.3,0,0.6,0.1,0.9
						c0.5,4.2,4.4,7.2,8.6,6.7c2.8-0.3,5.2-2.3,6.2-4.9l5.8,1.1c-0.6,0.5-1.1,1-1.6,1.6c-1.5,1.9-2.2,4.3-1.9,6.7
						c0.3,2.4,1.5,4.6,3.4,6c4,3.1,9.7,2.4,12.8-1.6c1.5-1.9,2.2-4.3,1.9-6.7c-0.3-2.4-1.5-4.6-3.4-6l0,0c-1.1-0.8-2.3-1.4-3.5-1.7
						l-0.9-7.5c-0.2-1.9,1.1-3.7,2.9-3.9c1-0.1,1.9,0.1,2.6,0.7c0.7,0.6,1.2,1.4,1.3,2.3l1.4,11.8c0.1,0.7,0.6,1.2,1.3,1.4l11.9,2.2
						c0.5,0.1,1-0.1,1.4-0.4c0.4-0.3,0.6-0.8,0.5-1.4L402-274c-0.2-1.3,0.8-2.5,2.1-2.7c0.7-0.1,1.3,0.1,1.8,0.5
						c0.5,0.4,0.8,1,0.9,1.6l1.4,11.8c0.1,0.7,0.6,1.2,1.3,1.4L412.4-260.7z"/>
				</g>
			</g>
			<g>
				<g>
					<path class="st1" d="M129.4-223.9c-0.6,0.5-0.7,1.3-0.4,2c0.3,0.6,1,0.9,1.7,0.8c0.7-0.1,1.2-0.7,1.3-1.3s-0.2-1.3-0.8-1.6
						C130.7-224.4,129.9-224.3,129.4-223.9L129.4-223.9z"/>
					<path class="st1" d="M135.9-227.9c5.8-9.9,8.1-21.2,6.7-32.6c-0.1-0.7-0.6-1.2-1.3-1.4l-12.4-2.2l-1.4-10.7
						c-0.2-1.5-0.9-2.8-2.1-3.7c-1.2-0.9-2.7-1.3-4.1-1.1c-3.1,0.4-5.3,3.2-4.9,6.2l0.9,7.1l-8.6-1.6l-1.3-10.6
						c-0.2-1.8-1.1-3.4-2.6-4.4c-1.4-1.1-3.1-1.5-4.8-1.3c-0.1,0-0.1,0-0.2,0c-3.5,0.5-6,3.9-5.6,7.5l0.8,6.3l-23.9-4.5
						c-2-0.4-4.1,0.4-5.3,2c-1.2,1.6-1.5,3.7-0.6,5.6l7.4,16l0,0l5.8,12.5l16.5,35.9c0.3,0.6,0.9,1,1.6,0.9
						c11.4-1.4,21.8-6.3,30.1-14.2c0.6-0.6,0.7-1.6,0.1-2.2c-0.4-0.4-0.9-0.5-1.3-0.5c-0.3,0-0.6,0.2-0.9,0.4
						c-7.5,7.2-16.9,11.7-27.2,13.2l-2.7-5.8c15.7-4.1,26.8-12.2,32.9-24.1l0,0c1.8-3.5,3.2-7.4,4.2-11.6l0,0
						c0.9-4.1,1.4-8.6,1.5-13.3l6.4,1.2c1,10.3-1.2,20.4-6.4,29.4c-0.4,0.8-0.2,1.7,0.6,2.2C134.5-226.9,135.5-227.1,135.9-227.9
						L135.9-227.9z M125.2-237.7c-1.7-0.5-2.9-2-3.1-3.8c-0.3-2.5,1.5-4.8,4-5.1c0.8-0.1,1.5,0,2.2,0.3
						C127.6-243.3,126.5-240.4,125.2-237.7L125.2-237.7z M83.3-246c0.2,1.6-0.2,3.2-1.3,4.4c-0.3,0.4-0.6,0.7-1,1l-4.9-10.6
						c1.7-0.3,3.5,0.1,4.9,1.2C82.3-249,83.1-247.6,83.3-246z M81.6-269.8c-0.7,1.2-2,2.1-3.4,2.3c-2.5,0.3-4.7-1.4-5-3.9
						L81.6-269.8z M99.8-265.6c1.2,1,2,2.4,2.2,3.9c0.2,1.6-0.2,3.1-1.2,4.3c-1,1.3-2.5,2-4,2.2s-3.1-0.2-4.4-1.2
						c-1.2-1-2-2.4-2.2-3.9c-0.2-1.6,0.2-3.1,1.2-4.3C93.4-267.1,97.2-267.6,99.8-265.6L99.8-265.6z M130-260.7c0,4-0.4,7.7-1,11.2
						c-1.1-0.3-2.2-0.4-3.3-0.3c-4.2,0.5-7.3,4.4-6.8,8.6c0.3,2.8,2.2,5.2,4.8,6.2c-5.9,10.2-16.2,17.2-30.5,20.8l-10.9-23.5
						c0.8-0.5,1.5-1.2,2.2-2c1.5-1.9,2.2-4.4,1.9-6.8c-0.3-2.3-1.5-4.5-3.5-6s-4.4-2.2-6.8-1.9c-0.5,0.1-0.9,0.2-1.4,0.3l-6.8-14.7
						c-0.4-0.8-0.3-1.6,0.3-2.3c0.4-0.6,1-0.9,1.7-0.9c0,0.3,0,0.6,0.1,0.9c0.5,4.2,4.4,7.2,8.6,6.7c2.8-0.3,5.2-2.3,6.2-4.9
						l5.8,1.1c-0.6,0.5-1.1,1-1.6,1.6c-1.5,1.9-2.2,4.3-1.9,6.7c0.3,2.4,1.5,4.6,3.4,6c4,3.1,9.7,2.4,12.8-1.6
						c1.5-1.9,2.2-4.3,1.9-6.7c-0.3-2.4-1.5-4.6-3.4-6l0,0c-1.1-0.8-2.3-1.4-3.5-1.7l-0.9-7.5c-0.2-1.9,1.1-3.7,2.9-3.9
						c1-0.1,1.9,0.1,2.6,0.7c0.7,0.6,1.2,1.4,1.3,2.3l1.4,11.8c0.1,0.7,0.6,1.2,1.3,1.4l11.9,2.2c0.5,0.1,1-0.1,1.4-0.4
						c0.4-0.3,0.6-0.8,0.5-1.4l-1.1-9.3c-0.2-1.3,0.8-2.5,2.1-2.7c0.7-0.1,1.3,0.1,1.8,0.5c0.5,0.4,0.8,1,0.9,1.6l1.4,11.8
						c0.1,0.7,0.6,1.2,1.3,1.4L130-260.7z"/>
					<path class="st1" d="M110-230.7c-0.3-2.5-1.6-4.8-3.6-6.4c-2.1-1.6-4.6-2.2-7.1-1.9c-2.4,0.3-4.8,1.5-6.4,3.6
						c-1.6,2-2.3,4.5-2,7s1.6,4.8,3.6,6.4c4.2,3.2,10.2,2.5,13.5-1.6C109.6-225.7,110.3-228.2,110-230.7L110-230.7z M106.8-230.3
						c0.2,1.7-0.3,3.4-1.3,4.7c-1.1,1.4-2.7,2.2-4.3,2.4c-1.6,0.2-3.4-0.2-4.7-1.3c-1.3-1-2.2-2.6-2.4-4.2c-0.2-1.7,0.3-3.4,1.3-4.7
						c2.2-2.8,6.2-3.3,9-1.1C105.7-233.5,106.6-232,106.8-230.3z"/>
					<path class="st1" d="M114.5-245c2.8-3.7,2-9-1.7-11.8c-0.3-0.3-0.8-0.4-1.2-0.3c-0.4,0.1-0.8,0.3-1.1,0.6l-8.2,10.9
						c-0.3,0.3-0.4,0.8-0.3,1.2c0.1,0.4,0.3,0.8,0.6,1C106.3-240.6,111.7-241.3,114.5-245L114.5-245z M111.9-246.9
						c-1.4,1.9-3.9,2.5-6,1.8l6-8C113.3-251.3,113.3-248.8,111.9-246.9z"/>
				</g>
				<g>
					<path class="st1" d="M295-319.4c5.8-4.8,8.4-11.6,5.8-16.9c-3.2-6.7-13.5-8.5-22.9-4c-5.2,2.5-9.1,6.4-11,10.6
						c-4.5-1.3-9.2-1-13.5,1.1c-3,1.4-5.6,3.6-7.5,6.4c-3.3-0.3-6.7,0.3-9.7,1.8c-9.4,4.5-13.5,15.8-9,25.3c1.4,3,3.6,5.6,6.4,7.5
						c-0.3,3.3,0.3,6.6,1.8,9.7c2.2,4.6,6.1,8.1,11,9.8c-1.8,4.8-1.5,10,0.7,14.7c4.5,9.4,15.8,13.5,25.3,9c3.2-1.5,6-3.9,7.9-7
						c2.6-0.1,5.1-0.7,7.5-1.8c6.7-3.2,10.8-9.9,10.8-17.2l2.1,0.7c2,0.7,4.2-0.3,5-2.2l1.8,0.7c2,0.7,4.3-0.4,5.1-2.3l10.1,3.6
						c2.3,0.8,5.1-0.5,5.9-2.8l0.4-1.1c0.4-1.2,0.3-2.4-0.2-3.5c-0.5-1.1-1.5-2-2.6-2.4l-10.1-3.6c0.6-2-0.5-4.2-2.5-5l-1.8-0.7
						c0.5-2-0.5-4.2-2.5-4.9l-3.5-1.2c0.2-3.2-0.4-6.5-1.8-9.5c-1.3-2.7-3.2-5-5.5-6.8c-0.3-1.7-0.8-3.3-1.5-4.8
						C296.3-317.4,295.7-318.4,295-319.4L295-319.4z M313.5-276.3l1.7-4.7l10.1,3.6c0.5,0.2,0.9,0.5,1.1,1s0.2,1,0.1,1.5l-0.4,1.1
						c-0.3,1-1.5,1.5-2.4,1.2L313.5-276.3z M310.1-274.8c-0.2,0.7-1,1.1-1.7,0.8l-1.8-0.6l4.2-11.9l1.8,0.6c0.7,0.3,1.1,1,0.8,1.7
						L310.1-274.8L310.1-274.8z M252.9-289.8c-0.7-0.2-1.1-1-0.8-1.7l5.8-16.4c0.2-0.7,1-1.1,1.7-0.8l48.6,17.3
						c0.7,0.2,1.1,1,0.8,1.7l-5.8,16.4c-0.1,0.3-0.4,0.6-0.7,0.8c-0.3,0.1-0.7,0.2-1,0.1L252.9-289.8z M235.9-303.9
						c-0.5-0.2-0.9-0.5-1.1-1c-0.2-0.5-0.2-1-0.1-1.5l0.4-1.1c0.3-1,1.5-1.5,2.4-1.2l10.1,3.6l-1.7,4.7L235.9-303.9z M251-306.4
						c0.2-0.7,1-1.1,1.7-0.8l1.8,0.6l-4.2,11.9l-1.8-0.6c-0.7-0.3-1.1-1-0.8-1.7L251-306.4z M247.8-320.2c1.6-2.6,4-4.8,6.8-6.1
						c3.6-1.7,7.6-2,11.4-0.9c-0.6,2.5-0.5,5,0.6,7.2c3.2,6.7,13.5,8.6,22.9,4.1c1.2-0.6,2.3-1.2,3.3-1.9c0.6,0.8,1.1,1.7,1.6,2.6
						c0.7,1.5,1.2,3,1.4,4.6c0.1,0.4,0.2,0.7,0.5,0.9c2.2,1.6,3.9,3.7,5.1,6.2c1.1,2.3,1.6,4.8,1.6,7.4l-42.5-15.1
						c-1.1-0.4-2.2-0.3-3.1,0.2c-0.8,0.4-1.5,1.1-1.9,2l-1.8-0.7c-1-0.4-2.1-0.3-3.1,0.2c-0.9,0.4-1.6,1.2-2,2.1l-10.1-3.6
						c-1.2-0.4-2.4-0.4-3.5,0.2s-2,1.5-2.4,2.6l-0.4,1.1c-0.4,1.2-0.3,2.4,0.2,3.5c0.5,1.1,1.5,2,2.6,2.4l10.1,3.6
						c-0.6,2,0.5,4.2,2.5,5l1.8,0.7c-0.5,2,0.5,4.2,2.5,4.9l43.8,15.6c0.4,6.6-3.2,12.9-9.2,15.7c-2.2,1-4.6,1.6-7.1,1.6
						c-0.5,0-0.9,0.3-1.2,0.7c-1.7,2.9-4.1,5.1-7.1,6.5c-8.1,3.8-17.8,0.4-21.7-7.7c-2.1-4.4-2.1-9.4-0.1-13.8
						c0.2-0.4,0.2-0.8,0-1.2s-0.5-0.6-0.9-0.7c-4.7-1.2-8.6-4.4-10.7-8.8c-1.3-2.8-1.8-5.9-1.4-9c0.1-0.5-0.2-1-0.6-1.3
						c-2.6-1.6-4.8-4-6.1-6.8c-3.8-8.1-0.4-17.8,7.7-21.7c2.8-1.3,5.9-1.8,9-1.4C247-319.5,247.5-319.7,247.8-320.2L247.8-320.2z
						 M298.4-335.1c2.6,5.4-1.9,12.9-10,16.8s-16.8,2.6-19.3-2.8s1.9-12.9,10-16.8C287.2-341.7,295.8-340.5,298.4-335.1z"/>
					<circle class="st1" cx="288.1" cy="-334.7" r="2.7"/>
					<circle class="st1" cx="279.6" cy="-333.6" r="2.7"/>
					<path class="st1" d="M266.7-303.1l32.5,11.6l-0.9,2.6l-32.5-11.6L266.7-303.1z"/>
				</g>
				<g>
					<path class="st1" d="M199.9-60.9c1.2-8.1-0.1-16.1-3.4-20.8c-1.8-2.6-4.1-4.1-6.7-4.6c-3-0.5-6.5,0.4-10,2.9
						c-1.5,1-2.4,2.6-2.7,4.3c-0.3,1.8,0.1,3.5,1.1,5c0.5,0.7,0.2,1.9-0.6,3.3c-0.5-1-0.9-2-1.4-3c-1.7-3.8-3.5-7.7-5.5-10.9
						c0,0,0-0.1-0.1-0.1c-0.6-0.9-1.2-1.8-1.8-2.6c-0.7-0.9-2.1-1.1-3-0.4c-0.9,0.7-1.1,2.1-0.4,3c2.5,3.3,4.7,8.1,6.8,12.7
						c0.9,1.9,1.7,3.7,2.5,5.5v0.1c0.2,0.3,0.2,0.4,0.4,0.8c0.2,0.5,0.7,0.8,1.1,1c0.1,0,0.2,0.1,0.2,0.1c0.5,0.1,1,0.1,1.5-0.1
						c0,0,0.1,0,0.1-0.1l0,0l0,0c0.2-0.1,0.4-0.3,0.5-0.4c3.9-4.2,5-8.3,3-11.2c-0.4-0.5-0.5-1.2-0.4-1.8c0.1-0.6,0.5-1.2,1-1.6
						c4.6-3.2,8.2-3,10.7,0.7c2.7,3.8,3.7,10.8,2.7,17.7c-1.2,7.7-4.6,14.1-9.6,17.6c-4.9,3.4-12.1,4.5-19.8,3
						c-6.9-1.4-13-4.8-15.7-8.6c-2.5-3.6-1.5-7.1,3-10.3c1.1-0.8,2.6-0.5,3.4,0.6c2,2.8,5.9,3.3,10.8,1.4c0.6,0.1,1.3-0.1,1.8-0.6
						c0.8-0.8,0.9-2.2,0.1-3c-0.2-0.3-0.5-0.5-0.8-0.8c-1.2-1.2-2.4-2.4-3.7-3.6c-5.5-5.3-12.4-11.9-12.1-16.7
						c0.1-0.7,0.2-1.3,0.6-1.9c0.5-0.9,1.3-1.7,2.4-2.5c0.5-0.3,0.8-0.8,0.9-1.4c0.1-0.5,0-1.1-0.4-1.6c-0.7-1-2-1.2-3-0.5
						c-1.7,1.2-2.9,2.5-3.7,3.9c-0.6,1.1-1,2.4-1.1,3.6c-0.5,6.8,6.9,13.9,13.4,20.1c0.6,0.6,1.1,1.1,1.7,1.6
						c-1.7,0.3-2.9,0.2-3.4-0.5c-2.1-3-6.3-3.8-9.3-1.6c-6.5,4.5-8,10.6-4.1,16.2c3.3,4.8,10.4,8.7,18.4,10.3
						c8.8,1.8,17.2,0.4,23.1-3.7C194.4-44.6,198.5-52.1,199.9-60.9z"/>
					<path class="st1" d="M163.5-92L163.5-92c-0.2-0.1-0.3-0.1-0.5-0.1c-1-0.2-1.9,0.3-2.3,1.3c-0.5,1.1,0,2.3,1.1,2.8l0,0
						c1.1,0.5,2.3,0,2.8-1.1C165.1-90.3,164.6-91.5,163.5-92z"/>
					<path class="st1" d="M184.1-50.5c-0.3-0.5-0.8-0.8-1.4-0.9c-0.5-0.1-1.1,0-1.6,0.4c-3.3,2.3-7.9,2.2-10.3,2c-1-0.1-2-0.2-3-0.4
						c-1.2-0.2-2.3,0.5-2.5,1.7s0.5,2.3,1.7,2.5c1.1,0.2,2.3,0.4,3.4,0.5c3,0.3,8.8,0.3,13.2-2.8C184.6-48.2,184.8-49.5,184.1-50.5z
						"/>
					<path class="st1" d="M162.8-51l-0.1-0.1c-0.2-0.1-0.3-0.1-0.5-0.2c-0.9-0.2-1.9,0.3-2.3,1.2c-0.5,1.1,0,2.3,1.1,2.8l0.1,0.1
						c1.1,0.5,2.3,0,2.8-1.1C164.3-49.3,163.8-50.6,162.8-51z"/>
					<path class="st1" d="M149.7-148.7c-0.1-1-0.8-1.8-1.8-2c-0.2,0-0.3,0-0.5,0h-0.1c-1.2,0.1-2,1.1-2,2.3c0.1,1.2,1.1,2,2.3,2
						C148.9-146.6,149.8-147.6,149.7-148.7z"/>
					<path class="st1" d="M156.2-146c-0.3-0.5-0.8-0.8-1.4-0.9c-0.5-0.1-1.1,0-1.6,0.4c-1,0.7-1.2,2-0.5,3c1.3,1.9,1.8,3.6,1.3,5.1
						c-1.3,4.7-10,8.5-17.1,11.6c-1.4,0.6-2.8,1.2-4,1.8c-1.6-1.8-3.2-4-4.3-6.2c1.2-1.2,2.5-2.5,3.8-3.8c3.6-3.7,7.3-7.4,10.8-9.6
						c1-0.6,1.3-2,0.7-2.9c-0.3-0.5-0.9-0.9-1.4-1s-1,0-1.5,0.3c-3.9,2.5-7.8,6.4-11.5,10.3c-0.8,0.8-1.6,1.6-2.3,2.4
						c-0.2-1.1-0.3-2.7,0.6-3.3c1.5-1,2.4-2.6,2.7-4.3c0.3-1.8-0.1-3.5-1.1-5c-2.5-3.5-5.3-5.6-8.3-6.1c-4.7-0.8-9.6,2.1-13.4,8
						c-3.1,4.8-5.1,11.1-5.5,17.3c-0.4,4.9,0.1,12.1,4.3,18.2c4,5.7,10.9,9.7,19.4,11.2c5,0.9,10.2,0.8,14.7-0.3
						c4.9-1.2,8.5-3.3,10.4-6.3c1.7-2.7,2.8-7.1-1.5-13.4c-1-1.5-2.6-2.4-4.3-2.7c-1.8-0.3-3.5,0.1-5,1.1c-0.2,0.2-0.6,0.3-1.3,0.2
						c-0.6-0.1-1.4-0.4-2.1-0.9c0.7-0.3,1.4-0.6,2.2-1c8.3-3.6,17.6-7.7,19.5-14.3C159-140.1,158.3-143,156.2-146z M137.9-116.9
						c1.7,0.3,3.2,0,4.5-0.9c0.5-0.4,1.2-0.5,1.8-0.4s1.2,0.5,1.6,1c2.4,3.4,2.9,6.3,1.4,8.6c-2.7,4.3-11.6,6.3-20.7,4.7
						c-7.3-1.3-13.4-4.7-16.7-9.4c-6-8.5-4-22.3,1.3-30.7c2.8-4.4,6.1-6.6,9.1-6.1c1.9,0.3,3.8,1.8,5.6,4.3c0.8,1.1,0.5,2.6-0.6,3.4
						c-1.3,0.9-3.3,3.2-2.2,8C124.5-127.5,131.7-118,137.9-116.9z"/>
					<path class="st1" d="M130.6-109.8c0.2-1.2-0.6-2.3-1.8-2.4c-1-0.1-2-0.3-2.9-0.6c-2.4-0.6-6.7-2.2-9-5.4
						c-0.3-0.5-0.8-0.8-1.4-0.9c-0.5-0.1-1.1,0-1.6,0.4c-1,0.7-1.2,2-0.5,3c3.1,4.4,8.5,6.3,11.4,7.1c1.1,0.3,2.3,0.5,3.4,0.7
						C129.4-107.9,130.4-108.7,130.6-109.8z"/>
					<path class="st1" d="M136.6-110c-0.1-1-0.8-1.8-1.8-2c-0.2,0-0.3,0-0.5,0h-0.1c-1.2,0.1-2.1,1.1-2,2.3s1.1,2.1,2.3,2h0.1
						C135.8-107.8,136.6-108.9,136.6-110z"/>
				</g>
				<g>
					<path class="st1" d="M375.2-179.9l-5.4-11.4c-5.1-10.8-18.1-15.4-28.9-10.3c-8.2,3.9-15.2,4.2-21.9,4.6
						c-6.5,0.3-12.7,0.6-19.6,3.9c-14.9,7.1-21.2,24.9-14.1,39.8l5.4,11.4c7.1,14.9,24.9,21.2,39.8,14.1c5.7-2.7,20.3-10.1,31.7-20
						c5.9-5.1,10.1-10.2,12.5-15C377.6-168.8,377.7-174.5,375.2-179.9z M361.1-187.8c4.7,1.5,8.7,5,10.8,9.4
						c3.9,8.2-0.2,17.5-12.2,27.9c-11.1,9.5-25.3,16.8-30.9,19.4c-13.1,6.2-28.8,0.6-35-12.4c-6.2-13.1-0.6-28.8,12.4-35
						c6.2-2.9,12-3.2,18.2-3.5c7.1-0.3,14.5-0.7,23.3-4.9c0.5-0.2,1-0.5,1.6-0.7c0.9-0.3,1.4-1.4,1.1-2.3c-0.3-0.9-1.4-1.4-2.3-1.1
						c-0.6,0.2-1.3,0.5-1.9,0.8c-8.2,3.9-15.2,4.2-21.9,4.6c-6.5,0.3-12.7,0.6-19.6,3.9c-10.2,4.8-16.4,14.7-17,25.3
						c-5.1-12.7,0.5-27.5,13.1-33.4c6.2-2.9,12-3.2,18.2-3.5c7.1-0.3,14.5-0.7,23.3-4.9c9-4.3,19.8-0.4,24.1,8.6l0.3,0.6
						c-1.4-0.9-3-1.6-4.6-2.1c-1-0.3-2,0.2-2.3,1.2C359.7-189.1,360.2-188.1,361.1-187.8z"/>
					<path class="st1" d="M356.3-192.2c-0.3,0-0.6,0.1-0.8,0.2c-0.6,0.3-1,0.9-1,1.6c0,1,0.8,1.8,1.8,1.8l0,0c1,0,1.8-0.8,1.8-1.8
						C358.1-191.4,357.3-192.2,356.3-192.2z"/>
					<path class="st1" d="M339.6-142.9c-0.5-0.8-1.5-1.1-2.3-0.7c0,0-0.1,0-0.1,0.1h-0.1c-0.9,0.5-1.2,1.6-0.7,2.5s1.6,1.2,2.5,0.7
						h0.1C339.8-140.9,340.1-142,339.6-142.9z"/>
					<path class="st1" d="M368.7-176.8c-3.4-7.2-12.1-10.3-19.3-6.8c-5.1,2.4-10.4,3.9-16.4,4.6c-2.6,0.3-5.3,0.4-7.8,0.6
						c-1.8,0.1-3.6,0.2-5.4,0.3c-4.9,0.4-8.5,1.3-11.9,2.9c-11.3,5.4-16.1,18.9-10.7,30.2s18.9,16.1,30.2,10.7
						c1.9-0.9,3.8-1.8,5.6-2.8c0.3-0.2,0.6-0.3,0.9-0.5c0.9-0.5,1.2-1.6,0.8-2.4c-0.5-0.9-1.6-1.2-2.4-0.8c-0.3,0.2-0.6,0.3-0.9,0.5
						c-1.8,0.9-3.7,1.9-5.5,2.8c-9.5,4.5-20.8,0.5-25.3-9s-0.5-20.8,9-25.3c3-1.4,6.2-2.2,10.6-2.6c1.8-0.1,3.6-0.2,5.3-0.3
						c2.6-0.1,5.4-0.3,8.1-0.6c6.3-0.8,12-2.4,17.5-5c5.4-2.6,11.9-0.3,14.4,5.1c0.5,1.1,0.8,2.1,0.7,3.2c-0.1,5.3-6,12.6-16.2,20.1
						c-1.7,1.3-3.6,2.6-5.5,3.8c-0.8,0.6-1.1,1.7-0.5,2.5s1.7,1.1,2.5,0.5c2-1.3,3.9-2.6,5.7-4c3-2.2,7.3-5.7,10.9-9.6
						c4.4-4.9,6.7-9.4,6.8-13.3C369.8-173.6,369.4-175.2,368.7-176.8z"/>
					<path class="st1" d="M330.5-153c-2-4.1-7.3-5.7-11.9-3.6c-4.6,2.2-6.7,7.3-4.7,11.5c2,4.1,7.3,5.7,11.9,3.6
						C330.4-143.7,332.5-148.9,330.5-153z M327.2-151.5c1.1,2.3-0.2,5.3-3,6.6s-5.9,0.5-7-1.9c-1.1-2.3,0.2-5.3,3-6.6
						C323-154.6,326.1-153.8,327.2-151.5z"/>
				</g>
				<g id="Outline_1_">
					<g>
						<path class="st1" d="M207.8-233c-3.4,1.6-4.9,5.7-3.2,9.1c1.6,3.4,5.7,4.9,9.1,3.2c3.4-1.6,4.9-5.7,3.2-9.1
							C215.3-233.1,211.2-234.6,207.8-233z M209.3-229.9c1.7-0.8,3.8-0.1,4.6,1.6s0.1,3.8-1.6,4.6c-1.7,0.8-3.8,0.1-4.6-1.6
							S207.5-229.1,209.3-229.9z"/>
						<path class="st1" d="M230.4-233.9c0.8-0.5,1-1.6,0.5-2.4l-6.8-10.4c-0.5-0.7-1.4-1-2.2-0.6l-24.8,11.8
							c-0.9,0.4-1.2,1.4-0.8,2.3c0.4,0.9,1.4,1.2,2.3,0.8l23.4-11.1l6,9.2C228.5-233.6,229.6-233.3,230.4-233.9L230.4-233.9z"/>
						<path class="st1" d="M244.9-214.8l-10.3-15.7c-0.5-0.7-1.4-1-2.2-0.6c-0.1,0-0.1,0.1-0.2,0.1l0,0c-0.8,0.5-1,1.6-0.5,2.4
							l9.2,14.1l-4.5,2.2c-3.9-5.6-12.6-7.3-20.5-3.5c-4.5,2-8.1,5.8-9.9,10.5c-0.1,0-0.2,0-0.3,0.1h-0.1c-0.7-1.1-1.8-1.9-3.1-2.2
							c-0.1-0.6-0.3-1.2-0.6-1.7c-1-2-2.7-3.6-4.7-4.3c1.3-2,1-4.7-0.7-6.4l1.8-0.9c0.9-0.4,1.2-1.4,0.8-2.3l-1.5-3.1
							c-2-4.3-7.1-6.1-11.4-4.1l-23.2,11c-0.9,0.4-1.2,1.4-0.8,2.3c0.4,0.9,1.4,1.2,2.3,0.8l23.2-11c2.6-1.2,5.6-0.1,6.9,2.4
							l0.7,1.5l-8.1,3.8c-0.9,0.4-1.2,1.4-0.8,2.3c0.4,0.9,1.4,1.2,2.3,0.8l3.4-1.6c0.9-0.4,1.9,0,2.3,0.8c0.4,0.9,0,1.9-0.8,2.3
							l-5.4,2.6l-9.1-4.4c-0.1-0.1-0.2-0.1-0.4-0.1c-0.9-0.2-1.8,0.4-2.1,1.3l-0.3,1.3L152-202.5l-0.7-1.5c-1.2-2.6-0.1-5.6,2.4-6.9
							l4.6-2.2c0.9-0.4,1.2-1.4,0.8-2.3c-0.4-0.9-1.4-1.2-2.3-0.8l-4.6,2.2c-4.3,2-6.1,7.1-4.1,11.4l1.5,3.1
							c0.4,0.9,1.4,1.2,2.3,0.8l1.8-0.9c0.2,2.4,2.1,4.3,4.5,4.6c-0.7,2.1-0.6,4.4,0.4,6.4c0.3,0.6,0.6,1.1,1,1.6
							c-0.4,1.2-0.4,2.5-0.2,3.7l-0.2,0.1c-0.9,0.4-1.2,1.4-0.8,2.3c1.6,3.3,4.1,6.1,7.3,8c0.8,0.4,1.8,0.2,2.2-0.6
							c0.5-0.8,0.3-1.9-0.5-2.4c-2.1-1.3-3.9-3-5.1-5.1l43.2-20.5c2.6,7.4-0.9,15.6-8,19l-15.5,7.4c-2.7,1.3-5.8,1.8-8.8,1.3
							c-0.9-0.1-1.8,0.5-1.9,1.5c-0.1,0.9,0.5,1.8,1.5,1.9c3.7,0.5,7.4,0,10.7-1.6l15.5-7.4c0.4-0.2,0.7-0.4,1-0.6l0.3,3.1
							c0,0.2,0.1,0.4,0.2,0.6c0.4,0.9,1.4,1.2,2.3,0.8l6.2-2.9c0.6-0.3,1-1,1-1.7l-0.2-2.9l2,2c0.7,0.7,1.7,0.7,2.4,0l3.8-3.8
							c0.4-0.4,0.6-0.9,0.5-1.4l-0.2-1.8l2.2,5.8c0.2,0.4,0.4,0.7,0.8,0.9l0.8,0.4l-25.6,12.1c-0.9,0.4-1.2,1.4-0.8,2.3
							c0.4,0.9,1.4,1.2,2.3,0.8l24.8-11.8l0.7,1.5c0.4,0.9,0,1.9-0.8,2.3l-40.3,19.1c-0.9,0.4-1.9,0-2.3-0.8l-0.7-1.5l12.4-5.9
							c0.9-0.4,1.2-1.4,0.8-2.3c-0.4-0.9-1.4-1.2-2.3-0.8l-12.2,5.8l-2.3-6.6c-0.3-0.9-1.3-1.4-2.2-1.1c-0.1,0-0.1,0-0.2,0.1
							c-0.8,0.4-1.2,1.3-0.9,2.1l2.9,8.6l1.5,3.1c1.2,2.6,4.3,3.7,6.9,2.4l3.1-1.5l0.7,1.5c1.2,2.6,4.3,3.7,6.9,2.4l7.7-3.7l4.7,9.8
							c0.7,1.6,2.2,2.6,3.9,2.9l18.4,2.7l0,0c0.9,0.1,1.8-0.5,1.9-1.5l1-6.8l0,0c0.1-0.9-0.5-1.8-1.5-1.9l-15.6-2.3l-3.5-7.3
							l7.7-3.7c2.6-1.2,3.7-4.3,2.4-6.9l-0.7-1.5l3.1-1.5c2.6-1.2,3.7-4.3,2.4-6.9l-0.7-1.5l3,1.6c0.1,0,0.1,0.1,0.2,0.1
							c0.9,0.3,1.9-0.1,2.2-1l1-2.7l1.3,2.3c0.4,0.6,1,0.9,1.7,0.8l3.5-0.5c0.4-0.1,0.8-0.3,1.1-0.7l3.5-4.7l0,0
							c0.6-0.8,0.4-1.8-0.4-2.4c-0.8-0.6-1.8-0.4-2.4,0.4l-3,4.1l-1.7,0.3l-2.2-3.8c0.1-0.4,0.1-0.7,0-1.1l-3.9-10.3l0.9-0.7
							l6.2,9.7c0.1,0.1,0.2,0.2,0.3,0.3c0.7,0.6,1.8,0.6,2.4-0.1l4.8-5.2l4.1,5.3c0.3,0.4,0.7,0.6,1.2,0.7c0.9,0.1,1.8-0.6,1.9-1.5
							l1-10c0-0.4-0.1-0.9-0.3-1.2l-6.4-8.4c-0.5-0.6-1.4-0.9-2.1-0.5c-0.1,0.1-0.2,0.1-0.3,0.2c-0.8,0.6-0.9,1.7-0.3,2.4l6,7.9
							l-0.5,5l-2.3-3c-0.1-0.2-0.1-0.4-0.3-0.5l-9-12.4l7.3-3.5c0.4-0.2,0.8-0.6,0.9-1.1C245.2-213.9,245.2-214.4,244.9-214.8z
							 M205.5-154l3.1-1.5l3.9,8.2c0.2,0.5,0.7,0.9,1.3,1l14.8,2.2l-0.5,3.4l-16.7-2.4c-0.6-0.1-1.1-0.4-1.3-1L205.5-154z
							 M218-167.6l0.7,1.5c0.4,0.9,0,1.9-0.8,2.3L193.1-152c-0.9,0.4-1.9,0-2.3-0.8l-0.7-1.5L218-167.6z M219.6-213.7
							c1.2-0.4,2.3-0.6,3.5-0.7l7.1,13l-2.8,2.3L219.6-213.7z M223.5-184.1l-9.9-26.3c0.9-0.7,1.8-1.4,2.9-2l9.1,16.6
							c0.2,0.4,0.7,0.8,1.2,0.9c0.1,0,0.1,0,0.2,0l3.5,9.2l-1.6,4.4L223.5-184.1z M203.3-182.3c1.1-0.9,2-1.9,2.8-3.1l0.3,4.3
							l-2.9,1.4L203.3-182.3z M199-207.3c-0.8,0.4-1.5,0.9-2,1.6c-0.4,0.5-0.9,0.7-1.5,0.7l-4-0.1c-1.7,0-3.3,0.7-4.3,2l-2.5,3.2
							c-0.4,0.5-0.9,0.7-1.5,0.7l-4-0.1c-1.7,0-3.3,0.7-4.3,2l-2.5,3.2c-0.4,0.5-0.9,0.7-1.5,0.7l-3.1-0.1c-2.3,0-4.5,1-5.9,2.8
							l-0.1,0.1c-1.1-2.5,0-5.5,2.5-6.7l27.9-13.3c2.6-1.2,5.6-0.1,6.9,2.4C198.9-207.7,199-207.5,199-207.3L199-207.3z
							 M175.3-209.9l-1,4.3l-14.7,7c-0.9,0.4-1.9,0-2.3-0.8c-0.4-0.9,0-1.9,0.8-2.3L175.3-209.9z M184.2-210.4l-5.9,2.8l1.2-5.1
							L184.2-210.4z M201.4-204.4c0.4,0,0.8,0.2,1.1,0.5L162.8-185c0-0.8,0.3-1.6,0.8-2.3l0.9-1.2c0.7-0.9,1.9-1.5,3.1-1.5l3.1,0.1
							c1.7,0,3.3-0.7,4.3-2l2.5-3.2c0.4-0.5,0.9-0.7,1.5-0.7l4,0.1c1.7,0,3.3-0.7,4.3-2l2.5-3.2c0.4-0.5,0.9-0.7,1.5-0.7l4,0.1
							c1.7,0,3.3-0.7,4.3-2c0.3-0.4,0.8-0.7,1.4-0.7c0,0,0,0,0.1,0l0,0C201.3-204.4,201.3-204.4,201.4-204.4L201.4-204.4z
							 M208.8-202.6c0.3-1.8,1.1-3.5,2.2-5l2.6,6.9l1.5,14l-2,2l-2.2-2.3l-1.1-7.6C210-197.3,209.7-200,208.8-202.6L208.8-202.6z
							 M227.1-214.3c0.7,0.1,1.3,0.3,1.9,0.5l13.4,18.3l-3.8,4.1l-5.2-8.1l0.2-0.1c0.6-0.5,0.8-1.4,0.4-2.2L227.1-214.3L227.1-214.3
							z"/>
						<circle class="st1" cx="190" cy="-186.5" r="1.7"/>
						<circle class="st1" cx="184.5" cy="-182" r="1.7"/>
						<circle class="st1" cx="178.4" cy="-182.9" r="1.7"/>
						<circle class="st1" cx="201.6" cy="-194" r="1.7"/>
						<circle class="st1" cx="173" cy="-178.4" r="1.7"/>
						<circle class="st1" cx="196.9" cy="-187.9" r="1.7"/>
					</g>
				</g>
			</g>
			<g>
				<g>
					<path class="st1" d="M92.8-179.9l-5.4-11.4c-5.1-10.8-18.1-15.4-28.9-10.3c-8.2,3.9-15.2,4.2-21.9,4.6
						c-6.5,0.3-12.7,0.6-19.6,3.9C2.1-186-4.2-168.2,2.9-153.3l5.4,11.4c7.1,14.9,24.9,21.2,39.8,14.1c5.7-2.7,20.3-10.1,31.7-20
						c5.9-5.1,10.1-10.2,12.5-15C95.2-168.8,95.3-174.5,92.8-179.9z M78.7-187.8c4.7,1.5,8.7,5,10.8,9.4c3.9,8.2-0.2,17.5-12.2,27.9
						C66.2-141,52-133.7,46.4-131.1c-13.1,6.2-28.8,0.6-35-12.4c-6.2-13.1-0.6-28.8,12.4-35c6.2-2.9,12-3.2,18.2-3.5
						c7.1-0.3,14.5-0.7,23.3-4.9c0.5-0.2,1-0.5,1.6-0.7c0.9-0.3,1.4-1.4,1.1-2.3c-0.3-0.9-1.4-1.4-2.3-1.1c-0.6,0.2-1.3,0.5-1.9,0.8
						c-8.2,3.9-15.2,4.2-21.9,4.6c-6.5,0.3-12.7,0.6-19.6,3.9c-10.2,4.8-16.4,14.7-17,25.3c-5.1-12.7,0.5-27.5,13.1-33.4
						c6.2-2.9,12-3.2,18.2-3.5c7.1-0.3,14.5-0.7,23.3-4.9c9-4.3,19.8-0.4,24.1,8.6l0.3,0.6c-1.4-0.9-3-1.6-4.6-2.1
						c-1-0.3-2,0.2-2.3,1.2C77.3-189.1,77.8-188.1,78.7-187.8z"/>
					<path class="st1" d="M73.9-192.2c-0.3,0-0.6,0.1-0.8,0.2c-0.6,0.3-1,0.9-1,1.6c0,1,0.8,1.8,1.8,1.8l0,0c1,0,1.8-0.8,1.8-1.8
						C75.7-191.4,74.9-192.2,73.9-192.2z"/>
					<path class="st1" d="M86.3-176.8c-3.4-7.2-12.1-10.3-19.3-6.8c-5.1,2.4-10.4,3.9-16.4,4.6c-2.6,0.3-5.3,0.4-7.8,0.6
						c-1.8,0.1-3.6,0.2-5.4,0.3c-4.9,0.4-8.5,1.3-11.9,2.9c-11.3,5.4-16.1,18.9-10.7,30.2s18.9,16.1,30.2,10.7
						c1.9-0.9,3.8-1.8,5.6-2.8c0.3-0.2,0.6-0.3,0.9-0.5c0.9-0.5,1.2-1.6,0.8-2.4c-0.5-0.9-1.6-1.2-2.4-0.8c-0.3,0.2-0.6,0.3-0.9,0.5
						c-1.8,0.9-3.7,1.9-5.5,2.8c-9.5,4.5-20.8,0.5-25.3-9s-0.5-20.8,9-25.3c3-1.4,6.2-2.2,10.6-2.6c1.8-0.1,3.6-0.2,5.3-0.3
						c2.6-0.1,5.4-0.3,8.1-0.6c6.3-0.8,12-2.4,17.5-5c5.4-2.6,11.9-0.3,14.4,5.1c0.5,1.1,0.8,2.1,0.7,3.2c-0.1,5.3-6,12.6-16.2,20.1
						c-1.7,1.3-3.6,2.6-5.5,3.8c-0.8,0.6-1.1,1.7-0.5,2.5s1.7,1.1,2.5,0.5c2-1.3,3.9-2.6,5.7-4c3-2.2,7.3-5.7,10.9-9.6
						c4.4-4.9,6.7-9.4,6.8-13.3C87.4-173.6,87-175.2,86.3-176.8z"/>
				</g>
			</g>
			<g>
				<g>
					<path class="st1" d="M295-76.7c5.8-4.8,8.4-11.6,5.8-16.9c-3.2-6.7-13.5-8.6-22.9-4.1c-5.2,2.5-9.1,6.4-11,10.6
						c-4.5-1.3-9.2-1-13.5,1.1c-3,1.4-5.6,3.6-7.5,6.4c-3.3-0.3-6.7,0.3-9.7,1.8c-9.4,4.5-13.5,15.8-9,25.3c1.4,3,3.6,5.6,6.4,7.5
						c-0.3,3.3,0.3,6.6,1.8,9.7c2.2,4.6,6.1,8.1,11,9.8c-1.8,4.8-1.5,10,0.7,14.7c4.5,9.4,15.8,13.5,25.3,9c3.2-1.5,6-3.9,7.9-7
						c2.6-0.1,5.1-0.7,7.5-1.8c6.7-3.2,10.8-9.9,10.8-17.2l2.1,0.7c2,0.7,4.2-0.3,5-2.2l1.8,0.7c2,0.7,4.3-0.4,5.1-2.3l10.1,3.6
						c2.3,0.8,5.1-0.5,5.9-2.8l0.4-1.1c0.4-1.2,0.3-2.4-0.2-3.5s-1.5-2-2.6-2.4l-10.1-3.6c0.6-2-0.5-4.2-2.5-5l-1.8-0.7
						c0.5-2-0.5-4.2-2.5-4.9l-3.5-1.2c0.2-3.2-0.4-6.5-1.8-9.5c-1.3-2.7-3.2-5-5.5-6.8c-0.3-1.7-0.8-3.3-1.5-4.8
						C296.3-74.7,295.7-75.7,295-76.7L295-76.7z M313.5-33.5l1.7-4.7l10.1,3.6c0.5,0.2,0.9,0.5,1.1,1s0.2,1,0.1,1.5l-0.4,1.1
						c-0.3,1-1.5,1.5-2.4,1.2L313.5-33.5z M310.1-32.1c-0.2,0.7-1,1.1-1.7,0.8l-1.8-0.6l4.2-11.9l1.8,0.6c0.7,0.3,1.1,1,0.8,1.7
						L310.1-32.1L310.1-32.1z M252.9-47.1c-0.7-0.2-1.1-1-0.8-1.7l5.8-16.4c0.2-0.7,1-1.1,1.7-0.8l48.6,17.3c0.7,0.2,1.1,1,0.8,1.7
						l-5.8,16.4c-0.1,0.3-0.4,0.6-0.7,0.8c-0.3,0.1-0.7,0.2-1,0.1L252.9-47.1z M235.9-61.1c-0.5-0.2-0.9-0.5-1.1-1
						c-0.2-0.5-0.2-1-0.1-1.5l0.4-1.1c0.3-1,1.5-1.5,2.4-1.2l10.1,3.6l-1.7,4.7L235.9-61.1z M251-63.7c0.2-0.7,1-1.1,1.7-0.8
						l1.8,0.6L250.3-52l-1.8-0.6c-0.7-0.3-1.1-1-0.8-1.7L251-63.7z M247.8-77.5c1.6-2.6,4-4.8,6.8-6.1c3.6-1.7,7.6-2,11.4-0.9
						c-0.6,2.5-0.5,5,0.6,7.2c3.2,6.7,13.5,8.6,22.9,4.1c1.2-0.6,2.3-1.2,3.3-1.9c0.6,0.8,1.1,1.7,1.6,2.6c0.7,1.5,1.2,3,1.4,4.6
						c0.1,0.4,0.2,0.7,0.5,0.9c2.2,1.6,3.9,3.7,5.1,6.2c1.1,2.3,1.6,4.8,1.6,7.4l-42.5-15.1c-1.1-0.4-2.2-0.3-3.1,0.2
						c-0.8,0.4-1.5,1.1-1.9,2l-1.8-0.7c-1-0.4-2.1-0.3-3.1,0.2c-0.9,0.4-1.6,1.2-2,2.1l-10.1-3.6c-1.2-0.4-2.4-0.4-3.5,0.2
						c-1.1,0.5-2,1.5-2.4,2.6l-0.4,1.1c-0.4,1.2-0.3,2.4,0.2,3.5s1.5,2,2.6,2.4l10.1,3.6c-0.6,2,0.5,4.2,2.5,5l1.8,0.7
						c-0.5,2,0.5,4.2,2.5,4.9l43.8,15.6c0.4,6.6-3.2,12.9-9.2,15.7c-2.2,1-4.6,1.6-7.1,1.6c-0.5,0-0.9,0.3-1.2,0.7
						c-1.7,2.9-4.1,5.1-7.1,6.5c-8.1,3.8-17.8,0.4-21.7-7.7c-2.1-4.4-2.1-9.4-0.1-13.8c0.2-0.4,0.2-0.8,0-1.2s-0.5-0.6-0.9-0.7
						c-4.7-1.2-8.6-4.4-10.7-8.8c-1.3-2.8-1.8-5.9-1.4-9c0.1-0.5-0.2-1-0.6-1.3c-2.6-1.6-4.8-4-6.1-6.8c-3.8-8.1-0.4-17.8,7.7-21.7
						c2.8-1.3,5.9-1.8,9-1.4C247-76.8,247.5-77,247.8-77.5L247.8-77.5z M298.4-92.4c2.6,5.4-1.9,12.9-10,16.8s-16.8,2.6-19.3-2.8
						c-2.6-5.4,1.9-12.9,10-16.8C287.2-99,295.8-97.8,298.4-92.4z"/>
					<circle class="st1" cx="288.1" cy="-92" r="2.7"/>
					<circle class="st1" cx="279.6" cy="-90.9" r="2.7"/>
				</g>
			</g>
		</g>
	</g>
</pattern>
<pattern  id="SVGID_1_" xlink:href="#New_Pattern_4" patternTransform="matrix(1 0 0 -1 -70.4 -16675.9609)">
</pattern>
<rect x="6" y="-8" class="st2" width="976" height="1956"/>
</svg>
