<?xml version="1.0" encoding="utf-8"?>
<!-- Generator: Adobe Illustrator 22.1.0, SVG Export Plug-In . SVG Version: 6.00 Build 0)  -->
<svg version="1.1" id="Layer_1" xmlns="http://www.w3.org/2000/svg" xmlns:xlink="http://www.w3.org/1999/xlink" x="0px" y="0px"
	 viewBox="0 0 595.3 841.9" style="enable-background:new 0 0 595.3 841.9;" xml:space="preserve">
<style type="text/css">
	.st0{fill:#151D2A;stroke:#151D2A;stroke-miterlimit:10;}
	.st1{fill:#DF1434;}
	.st2{fill:#DF1434;stroke:#DF1434;stroke-miterlimit:10;}
</style>
<rect x="0" y="-0.9" class="st0" width="598.5" height="848.9"/>
<g>
	<path class="st1" d="M373.3,85.7c-0.4,0-0.8,0.1-1.3,0.1c-20.3,0-25.1-25.8-14.3-38c-0.3-1.7-0.5-3.3-0.4-5
		c-0.4,0.1-0.7,0.1-1.1,0.2c-0.1-0.4,0-0.8,0.3-1.1c-0.2-0.1-0.4,0.3-0.6,0c-0.4,0.4,0,1-0.3,1.5c-0.2-0.8-0.6-0.6-1,0.1
		c-0.1-0.4,0.1-0.7-0.1-1.2c-0.2,0.4,0,0.9-0.2,1.3c-0.3-1.1-0.3,0-0.8,0.2c-0.1-0.4,0.1-0.7-0.1-1.2c-0.1,0.3-0.1,0.6,0,0.9
		c-0.5,0.5-1.2-0.9-1.1-2.2c-0.7,0.6,0.4,1.2-0.1,2.3c-0.2-0.1-0.1-0.6-0.4-1c-0.4,0.7-0.7-0.1-1,1.3c-0.3,0-0.6,0-0.6-1.1l-0.4,0.8
		c0.1,1,0.2-0.8,0.3,0.3c-0.3,1.4-1.2,0.2-1.9,1.1c0.2-0.7,0.2-1.4,0.5-1.6c-0.4-1.1-0.7,1.3-1.2,1.4c-0.2-1.3-0.6-0.3-1,0.1
		c-0.3-1.1-0.7-0.7-1.1-0.5c0-0.8,0.4-0.2,0.6-0.8c-0.1-0.6,0.3-1.1,0.2-1.7c-0.5,1.1-1,1.1-1.4,2.3c-0.1-0.4-0.3-0.1-0.5-0.5
		c0-1.1,0.8-0.1,0.4-1.4c0.3-0.7,0.4,0.3,0.7-0.4c-0.1-0.9-0.8,0.5-0.7-0.7c-0.3,0.6-0.5,0.3-0.9,0.9c0.1-1.5-0.4-0.1-0.6-1.1
		c-0.5,1-0.9,0.6-1.3,1.2c-0.1,0.8,0.2,1.4,0.5,0.9c-0.2,1.3-0.7,0.5-0.9,0.4c0-0.6,0.2-1.2,0.3-1.3c0-0.6-0.2-0.7-0.1-1.5
		c-0.2,1.7-0.4,0.4-0.9,1.5c0.1,1,0.3-0.1,0.4,0.7c-0.2,0.1-0.5,0.7-0.7-0.1c0-0.4,0.1-0.1,0.2-0.5c-0.1-0.4-0.3-0.2-0.1-0.6
		c-0.2-0.6-0.2,1.2-0.3,0.1c0,0.6,0.1,1.3-0.2,1.9c-0.3-0.1,0-0.6-0.2-1.2c-0.2,0.4-0.2,0.8-0.2,1.3c-0.1,0-0.2-0.3-0.3,0.1
		c-0.3-0.9,0.3-1.6,0.2-2.4c-0.1,0.5-0.3,1-0.3,1.5c-0.3,0.8-0.4-0.9-0.7,0.2c-0.2-0.5-0.1-0.9-0.2-1.4c-0.4,0.7-0.6,0.2-0.9,0
		c-0.3,1.3-0.7,0.8-1.1,0.7c-0.2-0.4,0.4-0.7,0.1-1.1c-0.4,1.1-0.7,0.5-1.1,0.5c-0.3,0.4,0.1,0.9-0.2,1.3c-0.4,0.1,0-1.1-0.3-1.6
		c-0.2,0-0.3,0.2-0.3,0.7c-0.5-2.2-1.4,0.9-2-0.4c-0.3,1.2-0.4,1-0.9,1.7c-0.1,0-0.2-0.8-0.4-0.7c0-1,0.4-0.4,0.6-1
		c-0.4-0.7-0.7,0.1-1.1,0.7c-0.3-0.4-0.1-0.8-0.3-1.6c-0.3,0.2-0.4-0.3-0.6,0.6l-0.2-0.8c0,1-0.7,1.3-0.9,0
		c-0.3,1.3-0.5,0.7-0.8,0.4c-0.3,0.6,0,0.2,0.1,0.8c-0.2,0.5-0.3,0-0.5,0.1c-0.2-0.9,0-0.9,0.1-1.5c-0.3,0-0.6-0.3-0.8-1.5
		c0.1-0.2,0.2-0.3,0.2-0.1c0-0.7-0.6-0.4-0.9-0.6c0.7,0.7,0.5,1.9,1.1,2.3c-0.7,1.5-0.6-1.2-1.1-1c0,0.8,0.4,1.7,0.3,2.5
		c-0.1-0.7-0.6-0.7-0.7-1.7c-0.2,0.8-0.3,1.6-0.5,2.4c0.2-1.3-0.2-1.3-0.4-2c-0.1-0.5,0.3-0.9,0.1-1.5c-0.2,0.6-0.2,0.6-0.2,1.5
		c-0.2,0-0.4-0.7-0.3,0.3c-0.2,0-0.4-0.6-0.5-1.1c0-0.6,0.6,0,0.6-1.2c-0.4,0.6-2.1,2-1.7-0.2c-0.2-0.1-0.4,0.8-0.6,0.1
		c-0.4,1.7-1,0.2-1.6,2c-0.1-1.3-0.5-0.5-0.3-1.6c-0.2-0.3-0.2,1-0.5,1.2c-0.5-0.2-1-0.8-1.6,0.3c0-1.1-0.5-0.8-0.5-0.1
		c-0.1-1-0.4-0.4-0.6-1c0,0.6,0.1,0.6,0.2,1.5c-0.3,0.1-0.5-0.7-0.6-1.2c-0.3-0.2-0.2,1.1-0.7-0.1c0,0.3,0.1,0.6-0.1,0.9
		c0.3-0.2,0.6,0.1,0.8,0.7c-0.5-0.1-1-0.3-1.5-0.2c0-0.2,0-0.4,0-0.6c0.2-0.3,0.6,0.5,0.7-0.6c-0.3-0.6-0.7,0.8-1.1-0.4
		c-0.1,0.3-0.2,0.5-0.3,0.3c-0.1,0.3-0.1,0.6,0,0.9c-0.3,0.6-0.6-0.1-0.9,0.4c-0.2-0.4,0-0.8-0.2-1.2c-0.3,0.4,0.1,1-0.3,0.9
		c-0.2-0.5,0.2-0.9-0.2-1c-0.2,0.3,0,0.6-0.1,0.9c-1-2.4-2.3-0.3-3.1-1.5c-0.1-0.4,0.2-0.7,0.2-1.1c-0.4-0.4-0.8,1.2-1.1-0.4
		c-0.1,0.3-0.1,0.6,0,1c-0.2,0.7-0.3,0.2-0.4,0.7c-0.2-0.3,0-0.6,0.1-0.9c-0.2-0.5-0.4,0-0.6-0.3c-0.1,0.2,0,0.5,0.1,0.8
		c-0.2,0.6-0.3,0-0.4,0.3c0-0.3,0.1-0.6,0-0.9l-0.3,0.7c-0.2-0.4,0-0.7-0.2-1.2c-0.7,0.2-1.3,0.4-2,0.2l0.2,0.6
		c-0.2-0.1-0.4,0.8-0.5,0.3c-0.2-0.3,0-0.6,0.1-0.9c-0.4-0.5-1.1,0.4-1.3,0.7c-0.1-0.8-0.2-1-0.5-0.5c0.3,0.8,0,0.7-0.2,1.1
		c0.6-0.3,0.9,0.8,1.5,0.4c0.1-0.3-0.1-0.2-0.1-0.4c0.2-0.8,0.3,0.5,0.4-0.3c0.2,1,0.2,0.7,0.5,1.6c-0.8-0.9-1.9,0.6-2.4-0.8
		c0,0.2,0,0.4-0.1,0.5c-0.3,0.3,0.1-0.7-0.2-1c-0.4,1.5-0.8,0.5-1.2,0.2c-0.1,1-0.4,0.9-0.7,0.7c0.1-0.7,0.4-1.5,0.2-2.2
		c0.2-0.2,0.5,0.1,0.6-0.7c-0.3,0.1-0.3-0.1-0.4-0.8c-0.1,0.8-0.3,0.6-0.4,1.3c-0.2,0.3-0.4-0.5-0.7,0.3c-0.2-1.4-0.9-0.7-1.3-0.2
		c0-1.1-0.2-1.1-0.6-0.3c0-0.3,0-0.6,0.1-0.9c-0.4-0.6-0.9,0.6-1.4,0.2c-0.1,0.4,0.2,0.8,0,1.1c-0.1,0.5-0.3-1-0.4-0.1
		c-0.1-0.3-0.1-0.6,0-0.9c-0.2-0.2,0,1-0.3,0.5c-0.2-0.4-0.2-0.8-0.1-1.1c-0.3,0.5-0.9-0.6-1.1,0.6c-0.2-0.4,0-0.8-0.3-1.2
		c0,1.2-0.4,0.1-0.3,0.1c-0.5,0.1-0.6,1.6-1.2,0.4c-0.1,1.1-0.6,0.5-1,0.6c0-0.3,0.1-0.6-0.1-0.9c-0.2,1.2-0.5,0-0.9,1.2
		c-0.1,0.8,0.3,1,0.5,0.6c0.1,0.2-0.3,0.8-0.4,0.7c-0.1,0.9,0.3,0.3,0.4,0.4c0.1,0.3-0.1,0.6-0.2,0.9c-0.1,0.1-0.4-1.2-0.7-0.1
		c-0.2-0.5-0.3-0.9-0.2-1.3c-0.2-0.7-0.5,0.3-0.7-0.7c0,0,0,0,0,0c-0.1,0.5,0,1.1-0.3,1.1c0-0.4,0.2-0.7,0.3-1.1c0,0,0,0,0,0v0
		c0.2-0.8,0.5-1.4,0.9-1.9c-0.2-0.2-0.4-0.6-0.7-0.8c-0.1,0.4-0.1,1.1-0.3,0.5c-0.1,0.3,0,0.6-0.1,0.9c-0.3,0.5-0.2-0.5-0.5-1
		c0.1,1.6-1.1,1.7-1.3,0c0,0.9-0.3,0-0.5,0.9c0.2,0.7,0.5-0.2,0.7,0.5c0,0.7-0.6,0-0.8-0.1c0,0.4-0.1,0.7-0.3,1.1
		c-0.2,0.4-0.2-0.6,0-0.8c-0.2-0.3-0.2,1-0.1,1.3c0.2-0.3,0.3,0.2,0.5-0.5l0.1,1.1c-0.3,0.5-0.6-0.7-0.9-0.1c-0.1-0.7,0.5-2,0-2.2
		c0.1,1-0.1,0.5-0.3,0.9c0-1.1,0.2-0.5-0.3-1.2c0,0.7,0,1-0.3,1.3c-0.1-1.4-0.5,0.4-0.8-0.8c0.8-0.1,1.4-1.2,2.4-0.3
		c-0.3-1.3,0.6-0.5,0.5-2c-0.1-0.4-0.2-0.2-0.3-0.6c-0.1,1.2-0.7,0.3-0.8-0.5c0.2,1.1-0.3,1-0.1,2.1c-0.2-0.1-0.4,0.5-0.5-0.1
		c-0.1-0.6,0.5,0.1,0.1-0.9c0.1-0.8,0.3,0.5,0.4-0.3c-0.1-0.3-0.1-0.6-0.2-1c-0.4,1.2-0.5,0.2-0.6-0.6c0,1.6-0.9,0.4-1.3,0.8
		c-0.1,0.7,0,0.5,0.2,1c-0.4,1.2-1.2,0-1.4,1.2c-0.3-0.5,0-0.9-0.1-1.3c0.4,0,0.7-0.3,1.1,0.1c0.1-0.5,0.1-1,0-1.5
		c-0.1,0.4-0.2,0.2-0.3,0c0,0.3-0.1,0.5,0,0.8c-0.4-1.2-1.4-0.1-1.6,1c0.1-1.9-0.5-0.9-0.7-2.3c-0.1,0.3-0.2,0.3-0.3,0.2
		c-0.1,1,0.3,0.2,0.4,0.8c0.1,0.8-0.3,1.3-0.6,2.4c-0.3-1.1,0.3-1,0.3-1.8c-0.4-0.7-0.3,0.1-0.6,0.5c0.1,0.4,0.1,0.9,0.1,1.3
		c-0.2,0.3-0.3-0.6-0.5,0.1c0.3,0.8,0.6-0.8,0.9,0.6c0.3-0.8,0.7-1.4,1-1.2c0.1,0.5-0.3,0.3-0.4,0.3c-0.1,0.7,0.4,0.7,0.3,0
		c0.1,3.7-1.9,0.5-3,1.6c0.1,0.3,0.2,0.5,0.1,0.8c0.2,0.6,0.3-0.6,0.5,0.2c0,0.5-0.5,1.2-0.7,0.3c0.2,0.9-0.4,2-0.7,1.1
		c-0.1-0.2,0.4-0.8,0.5-0.3c-0.1-1.1,0.1-1.1,0.2-2c-0.3-0.5-0.2-0.7-0.6-1.2c0.5-0.4,0.8,0.4,1.3-1c-0.3-0.9,0-0.9-0.4-1.5
		c0,0.6,0.3,1.3-0.1,1.9c-0.5,0-0.9-0.4-1.4-0.1c0.2,0.4,0.2,0.8,0.1,1.1c0.2,0.2,0.4,0.2,0.6,0.2c0,0.5-0.3,0.8-0.4,1.1
		c-0.1-0.3-0.1-0.5,0-0.7c-0.4-0.5-0.1,1.1-0.5,0.7c0-0.6,0.1-1.1,0-1.7c-0.5,1.4-1.4-0.1-1.9,1.3c-0.1-0.4,0.1-0.9-0.2-1.3
		c-0.2,0.4-0.5-0.1-0.7,0.9c0.2,0.4,0.3,0.8,0.3,1.1c-0.3,0.4-0.6,0-0.9,0.7c-0.2-0.8,0.2-2.1,0.5-1.1c-0.2-0.6,0.1-1.1-0.1-1.7
		c-0.2,1.3-0.6,0.8-1.1,1.6c0.2,0.8,0.3-0.3,0.5,0.2c0,0.9-0.4,0.1-0.6,0.9c-0.1-0.3-0.1-0.6-0.2-1c-0.1,2-0.8-0.1-1.1,0.8
		c-0.2-1.4,0.5-1,0.5-1.8c-0.1-0.2-0.1,0.1-0.2,0.2c-0.3-0.4,0.1-0.7-0.2-1.1c-0.2,0.6-0.6-0.1-0.5,0.9c-0.2,0.8-0.5-0.4-0.7-0.1
		c-0.1-0.5,0-1.2,0.3-0.7c-0.1-1.3-0.8,1-1-0.8l-0.4,1.1c0.2,0.3,0.1,0.6,0.2,1c-0.2,0.4-0.3-0.3-0.4-0.8c-0.4,1.5-0.8,0-1.6-0.7
		c-0.4,1-1.3-0.6-1.9,0.2c0,0.9,0.3,0.2,0.5,0.6c-0.1,1-0.7,0.7-1.1,0.7c-0.2-0.9,0.4,0,0.3-0.9c-0.2-0.4-0.4-0.7-0.4-1.1
		c-0.2,0.4-0.4,1.5-0.6,2.2c-0.3,0.3-0.3-1-0.5-1.3c-0.2-0.1-0.6,1-0.6-0.2c-0.5,1-1,0.7-1.6,0.5c-0.3-0.6,0.2-1.1-0.1-1.7
		c-0.4,0.5,0.2,1.1-0.1,1.7c-0.3,0.5-0.4-1-0.6-1.5c-0.2,0.4-0.4-0.2-0.6,0c0-0.5-0.1-1-0.3-1.5c0,0.3,0,0.8-0.2,0.5
		c-0.1,0.5,0.2,0.1,0.3,0.8c-0.2,0.7-0.4,0-0.5,0c-0.1,0.5,0.3,0.7,0.4,0.6c0,0.4,0,0.9,0,1.3c-0.3,0-0.3-0.7-0.4,0.3
		c-0.3-0.9,0-0.7,0-1.3c-0.3-0.5-0.2,0.4-0.3,0.9c-0.3,0.3-0.6-0.2-1-0.1c0-0.6,0.1-1.1,0.1-1.7c-0.3-0.3-0.7-1.8-1-1.2
		c-0.3-1.2-0.4-1.8-1.1-1.9c0.2,0.4,0.4,0.4,0.5,1.1c-0.2,0.5-0.4,0.2-0.6,0.1c-0.1,0.4,0.1,0.8-0.1,1.1c0.3-0.1,0.8,1,0.8,0
		c0.1,0.4,0.2,0.9,0,1.3c-0.2,0.1-0.2-1.1-0.5,0.2c-0.3-0.4,0.1-0.7-0.2-1.1c0.1,1.1-0.3,1.1-0.6,0.5c-0.1,0.7,0.1,0.9,0.3,0.8
		c-0.1,0.4-0.2,0.2-0.3,0.5c-0.1-0.4-0.5-0.9-0.4-1.3c-0.1-0.1-0.5,1-0.5-0.2c-0.2-0.4-0.3,1.6-0.6,1.1c-0.1-0.3,0.1-0.6,0.2-0.9
		c-0.3-0.1-1-1.2-1.1-0.1c-0.1,0.2-0.6-0.2-0.3-0.8c-0.6,0.1-1.3,1.3-1.4,3.5c-0.2,0.1-0.3-0.2-0.5,0.2c-0.3-0.6,0.2-1.2-0.2-1.9
		c0.3-0.7,0.3-0.2,0.5,0c0.3-0.6,0.3-1.2,0-1.9c-0.1,0.2,0.1,0.4,0.1,0.6c-0.2,0.3-0.4,0.8-0.6,0.1c-0.2-0.5,0.2-0.1,0.2-0.7
		c-0.2-0.8-0.3,0.5-0.6-0.4c0,1.8-0.8,0.5-1.4-0.4c-0.2,0.7-0.3,2,0.2,2.1c-0.2-1,0.1-0.6,0.4-0.4c0.1,0.3-0.1,0.3-0.2,0.2
		c0.2,0.9,0.8,0.2,1.2,0.6c-1,1.3-2.8,0.3-4,1c-0.1-0.3,0-0.5,0.1-0.7c-0.2-0.3-0.4-0.4-0.5,0.4c-0.2-1.2-0.3-0.2-0.6-0.8
		c-0.2-0.4,0.4-0.9,0-1.3c-0.2,1.2-0.4,0.5-0.9,0.2c-0.1,0.9-0.3,1.6-0.8,0.4c-0.2,0.9-0.4,0.2-0.6,1.1c-0.9-2.6-2.1-0.7-3.5-2
		c0.1,0.8-0.2,1.5-0.4,0.4c-0.2,0.4-0.1,0.9-0.1,1.3c-0.1,0.1-0.2,0.2-0.3,0c0-0.6-0.1-1.1,0.1-1.7c-0.5-0.7,0,1.6-0.5,0.4
		c0,1.3-0.2,0.9-0.5,0.9c-0.2-0.4,0-0.9,0.1-1.3c-0.6,1-1.7,0.1-1.9,2.4c-0.3,0.4-0.3-0.2-0.6-0.4c-0.2-0.6,0.1-1.1-0.2-1.7
		c-0.2,0.5-0.1,1,0,1.5c-0.4-0.2-0.2,0.4-0.5,0.7c-0.3-1,0-2.3,0.4-2.2c-0.2-0.3-0.1-0.6,0-0.4c-0.6-1.1-1.3-2.2-1.9-0.2
		c-0.3-0.5,0.2-1-0.1-1.5c-0.1,1.1-0.9-0.1-1.4,0c-0.1,0.3,0,0.6-0.1,0.9c-0.1-0.3,0-0.6-0.2-0.9c-0.2,0.1-0.1,0.3-0.2,0.7
		c-0.1-0.2,0-0.5-0.1-0.7c-0.4-0.8-0.6-0.1-0.5,0.7c-0.1-0.2-0.2-0.3-0.2-0.2c-0.1-0.2,0-0.5,0.1-0.7c-0.7,0-1.8-1.4-2.1,0
		c-0.7-1-0.4,0.3-0.9-0.4c-0.2,1.5-0.5,1.2-0.8,2.1c0.2,0.5,0.4,0.3,0.5,0.6c-0.1,0.7-0.5-0.3-0.6,0.2c-0.1-0.2,0-0.5,0.1-0.7
		c-0.5-0.1-1-0.8-1.4-0.9c-0.1-0.3,0-0.5,0.1-0.7c-0.2-0.1-0.5-0.3-0.6,0.2c0,2-1.7-0.8-2.2,0.6c0.8,0.3,1.7,0.4,2.5,0.9
		c-0.2,0.5-0.6,0.1-0.8,0c0,0.9,0.4,0.2,0.5,0.6l-0.3,1.1c-0.2-0.3-0.1-0.6-0.3-0.9c-0.5,0.5-0.3,2.2-1.1,1.5
		c-0.1-0.7,0.4-0.8,0.5-1.3c-0.1-0.4-0.3-0.9-0.2-1.3c-0.1,0.3-0.2,2.6-0.9,1.7c-0.1-0.4-0.1-0.7,0-1.1c-0.4-0.6-0.4,1.6-0.9,1.1
		c-0.3-0.5,0.1-1-0.3-1.5c-0.1,0.1,0,0.2,0,0.4c0.1,0.5-0.4,0.1-0.2,1.1c-0.1-0.2-0.6-0.4-0.4,0.6c-0.2-0.1-0.3,0.3-0.5-0.2
		c-0.1-0.7,0.3-1.4,0.1-2.1c-0.1,0.2-0.4,0.5-0.5,1c-0.2-0.4-0.1-0.7-0.4-1.1c-0.4,0.3-0.8,0-1.3,0c-0.2-0.4,0.2-0.2,0.2-0.9
		c-0.6-0.5-0.4,2-1.1,0.6c-0.1,0.2-0.1,1.2-0.3,0.8c-0.1,0.5,0.2,0.1,0.4,0.7l-0.1,0.6c-0.5-0.7-0.8,0.1-1.4-0.7
		c-0.1-1,0.4-1.1,0.7-0.2c0.1-0.5,0.3-0.8,0.5-0.8c-0.2,0.1-0.9-1.3-1.1,0c-0.4-0.5-0.1-1.1-0.4-1.7c-0.1,1.3-0.9,1.3-1.6,1.4
		c-0.3-0.7,0.2-0.2,0.2-0.8c-0.3,0-0.2-0.6-0.6-1.1c-0.3,0.6-0.7,0.1-1,0.8c-0.7-1.1-0.5,0.3-1.1,1.5c0.3-0.1,0.5-0.6,0.9-0.2
		c0.1-0.3,0-0.5-0.1-0.7c0.2-0.3,0.3-0.3,0.6,0c0.2,0.3-0.2,0.5-0.2,0.4c0.2,0.6,1.1,2.3,1.3,1.1c0.4,1.1,1.1,1,1.5,0.5
		c0.2,0.5,0.2,1,0.4,0.2c0.9,1.2,1.6,1.4,2.3,0.9c0.2,1.3,0.8,0.2,0.7,1.5c0.1-0.4,0.3-0.3,0.6-0.6c-0.2-0.3-0.3-0.2-0.4-0.5
		c0.1-0.2,0.3-0.2,0.4-0.4c0.1,0.3,0.1,0.6,0,0.9c0.3,0.6,0.4,0.1,0.6,0.7c0.1-0.3,0-0.5,0.1-0.7c0.2,0.5,0.4,1,0.5,0.2
		c0.1,0.3,0.3,0.8,0.4,0.5c0.2,0.4-0.3,0.8,0.1,1.1c0.1-1.5,1.4-0.8,1.8,0.1c0.3,0.4,0-0.6,0.2-0.8c0.1-0.1,0.1,0,0.2-0.2
		c0.3,0.4,0.2,0.9,0.5,1.3c0.3-1.2,1.3-0.2,2,0.2c0.1-0.7,0.3-0.5,0.4-0.9c-0.4-0.8-0.2,0.7-0.6,0.2c0.1-0.6,0.1-0.4-0.2-1.3
		c0.3-1.2,0.8-0.6,1,0.4c-0.1,0.7-0.5-0.9-0.6,0c0.3,0,0.6,1.1,0.4,1.7c0.4,0,0.9,0.5,1.4,0.6c0,1,0,0.6,0.4,1.1
		c-0.2,0.2-0.5,0-0.8-0.7c-0.1,0.4,0.3,0.7,0.1,1.1c0.2-0.3,0.5,0.3,0.8,0.2c0.1-0.5-0.2-1-0.4-1.5c0.4-0.3,0.8,0.3,1.1-0.6
		c0-0.5-0.2-1-0.1-1.5c0.4-0.3,0.1,1,0.5,1.3c0.1,0.4-0.1,0.2-0.1,0.6c0.5,1.3,1.4,0.4,2,1.9c0.4-1.2,1.1-0.4,1.6-0.4
		c0.3,1-0.3,0.8-0.2,1.9c0.5,0.7,0.4-1.3,0.7,0.6c0.1-0.6,0-1.2-0.2-1.9c0.4-0.5,0.9-0.3,1.5,0.2c0-1.4,0.5-0.9,0.9-0.8
		c0.1,0.3,0,0.5-0.1,0.7c-0.1,0.2-0.3-0.3-0.4-0.6c-0.1,0.2-0.1,0.4,0,0.6l-0.1,0.4c0.3,0.5,0.4-0.6,0.8,0.6c-0.1,0.5-0.3,0-0.5,0.2
		c0,1,0.4,0.5,0.6,0.7c-0.3,1.6,0.5,0.3,1,0.9c-0.1-0.6-0.1-1.7,0.2-1.7c-0.1,1,0.3,1,0.4,2.1c0-0.2,0.1-0.3,0.2-0.2
		c-0.2-1,0.2-0.9,0.2-1.9c0.2,0.1,0.9,1.2,1.2,0.2c0.3,0.5,0.1,1,0.1,1.5c0.4,0.5,0.8,0.6,1,1.1l0.2-0.7l-0.3-0.8
		c-0.2,1-0.5-0.2-0.8-0.2c0.3-0.8,0.7,0.4,0.9-0.3c0.2,2.3,0.8,1,1.5,2.1c-0.2-0.3-0.4,0.3-0.6-0.2c0.1,0.9,0.6,0.6,0.8,0.6
		c0-0.5,0-1,0-1.5c0.3-0.3,0.3,1,0.4,1.3c0.1-0.4,0.2-0.2,0.3,0c-0.1-1.2,0.2-1.2,0.7,0c-0.3-1.2,0.1-0.4,0.3-1.5
		c0.5,1-0.4,0.9,0.1,1.9c0-1.4,0.3-1,0.4-1.9c0.4,0.9-0.3,0.9-0.2,1.5c0.3,0,0.4,0,0.5-0.9c0.4,0.8-0.2,0.4-0.1,1.1
		c0.7,1.3,0.8-0.2,1.3-0.7c0.2,0.4,0.1,0.9,0.4,1.3c0.2-0.9,0.6,0,0.8-0.5c0.1,0.5,0,1,0.1,1.5c-0.1,0.4-0.2,0.1-0.2,0.4
		c-0.3-0.4,0-0.7-0.1-1.1c-0.4,0.2-0.5,0.8-1,0.5c0.3,0.3,0.7,1,0.9,0.6c0.3,0.5-0.4,0.1-0.1,0.7c-0.3-0.4-0.6-0.2-1-0.4
		c0,0.2,0.1,0.5,0.1,0.7c-0.2,0.4-0.1-0.7-0.4-0.9c-0.1,0.3-0.2,0.3-0.3,0.2c0.2,2.3-0.7-0.5-0.9,0.9c-0.3-0.5,0-1.1-0.3-1.1
		c-0.1,0.7,0.2,1.5,0,2.2c0.2,0.6,0.3-0.1,0.6,0.4c0.1-0.2-0.1-0.5-0.2-0.7c0.2-0.6,0.4-0.1,0.7,0c0.1,0.7-0.2,0.3-0.2,1.1
		c-0.3,0.1-0.5-0.2-0.8,0.3c-0.3-0.5,0-1.1-0.4-1.1c-0.2,2.7-1.8,0.7-2.7,0.8c-0.1-0.5,0.2-1,0-1.5c0.7,0.3,1.4,0.7,2.1,0.8
		c-0.3-0.6-0.5-0.5-0.3-1.3c-0.2,0.1-0.4,0.3-0.6,0.3c-0.1-0.5,0.1-1-0.3-1.5c-0.1,1.1-0.2,0.7-0.6,0.5c-0.3-0.4,0-0.9-0.3-1.3
		c-0.5-0.3-1,0.4-1.3,1.1c0-0.3-0.2-0.6-0.1-0.9c0.1-0.5,0.1,1,0.3,0c-0.5-0.7-0.8-0.1-1.3-0.8l-0.4,1.3c-0.2-0.5-0.2-1-0.5-1.5
		c-0.2,1.3,0.3,1.2,0.4,1.9c-0.2,0.7-0.6-1.3-0.8-0.2c-0.4-0.7,0.1-1.5-0.3-2.2c0,0.2,0.1,0.4,0.1,0.6c-0.5,0.7-1,0.1-1.6-0.2
		c-0.2,0.8,0.3,1.6,0.5,1.5c-0.2,0.4-0.3,2.1-0.6,1.3c-0.2-0.7,0.3-0.2,0.1-0.9c-0.2-0.8-0.2,0.5-0.4-0.4c-0.1,0.7,0.1,1-0.2,1.3
		c-0.2-0.4-0.2-0.7-0.1-1.1c-0.4-0.8-0.2,1.5-0.6,0.7c-0.2-0.6,0.3-1.1-0.1-1.7c-0.2,0.4-0.1,0.9-0.2,1.3c-0.1,0.1-0.2,0.2-0.3,0
		c-0.1-0.6,0.3-0.6,0.1-1.5c-0.3,0.1-0.3-0.5-0.7-1.3c-0.7-0.7-1.3,0.3-1.7,0.4c0.2-1.3-1.2-0.8-1.7-1.3c-0.1-1,0.7,0.1,0.8-0.9
		c-0.6-0.9-0.9,1-1.5-0.2c0,0.2,0.1,0.5,0.2,0.7c-0.1,0.9-0.4,0.1-0.5,0.7c-0.7-1.8-1.2-0.1-1.7-1.5c-0.5,0.9-1-0.2-1.4,1.1
		c0.3,0.1,0.1,0.3,0.4,0.7c-0.6,1.2-1.1-0.9-1.3-2.4c-0.1,0.7,0.1,1.5,0.1,2.2c-0.3-0.2-0.6-0.1-1-0.5c-0.2-0.5,0.3-0.4,0.4-0.9
		c0.1,0.4-1.1-0.6-1.3-0.3c-0.2-0.2-0.3-1.2-0.1-0.7c-0.1-0.9-0.3,0-0.4,0c0,0.3,0.1,0.5,0.2,0.7c-0.6,0.1-1.7-2.1-2.3-1.1l-0.5-0.9
		c-0.1,0.4-0.3-0.3-0.4,0.4c-0.8-2-1.2,0-2-1.8c-0.5,1-1.2,0.3-2-0.9c0.3-0.6,0.3-1,0.5-1.5c-0.7,0.1-1.2,1.4-1.7,0.2
		c0.2,1.6-0.2,2.3,0.3,4.1c-0.4-0.2-0.8-0.7-1.2-0.9c0.3,1.6,1.3,0.6,1.6,2.6c-0.1,0.4-0.4-0.6-0.5-0.7c0.1,1.2-0.6,0.1-0.7,1.1
		c0-0.6-0.1-1.2-0.5-1.8c0.1,0.9,0,1.1-0.3,1.7c-0.3-0.7-0.8-1.6-0.7-0.5c-0.3-0.5-0.3-1.1-0.6-1.1c-0.2-0.7,0-0.5,0.1-0.9
		c-0.3-0.1-0.7-0.3-0.9,0.2c-0.3-0.6,0.1-1.2-0.3-1.9c-0.1,0.3,0,1.8-0.4,1c0,0.4-0.1,0.9,0.3,1.3c-0.3,0.4-0.3,0.3-0.3,1.3
		c0,0.6-0.4-1-0.5-0.3c-0.2,0.7,0.3,0.7,0.4,1.1c-0.2,0.2-0.4-0.4-0.6,0c-0.2-0.5,0.1-1-0.2-1.5c0,0.8-0.4,0.4-0.4-0.2
		c-0.2,1.5-1,0.8-1.8-0.5c0,0.4-0.1,0.9,0,1.3c0.4,0.4,0.2,0.4,0.6,1.1c0.1-0.3-0.1-0.6-0.2-0.9c0.5-0.3,1.3,0.8,1.9,1.2
		c-0.4,0.7-1.1-0.8-1.5-0.1c0.3,0.2,0.6,0.4,0.9,0.9c-0.2,0.5-0.6-0.5-0.7,0.8c-0.2-0.5,0-1-0.4-1.5c-0.1,0.4-0.2,0.2-0.3,0.6
		c-0.2-0.3-0.1-0.6-0.1-0.9c-0.2-0.4-0.2,0.3-0.5-0.3c0.1,1.1-0.5,0.5-0.3,1.5c-0.5-0.6-0.2-1.2-0.6-1.8c-0.2,0.6-0.9-0.1-1.1-0.7
		c-0.3,0.7-0.5-0.5-0.8,0c-0.3-0.7,0.2-0.2,0.2-0.8c-0.5-0.8-0.8,0.1-1.3-0.5c-0.1,0.6-0.1,0.8,0.1,1.7c-0.3-0.2-0.7,0.2-0.5,1.2
		c-0.4-0.3,0.1-0.8-0.3-1.1c-0.3-0.2-0.3,0.5-0.7-0.1c-0.2,0.5,0.1,0.9-0.2,1c-0.3-0.6,0.1-1.3,0-1.9c0.1-0.6,0.5,1.2,0.5,0.1
		c-0.2-0.9-0.7-0.7-0.9-0.1c-0.3-0.3-0.2-0.7-0.5-1.1c-0.3,0.7-0.9,1.5-1.1,0.7c-0.2-0.2-0.1,0.3,0,0.6c-0.2,0.2-0.5,0.4-0.9-0.5
		c0,0.7-0.3,0.3-0.3,1c0.2-0.6,0.8,1.2,1,0.1c0.4,0.9,0.1,1.3,0.7,1.8c-0.2,1.3-0.5,0-0.7-0.1c-0.1,0.9,0.4,0.6,0.5,1.4
		c0-0.6,0.2-0.6,0.4,0c0.1-0.7,0.3-0.3,0.2-1c-0.3-0.4-0.4,0.1-0.5-0.9c0.1-0.3,0.5,0.7,0.5,0.1c0.2,0.7,0,1,0.4,1.3
		c-0.4-1.3,0.3,0,0.6,0c0.1,0.2,0.2,1.3-0.1,0.9c0.2,0,0.8,1.1,1.1,0.7c0.5,1.6,0.8,0.5,1.2,2c0.3-0.4,0.1-1.2,0.5-1.2
		c0.1,0.3,0,0.6-0.1,0.9c0.5,1.1,0.7,0.4,1,0.9c0-0.5-0.1-0.7-0.3-0.7c0-0.9,0.5,0,0.3-0.9c0.1,0.2,0.3,1.2,0.4,0.7
		c0.3,0.7,0.1,0.5-0.1,0.9c0.5,0.6,0.7-0.3,1.3,1c-0.2-2,0.6,0.9,0.7-0.8c0.1,1.2,0.4,0.4,0.5,1.3c-0.2,0.2-0.4,0.4-0.8-0.5
		c0,1.6-0.8,0.3-1.4-0.5c0.1,0.6,0.1,1.1-0.1,1.7c0.4-1.8,2.4,2.5,2.5-0.9c0.5,0.2,0.9-0.1,1.4,0.5c0-0.5-0.1-0.7-0.2-0.7l0.2-1.1
		c0.1-0.1,0.3,0,0.5,0.3c-0.1,0.6-0.4,0-0.5,1c0.3,0.5,0.5,0.4,0.7,0.9l0.2-0.8c0.1,0,0.2,0,0.4,0.2c0.2,0.4,0.1,0.9,0,1.3
		c0.6,0.3,0-1.8,0.7-1.2c0-0.3,0-0.6-0.2-0.9c0.1-0.3,0.2-0.5,0.4-0.4c0,1.6,1.1,2,1.5,2.7c-0.3,0.5-1.5-0.6-1.3,0.8
		c-0.4,0-0.9-0.6-1.3-0.3c0.1,1.1,0.5,0.3,0.8,0.7c-0.2,0.5-0.3,0.1-0.4,1.1c-0.4-1.6-0.4-0.2-0.8-1.8c-0.2,0.7,0,1.4,0.2,2
		c-0.2,0.3-0.4-0.8-0.6-1.1c-0.1,0.4-0.3,0.2-0.3,0.9c-0.3-0.4-0.2-0.7-0.4-1.1c-0.2,0.9-0.2,0.1-0.5-0.2c-0.2,0.6-0.6,0.1-0.8,0.8
		c-0.3-0.4-0.1-0.9-0.3-1.3c0.3-0.3,1,0.5,0.7-1c-0.2-0.1-0.3,0.6-0.4,0.8c-0.1-0.2-0.1-0.5-0.2-0.7c-0.2,0.8-0.2,0.9-0.6,0.2
		c-0.3,0.7,0.3,1.3,0,2.1c0,0.1-0.1,0-0.2,0.2c-0.3-0.5-0.2-1-0.2-1.5c-0.3-0.9-0.4,0-0.7-0.7c-0.1,0.3,0,0.5,0.1,0.7
		c-0.3,0.5-1-1.2-1.2,0.4c-0.9-0.6-1.3,0.3-2.1-1c-0.1,0.9-0.4,0.3-0.6,0.4c0.1,0.9,0.2,1.1,0.1,1.7c0.5,0.8,0.4,0.5,0.8,1.4
		c0-0.9-0.1-0.7,0-1.5c0.3-0.3,0.7,0.4,0.8-0.6c0.3,0.7-0.1,1.4,0,2.1c0.2,0.5,0.6-0.2,0.8,0.9c0.5,0.3,0.7-1.1,1.4,0.3
		c-0.2,0.6-0.5,0.3-0.7,0.8c0.2,0.1,0.4-0.1,0.7,0.7c-0.1-0.8,0-0.8,0.3,0c0.3-1.3,1.1,0.6,1.6,0.1c0.3,0.4,0.1,0.7,0,1.1
		c0.3,0.7,0.4,0,0.6,0.3c-0.2-0.7-0.3-1.3-0.8-2c-0.1-0.3-0.1-0.6-0.1-0.9c0.1-0.1,0.3,0.1,0.5,0.2c0.1,0.4,0,0.7,0.3,1.1
		c0.1-0.3,0-0.6,0.1-0.9c0.1-0.2,0.2,0.2,0.3,0c0.3,0.8-0.1,0.4,0,1.1c-0.1,0.5-0.5-0.6-0.6,0.2c2.2,0.7,4.3,0.5,6.5,1.7
		c-0.1-1.5,0.7-0.8,1,0.3c0-0.8-0.3-1.6-0.3-2.4c0.3-0.4,0.5,1.1,0.8,0.5c0.1,0.2,0,0.5,0,0.7c0.4,0.2,0.6-0.7,1-0.2
		c-0.1,2,0.9,1.1,1.7,2.6c0.2-0.4-0.1-0.7-0.3-1.1c0.5,0.1,0.3,0.3,0.9,0.7c0-0.3-0.3-0.6-0.2-0.9c0.1-0.1,0.3,0,0.4,0.4
		c0-0.4,0-0.7,0.1-1.1c0.2-0.6,0.3,1,0.5,0c0.1,0.4,0.1,0.7,0,1.1c0.9,0.5,0.8,1.1,1.7,0.5c0.1,0.3,0.1,0.6,0,0.9
		c0.5-1.1,1.2-0.1,1.8-0.8c0.1,0.2,0.1,0.5,0.1,0.7c0.2,0,0.4-0.6,0.6-1.3c0.3,0.4,0.3,0.7,0.1,1.1c0.7-0.5,1.8,1.6,2.3-0.4
		c0.3,0.4,0,0.9,0.3,1.3c-0.1,0.4-0.3-0.3-0.4,0.4c0.6-0.3,1.2-1.4,2.1-0.5c0-0.8-0.6-0.6-0.3-1.5c0.4,0.8,0.8,1.4,1,1.1
		c0.1-1.2-0.3-0.1-0.5-0.6c0.2-0.8,0.4-0.3,0.7-0.6c0.1,0.6,0.1,1.2,0.1,1.9c0.6-0.3,1-1.7,1.8-0.9c0.1,0.3,0,0.5,0.1,0.7
		c0.1,0.4,0.2,0.2,0.4,0.6c0.2-0.7,0-0.7,0.3-1.1c0.1,0.4,0.2,0.7,0.4,1.1c0.3-0.4,0.6-0.2,1-0.2c0.2,0.5-0.1,0.7-0.2,0.4
		c0.4,1.1,0.8-0.2,0.9-1.3c0.4,0.5,0.1,1,0,1.5c0.5,0,0.8-1.5,1.3-0.9c0.2,0.3-0.1,1.1-0.2,0.4c0.2,0.8,0.4,1.1,0.8,1.1
		c-0.1,0.1-0.4,0.2-0.1,0.7c-0.1,0.2-0.3-0.4-0.4,0.4c0.3,0.7,0.4,0,0.7,0.4c-0.1-0.5,0-1.4,0.2-0.9c0-0.4-0.1-0.2-0.2-0.6
		c0.2-0.3,0.5-0.4,0.6-1.5c0.4,0.5-0.1,1,0.3,1.5c0.1-0.6,0.5-0.6,0.4-1.5c0.6,0.2,1.3,0.7,1.6,0.4c0-0.4-0.1-0.9,0.1-1.3
		c0.3,1.1,0,1.6,0.6,1.9c-0.1,0.7-0.3,0.2-0.5,0.4c0.1,1,0.6-0.1,0.9,0.2c0-0.3-0.1-0.6,0-0.9c0.2,0.4,0.4,0.1,0.6,1.1
		c0.2-0.4,0-0.9,0.2-1.3c0.2-0.1,0.5,1.7,0.7,0.2c0.2,0.4,0.1,0.7,0.4,1.1c-0.1,0.5-0.3,0.3-0.4,0.2c1.1,1.9,2.5,0.1,3.8,0.7
		c0.1,0.5,0,1-0.1,1.5c0.3,0.2,0.4-0.4,0.7,0.2c0.1-0.4,0-0.9,0-1.3c0.6,0,1.8,1.8,2.2-0.7c0.3,0.8-0.2,0.7-0.1,1.3
		c0.4,0.1,0.5,0,0.9,0.2c0-0.3-0.1-0.6,0-0.9c0.4-0.3,1.3,1.8,1.4,0.2c0.2,0.4,0.1,0.9,0.4,1.3c0.2-0.2,0.3-1.1,0.6-0.2
		c0.2-2,1.1,0.5,1.6-0.9c0,0.4,0.3,0.8,0.2,1.1c0.3-0.4,0.6-1.1,1,0.3c0.1-0.5,0.2-0.7,0.3-0.7c0,0.2,0.1,0.5,0.2,0.8
		c0-0.6,0.4-0.6,0.3,0c0.2-0.5,0.5-0.4,0.9,0.1c-0.1-0.8,0-0.9,0.3-0.9c0.1,0.3,0,0.5-0.1,0.7c0.3,0.3,0.6-0.1,1,0.3
		c-0.2,0.9-0.3-0.2-0.4,0.9c0.2,0.2,0.4,0.5,0.6,0.2c0.1,0.3-0.1,0.6-0.1,0.9c-0.2,0-0.5-1.3-0.7-0.2c0.3-0.2,0.2,1.3,0.5,1
		c0.1,0.8-0.1,0.9-0.3,1.1c-0.1-0.4,0-0.9,0-1.3c-0.3-0.5-0.3,0.4-0.4,0.9c-0.2,0-0.4,0.3-0.7-0.4c0.5,0.2,0.3-1.2,0.7-0.9
		c0.1-0.7-0.4-0.4-0.1-1.1c0.2-0.6,0,1.2,0.2,0.6c0.3-0.8,0-0.4-0.2-1.1c0.1-0.1,0.2-0.2,0.3,0c-0.3-0.7-1.1,0.3-1.6-0.3
		c0.2,1.1-0.2,0.2-0.2,1.1c0.3,0,0.6-0.1,0.9-0.7c0.3,2.5-0.8,1.7-1.1,2.3c-0.5-1-0.1-1.9-0.5-2.8c0.1,1.2-0.4-0.4-0.6,0.7
		c0.2-0.2,0.8,0.3,0.7,1.3c-0.4-1.3-0.3,0.6-0.8-0.2c-0.3-0.6,0-1.1-0.3-1.7l-0.3,0.9c0.1,0.3,0.2,0.5,0.2,0.7
		c-0.5,0.9-1.2,0.5-1.7,1.1c0.3,0.9,0.4,0.2,0.6,0.6c-0.3,0.6-0.9,1.1-1.2-0.4c0.2,0.1,0.3,0,0.5-0.7c0-0.7-0.3-0.2-0.3-0.9
		c-0.4,0.2-0.6,1.7-1,0c-0.1,0.8-0.3,0.3-0.4,0.2c0,0.3-0.1,0.6,0,0.9c-0.5-0.7-1.2,0.7-1.6-0.8c-0.3,0.1-0.5,0.4-0.8,0.5
		c0-0.3,0-0.6,0-0.9c-0.3-0.4-0.1,0.7-0.3,0.9c-0.3-0.6-0.2-1.2-0.1-1.9c-0.3-0.3-0.7,0.1-0.9-1.1c0,0.7,0.3,1.5,0,2.2
		c0.4,0.6,0-1.6,0.6-0.7c0.1,0.7,0.1,1.2-0.1,1.5c-0.5,0.3-1.1-1.5-1.6-1c-0.3-1,0.2-0.6,0.3-1.1c-0.3-0.5-0.4,0.1-0.6,0.3
		c0,0.2,0.1,0.5,0.2,0.8c-0.2,0.2-0.3-0.4-0.2,0.4c-0.4-0.8-0.6,1.2-1.1-0.6c0,0.8-0.5,1-0.6,0c-0.1,1.6-0.7,1.5-1.2,0.9
		c-0.1,0.2,0,0.5-0.1,0.7c-0.4-0.6-0.7-0.1-0.8-1.3l-0.3,1.3c-0.5-0.6,0-1.2-0.3-1.9c-0.2,0.8-0.5,0.6-0.8,0.2
		c0,0.6-0.2,1.2-0.2,1.9c-0.2-0.7,0.2-1.5-0.2-2.2c0.2,1.8-0.7,1.7-1.1,0.9c-0.3,0.4-0.1,1.5-0.5,1.1c-0.1-0.7,0.1-1.4-0.2-1.1
		c-0.1-0.6,0-1.1,0.2-1.7c-0.1-0.2-0.1-0.1-0.1,0l-0.2-0.4c-0.2,0.5,0,1-0.1,1.5c-0.3,0.5-0.4-0.9-0.8-1.5c-0.2,0.7-0.5-0.3-0.7,0.2
		c0.4,1.1,0.6,0.8,0.8,0.4c0,0.4,0.2,0.9,0.4,1.3c-0.3-0.2-0.2,0.6-0.6-0.2c-0.3,0.4,0.2,0.8,0,1.1c-0.4-0.9-1-0.7-1.4-0.9
		c0,0.5,0.4,0.6,0.6,0.4c0.2,1.5-0.4,1.3-0.7,0.9c-0.3-0.9,0.4-0.1,0.2-0.7c-0.4-1-0.2,0.7-0.6,0.2c0.2-1.8-1,0.3-1.6-1.5
		c-0.1,0.8-0.5,1.2-0.8,2c-0.1-1.6-1-0.2-1.1,0.4c-0.1-0.2-0.2-0.5-0.2-0.7c0,0.6-0.4-0.1-0.6,0.7c-0.4-1.4-0.4,0-0.9,0.4
		c-0.1-0.4,0-0.9-0.3-1.3c-0.7,1-1.2,0.1-2,0.8c-0.2-0.5,0-0.9-0.3-0.9c0.2,1.5-0.4,0.6-0.7-0.4c0.3,1.1,0,1.9-0.5,1.5
		c-0.2-0.9,0.4,0,0.2-0.9c-0.1-0.4-0.2-0.2-0.4-0.6c0,0.5,0.2,0.9-0.1,0.9c-0.1-0.3,0.1-0.6,0-0.9c-0.5-0.5-0.5,0.1-0.4,0.8
		c-0.3,0.3-0.1-1.2-0.4-0.9c0.2,0.9-0.1,1.2-0.3,1.5c-0.3-1.1-0.2,0-0.6-0.9c0.1,0.8-0.2,0.7-0.5,0.4c-0.1-0.4,0.1-0.2-0.1-0.9
		c0.1,1.2-1.1-0.1-0.8,1.7c-0.3-0.5-0.3,1.1-0.6,0.6c-0.3-0.8,0.1-0.6,0.2-1.5c-0.3-0.3-0.5,0.1-0.7-0.2c0.2,2.3-0.8,1.3-1,1.7
		c-0.1-0.7,0.2-1,0.3-1.3c0.2,0.2,0.1,0.5,0.1,0.7c0.3,0.4,0.1-0.6,0.4-0.8c-0.5-0.2-0.5,0-1.1-1.5c-0.2,0.4,0.1,0.9,0.1,1.3
		c-0.6-1.3-1.9,0.1-2.5-0.3c-0.1,0.1-0.4,0.8-0.1,1.3c-0.2,0.8-0.8-0.7-0.5,0.8c-0.3-0.5-0.1-1-0.2-1.5c0.1-0.2,0.3,0.3,0.4,0.5
		c0.1-0.7-0.3-1.2,0.1-1.5c-0.3,0-0.3,0.5-0.6,1.1c-0.1-0.2-0.1-0.5-0.2-0.7c-0.1,0.6,0.2,0.5,0.3,1.3c-0.1,0.4-0.4-0.3-0.5,0.6
		c1.1,0.9,2.1,0.9,3.1,1c0.3,0.4-0.1,0.7,0.3,1.1c0.2,0,0.1-0.4,0.2-0.9c0.4,0.7,0,1.5-0.1,2.2c-0.6,0-1.4-1.7-1.9-0.5
		c-0.2,0-0.5-0.7-0.7-0.5c0.3,0.8,0.2,0.7-0.2,0.4c-0.2,0.4,0.1,0.7,0,1.1c-0.7-1.4-0.6-0.3-1.1-0.3c-0.2-0.4-0.1-0.7-0.4-1.1
		c0.1,0.8,0,1.4-0.3,0.9c-0.2-0.4,0.2-0.8-0.2-1.1c0,0.4-0.1,0.2-0.3,0c0,0.3,0,0.6-0.1,0.9c-0.6-0.4-0.9-0.5-1.5-1.4
		c0.1,1.6-0.5-0.4-0.6,0.6c-0.2-0.7,0.2-0.2,0.2-0.9c-0.2,0.1-0.4,0.2-0.7-0.2c-0.1,0.2-0.1,1.2-0.3,0.8c0.2,1,0.1,0.9-0.1,1.7
		c0.5-0.2,0.9,0.9,1.1,0.1c0.4,0.8-0.1,0.7,0.3,1.3c0.2-0.6,0.1-1.1-0.1-1.7c0.1-0.3,0.3-0.1,0.4-0.6c0.2,1.2,0.5,0.6,0.7,0.3
		c0.3,0.8-0.2,0.7-0.1,1.7c0.3,0.1,0.2-0.2,0.3-0.8c0.1,0.3,0.4,1,0.8,1.1c-0.1-0.5,0.1-1,0.2-1.5c0.2,0.6,0.2,1.2,0.5,1.8
		c0.1-0.6,0.3,0,0.5,0c0,0.4,0.2,0.9,0.3,1.3c0.6-0.4,1.4-0.1,2.1,0.3c0.2-1.2,0.8,0.4,1.1-0.4c0.9,1.9,1.5-1.2,2.3,1.2
		c0-0.7,0.2-0.2,0.3-0.7c0.3,0.7,0.4,0.7,0.7,1.1c-0.2,0.5-0.5-0.3-0.4,0.9c0-1-0.2-0.5-0.5-0.7c0,0.8,0.2,0.6,0.4,0.7
		c-0.2,0.9-0.5,0.4-0.8,0.4c-0.2-0.4,0.2-0.6,0.3-0.4c-0.2-1-0.8,0.1-1.1-0.2c0.2,0.7,0.3-0.2,0.5,0.5c-0.6-0.2-0.7,0.7-1.2,1
		c-0.2-0.4,0.3-0.9-0.1-1.3l-0.2,0.8c-0.7-0.7-1.2-0.1-1.5,0.6c0.2-1.1-0.3-0.7-0.7-0.9c0,0.5-0.1,0.9,0.2,0.9
		c-0.2,1.4-0.6-0.7-0.8,0.4c-0.3-0.5-0.3-1.1-0.3-1.7c-0.2-0.3-0.3,1-0.2,1.3c-0.2,0.5-0.9-1.2-0.8,0.2c-0.1,0-0.6-0.5-0.6-0.9
		c-0.1,0.9-0.8,1.1-1.5,0.4c0.3-0.4,0.3-0.3,0.4-1.3c-0.3-0.4-0.5-0.7-0.8-1.1c-0.1,0.2,0.4,1.3,0.1,0.9c0,1,0.3,0,0.4,0
		c0.2,1.2-0.4,2.1-0.9,0.8c-0.4-0.1-0.5,2.4-1.1,1.2l-0.1,0.7c-0.3-0.4-0.1-0.7-0.2-1.1c-0.3-0.3-0.3,1.2-0.7,0.4
		c-0.2-0.7,0.2-0.5,0.2-0.9c-0.6,0.5-1.2,1.3-1.9-0.1c-0.2,0.1-0.4-0.1-0.5,0.8c0.2,0.3,0.3,0.6,0.2,0.9c-0.4-0.9-0.9,0.4-1.5-0.6
		c0-0.4,0.1-0.7,0.2-0.7c-0.3-0.4-0.8-0.5-1.1-0.5c-0.1,0.9,0.2,0,0.5,0.9c-0.1,0.6-0.4,0.1-0.5,0.8c0.1,0.3,0.2,0.6,0.1,0.9
		c0.3,0.5,0.2,0.1,0.4,0.7c-0.1,0.1-0.1,0.1-0.2,0.4c-0.6-1.4-0.6-1-1.1-1.6c0-0.9,0.5,0.5,0.6-0.4c-0.3-0.7-0.3-0.2-0.6-0.9
		c0.3,0.7-0.2,1.4-0.5,1.3c-0.1-0.2,0-0.5,0-0.7c-0.3-0.9-0.3,0-0.6-0.7c0,0.4,0.3,0.7,0.3,1.1c-0.3,0.7-0.9-0.2-1.3,0.3
		c0.2,1,0.3-0.2,0.6,0.3c0.1,0.2,0.1,0.4,0.2,0.5c-0.4-0.3-0.3,0.4-0.6,0.8c0.2,1,0.5,0.7,0.4-0.2c0.4,0.5-0.1,1.1,0.3,1.1
		c-0.1,0.6-0.5,0.8,0,1.7c0.2,0,0.2-0.5-0.1-0.9c0-0.2,0.2,0.2,0.3,0.3c0.2-0.5,0-0.9,0.1-1.3c0.4,0,0.8,0.3,1-0.5
		c0.8,1.8,1,0.1,1.5,0.6c0.2,1.5-0.6,0.6-0.4,1.9c0.6-0.6,1.2,0.6,1.7-0.9c0.3,0.8,0.6,1.5,0.7,0.3c0.3,0.8,0.4,1.7,0.2,2
		c0.2,0.5,0.2-0.1,0.3,0.2c-0.2-0.6,0.1-1.2-0.3-1.8c0.6,0.9,0.8-0.5,1.3-0.3c-0.4,0.8-0.7,1.6-0.8,1.7c0.4,1.3,0.8-0.6,1.1-1
		c0.2,1,0.6,0.7,0.8,0.5c0-0.3-0.2-0.5-0.1-0.7c0-0.1,0.1,0,0.2-0.2c0.1,0.3,0,0.6,0.2,0.9c0.5,0,0.9-0.8,1.4-1
		c0.1,0.2,0.1,0.4,0.1,0.5c-0.5,0.4-0.6,1.1-1,1.6c0.6,0.8,0.9,0,1.4,0.5c0-0.7-0.2-0.2-0.4-0.7c0-0.5,0.2-0.4,0.2-0.6
		c0.4,0.5,0.3,1.5,0.6,1.5c0.1-0.3,0-0.6,0-0.9c-0.1-0.2-0.1,0.1-0.2,0.2c-0.2-0.4-0.4-1.9-0.4-0.7c-0.5-1-0.2-1.4,0.1-1.3
		c-0.2,0.6,0.5,0.6,0.4,1.5c0.2,0.3,0.2-1,0.4-0.8c0.3,0.7-0.1,1.2-0.2,1.3c-0.1,0.5,0.3,1,0.2,1.5c0.3,0.5,0.4-0.4,0.7,0.2
		c0.1,0.8-0.2,0.6-0.1,1.5c0.4,1,0.4-0.4,0.8,0.5c0-0.7-0.3-0.3-0.5-1.1c0.2,0,0.3-0.1,0.6,0.2c-0.4-0.7-0.3-1.2-0.4-2
		c0-0.1,0.1,0,0.2-0.2c0.3,0.4,0,0.7,0.3,1.1c0.1-1.2,1.7-0.4,1.8,1c0.1-0.7,0.3-0.3,0.2-1.1c0.4,0.5,0.3,1.1,0.6,1.7
		c-0.3-0.2-0.5,0.6-0.9,0.2c0.3,0.8,1,0.9,1.4,0.5c0.2,0.4,0,0.7,0.3,1.1c0.2-0.6,0.4-1.2,0.9-0.2c-0.1-1,0.2-0.8-0.1-1.9
		c0.3,0.8,0.4-0.4,0.8,0.3c-0.4-1.3,0.4-0.6,0.3-1.5c0.5,0.5-0.1,1.1,0.3,1.7c0.1-0.8,0.3-0.8,0.5-0.6c0.1,0.4,0.1,0.9,0.1,1.3
		c-0.6,0.5-1.3-0.2-1.6,0.8c0.2,0.7,0.2-0.4,0.5,0.5c0.5-2.1,1.7,1.1,2.3-0.6c1,1.8,2.2-0.2,2.8,1.8c0.3,0.1,0.5,0.1,0.8,0.4
		c-0.1-1.4,0.5-0.4,0.8-0.8c0.1,0.3,0,0.6,0.2,0.9c-0.1-1,0.3-1,0.4-0.2c0.5-1.1,1.4,0.5,2-0.2c-0.3-0.5,0-0.9,0.1-1.1
		c0.2,0.4-0.1,0.9,0,1.3c0.7,0.9,1.1-0.3,1.7-0.4c0.1,1.4,0.8,1.5,0.9,0.5c0.2,0.7,0.3,0.2,0.4,0.7c0.1-2,1.7,0.9,2.2-0.9
		c0.8,2.1,1.4-1.3,2,0.8c-0.2-0.2-0.4,0.1-0.5,0.2c0.2,1,0.7-0.4,1.2,0c0.2,0.2,1,1.3,0.9,0.2c0.1-0.4,0.3,0.6,0.4,0.8
		c0.3-0.7,0.8-0.1,1.2-0.9c0.6,0.7,1.6,0.5,2.4,0.6c20.8,4.7,40.7,2.8,61.1,1.9c0.2,0.5,0,0.9-0.1,1.3c-1.5-1.4-3.1,0.9-4.6-0.3
		c-0.1,0.8-0.2,0.7-0.4,0.9c-0.1-0.4,0.1-0.2,0.2-0.5c-0.2-0.5-0.5,0.9-0.7-0.1c-0.2,0.5,0,1-0.1,1.5c-0.6-1.9-1.7-1.3-2.5-0.4
		c-0.7-0.3-1.3-0.9-2,0.1c-0.1-0.2-0.1-0.4-0.1-0.6c-1.1,1-2.6-0.4-3.2,1c-0.2-0.5,0-0.7-0.2-0.8c-0.1,0.2,0.1,0.5,0.1,0.8
		c-1.4-1.3-2.4,1-3.8-0.6c-0.1,1.2-0.8,0.1-1.1,0.1c-0.6,0-0.9,1.2-1.2,0.2c-0.5,0.8-0.9,0.8-1.4-0.2c-0.3,0.3,0.2,0.8-0.1,1.1
		c0,0.4-0.4-0.6-0.3-0.8c-0.3,1-0.6,0.1-0.9,0.6c-0.1-0.3-0.1-0.5,0-0.7c-0.4,1-0.8,0.3-1.2,0.8c-0.1-1.4,0-0.2-0.4-0.8
		c0,0.5-0.1,0.9-0.3,0.9c0-0.3-0.1-0.6-0.2-1c-0.2,1.4-0.9-0.5-1.4,1c-0.1-0.3-0.1-0.6-0.1-0.9c-0.7,0.4-2.3,0-2.5,0.8
		c-0.4,0.2-0.7-1.1-1.1,0.3c-0.4-0.9-1-1.4-1.1-0.5c-2.3-0.8-4.3,0.3-6.7-0.4c-0.1,0.2,0,0.5-0.1,0.7c-0.2-0.6-0.3-0.4-0.6-1
		c-1.2,1.2-3-1-4.4,0.8c-0.1-0.3-0.1-0.6-0.2-0.9c-0.6,0.2-1.1,0.7-1.7,0.2c0.1,0.5,0.3,2.2-0.2,2.6c-0.2-0.8-0.1-1.2-0.4-1.5
		c-0.1-0.6,0.2-1.3,0.4-0.5c0.2-0.9-0.5-1.3-0.4-0.4c-0.9-1.4-1.5,0.6-2.3-0.9c-0.1,1.3-0.6,0.9-1-0.2c-0.1,0.2,0,0.5,0,0.7
		c-0.7-0.6-1.4-0.2-2.1-0.8c0,0.3,0.1,0.6,0,0.9c-1-0.6-2.3,0.7-3.1-1.1c0,0.2,0.1,0.4,0.1,0.6c-1.1-0.4-2.1,0.3-3.3-0.9
		c-0.7,0.8-2,0-3-0.1c-0.2,0.4,0.1,0.9-0.1,1.3c-0.1,0.1-0.1,0.2-0.2,0c0-2.1-0.8-1-1.2-1.5c0,1,0.3,0.2,0.4,0.8
		c0.2,0.8-0.2,0.6-0.3,0.7c-0.6-2.4-1.3-0.9-2-1.9c-0.2,0.4,0.1,0.9-0.1,1.3c-0.1,0.2-0.2-0.2-0.2,0c-0.1-0.3,0-0.6,0.1-0.9
		c-0.2-0.5-0.4-0.5-0.5,0.2c0,0.4,0.3,0.7,0.1,1.1c0.2,0.4,0.2-0.3,0.4,0.4c-0.1,0.8-0.4-0.3-0.5,0.7c-0.3-1.1-0.5-0.6-0.7-0.8
		c-0.1-0.9,0.4,0.2,0.5-0.5c-0.5-1.2,0.1-0.5,0.2-0.9c-0.7-1.3-0.5,0.2-1.2-0.8c-0.1,0.4,0.2,0.7,0.2,1.1c0,0.2-0.1-0.1-0.2-0.2
		c0,0.5,0,0.7,0.2,0.7c-0.2,1-0.5,0.6-0.7,1.7c-0.2-0.4-0.3-0.4-0.4-1.1c-0.3,0-0.4,1.5-0.7,0.9c-0.2-0.4,0.1-0.7,0.1-1.1
		c-0.3-0.5-0.3,0.4-0.2,0.9c-0.1,0.6-0.4-0.8-0.6-0.2c-0.1-0.4,0.1-0.7-0.2-1.1c-0.1,1.4-1,1.8-1.2,0.3c-0.2,0.1-0.6-0.6-0.7,0.5
		c-0.5-1.5-0.8,0.3-1.1-1.1c0,2.2-1.2-1.2-1.6,0.6c-0.6-0.5-1,0.1-1.6-0.5c-0.2-0.5,0.3-0.1-0.1-0.7c-0.6,1.8-1.7-0.6-2.4,0.4
		c0.1,0.4,0.2,0.2,0.4,0.6c0.1,0.2,0,0.5,0.1,0.7c-0.4-0.2-0.9-1.1-1.2-1.1c0,0.5,0.1,0.4,0.3,0.6c0.2,0.7-0.3-0.1-0.3,0.7
		c-0.1-0.5-0.2-0.7-0.3-0.7c0,2.1-1.1-0.7-1.3,0.8c-0.3-0.5-0.4-1-0.2-1.5c-0.2-0.7-0.3,0-0.5-0.4c0,0.3,0.2,0.6,0.3,0.9
		c-0.1,0.8-0.2,0.6-0.4,0.7c-0.1-0.4-0.1-0.7,0-1.1c-0.3,0.7-0.8,0.1-1.2,0.2c-0.1-0.4,0-0.8-0.3-1.1c0,1.9-1.4,0.7-1.7,1.6
		c-0.3-0.9-0.7-0.6-0.5-1.5c-0.3-0.2-0.2,0.3-0.2,0.9c-0.2,0.1-0.6-1.8-0.8-0.9c0.2,0.6,0.2,0,0.4,0.4c0,0.2,0,0.4,0,0.6
		c-0.6,0-1.4-1.1-1.7,0.4c-0.1-1-0.2-0.9-0.5-1.8c-0.1,0.6,0.2,1.1,0.4,1.7c-0.1,1.5-0.8-0.9-0.9,0.4c-0.5-0.7-0.1-1.4-0.4-2
		c-0.1,0.7,0.1,1.4,0.1,2c-0.1,0.7-0.4-0.7-0.4-0.4c-0.1-0.3,0-0.6,0-0.9c-0.3-0.3-0.5,0.3-0.3,0.9c-0.6-1.2-0.4-0.1-1-1.4
		c-0.3,0.7-0.4,0.5-0.8,0c0,0.5,0.3,1,0.1,1.5l0.4,0.9c0.2,0,0-1,0.4,0c0.1-0.3,0-0.5-0.1-0.7c0.4,0,1.5-0.4,1.6,1.4
		c0.2,0.4,0.1-0.6,0.2-0.8c0.3,0.7,0.3,1.4,0.1,1.7c0.2,0.2,0.7,0.1,0.4-0.8c0.2-0.3,0.6,0.5,0.7-0.6c0.2,0.4-0.1,0.9,0,1.3
		c0.3,0.7,0.7-0.7,0.8,0.9c0.2,0.4,0.1-0.6,0-0.7c0.2-0.1,0.4,0,0.7,0.5c0-0.3-0.1-0.6-0.1-0.9c0.1-0.3,0.3,0.1,0.4-0.2
		c0.1,0.3,0.1,0.6,0.1,0.9c0.4-0.8,0.9-0.7,1.5-0.4c0.2,0.5-0.2,0.1-0.1,0.8c0.2,0.5,0.3-0.3,0.6,0.5c0.2-1.1,0.6,1.6,0.8,0.5
		c-0.1-0.2-0.3-0.2-0.4-0.4c0-1,0.3,0.2,0.4-0.8c0.2,0.3,0.1,0.6,0.1,0.9c0.1,0.1,0.2-0.2,0.3,0.2c-0.1-1.3,1.1-0.6,1.6-0.2
		c0.1,0.2,0.1,0.3,0,0.3c0.7-0.2,1.4-0.2,2.1,0.2c0.1,0.3,0,0.6-0.1,0.9c0.4,0.9,0.4-0.4,0.3-0.9c0.3-0.2,0.1,1.1,0.5,1.5
		c0.3-0.4-0.3-0.9-0.2-1.3c0.5,0.1,0.9-1.1,1.5,0.2c0-1.3,0.3-0.7,0.6-1.1c0.3,0.4,0.2,0.7,0.4,1.1c0.3-0.8,0.7-0.6,1.1-0.6
		c0.2,0.7-0.3,0.5-0.3,0.6c0.3,0.8,0.7,0.2,0.9-0.6c0.3,0.4,0.1,0.9,0.3,1.3c-0.1,0.6-0.4,0.1-0.3,0.9c0.8,0.1,1.2-0.5,1.7-1.5
		c0.4,0.5-0.1,1.1,0.2,1.7c0.6-0.1,1.2-0.3,2,0.8c0.2-1.2,0.5-0.2,0.7,0c0.1-0.4-0.2-0.7,0-1.1c0.6,1.2,1.5-0.8,1.7,1
		c0.7-0.2,1.9,0.9,2.3-0.1c0.5,1.1,0.7-0.1,1.3,1.3c0.2-1.1,0.5-0.1,0.6-1.3c0.3,0.4,0.1,0.7,0.3,1.1c1.4,0.1,2.7-0.4,4.2,0.9
		c0-0.5,0.1-0.9-0.1-0.9c1.2,0.7,2.4,1.3,3.5,0.5c0.2-0.5,0.6,0.9,0.9,0.8c0-0.2-0.1-0.5-0.1-0.7c0.4,0.4,0.9,0.9,1.3,0.1l0.4,1.1
		c1.1-1,2.4-0.2,3.6,0.4c0-0.2,0-0.4,0-0.6c2.1,0.9,4.2,0.2,6.3,0.8c0.3-1.2,1.7,0,2.6,0c0.5,0,0.8-0.7,1.2,0.3l0.2-0.7
		c0.3,1.4,0.7-0.5,1.2,0.8c0.9-1.3,2.4,0.4,3.6-0.6l0.3,0.8c1.5-1.2,3,0.5,4.5-0.8c0.7,1.2,1.3-0.6,2,0.6c0.4-1.1,0.8,0.3,1.2-0.6
		c1.1,0.9,2.2,0.5,3.3,0c2.4,0.5,4.8-0.8,7.3-0.2l0.2-0.7c0.1-0.2,0.1,0.3,0.1,0.6c1.3-0.5,2.2-0.4,3.5-1l0.2,0.8
		c0.2-0.1,0.1-1.4,0.5-0.7c0.1,0.4-0.1,0.2-0.2,0.5c0.2,0.2,0.4,0.1,0.4-0.5c4.8,0.1,9.5-0.6,14.2-1.3c4.7-0.7,9.5-1.9,14.3-2
		l0.2-0.5c1.3,0.7,2.7-1.1,3.9,0.1c0.2-0.2,0.5-1.4,0.5-0.3c0.2-0.5,0.8-0.9,1.1-0.1l0.3-0.7c0.4,0.1,0.9,0.4,1.4-0.3
		c2.1,1.1,4.5-1.2,6.6,0.9l0.3-0.7c0.3,1,1,0.8,1.2-0.1c0.1,0.3,0,0.6,0.1,1c0.3-1.4,0.4-0.5,0.5,0c0.7-1.1,1.3-0.7,2.1-0.6
		c0.1,0.3,0,0.7,0,0.9c0.2,0.2,0.3-1.3,0.6-0.4c0.1-0.2,0-0.4,0-0.6c0.2-0.3,0.3,0.4,0.6-0.4c0.1,0.3,0,0.5-0.1,0.7
		c0.3-0.5,0.7-1,1.1-0.9c0.1,1-0.2,0.5-0.5,1c0.8-0.8,1.6-1.1,2.3-1.7l0.2,1c-0.1,0.8,0.2-0.4,0-0.8c0.4-0.9,0.7-0.6,1.2-1.2
		c0,0.8,0.5,0.6,0.1,1.2c0.2,0.3,0.3-1.1,0.6,0.2c0.4-0.7-0.1-0.6-0.2-0.8c0.5-0.9,0.8,0.1,1.4-1c0,0.3-0.1,0.5-0.2,0.7
		c0.1,0.2,0.3-0.4,0.3,0.5c0-1.1,0.3-0.4,0.6-1.2c0.9,1.6,2.5-2.2,3.1,0.1c0.4-1.7,1-1.3,1.4-1.5c-0.1,1.2-0.5,0.2-0.8,0.9
		c0.1,0.4,0.2,0.2,0.2,0.6c-0.4,0.4-0.9,1.5-1.2,1.8c0.3-1.9-0.9-0.1-1.1,0.1c0.6,1,1.8,0.5,2.6-1c0,0.3-0.2,0.6-0.3,0.9
		c0.4-0.2,1.1-0.1,1.4-1.7c0.3-0.3,0.1,0.8,0.2,1c0.8-1.1,1.3-1,2.2-2.3c0.9,0.2,1.8,0.3,3-1.4c0.5,0.4,1.5-0.4,2-1.5
		c1.1,1,3.7-3.4,4.9-0.4c0-2.4,1.1-1.2,1.3-3.3c0.3,0.2,1-1.9,1.1-0.4c1.6-1.8,2.9-1.8,3.9,0.2c0.3-0.6,0.5-1.1,0.5-1.8
		c0.2-0.2,0.4,0.2,0.5,0.9c0.3-0.8,0.4-0.4,0.6-0.4c0.2-1,0.4-0.8,0.7-1.7c0-0.5-0.3,0.3-0.4-0.1c1-1.1,2.3-0.9,3,1.1
		c0.3-1.3,0.7-1.6,1.1-1.2c0.3-0.7,0.6-1.2,0.9-1.7C376.7,91,374.8,88.5,373.3,85.7z M226,35.6c-0.2-0.9-0.3-0.5-0.7-1.1
		c0.5-0.2,0.6-2.2,1-0.7C226,34,226.1,34.8,226,35.6z M230.5,37.4c-0.3-0.2-0.4-1.3-0.7-0.4c0,0.6,0.5,0.5,0.3,1.3
		c-0.3,0-0.5-0.3-0.7-1.1c0.3-1.1,1-1.5,1.2-0.4C230.5,36.6,230.6,37.1,230.5,37.4z M237.5,37.4c0.4,0.1,1.4-1,1.5,1
		C238.5,37.1,237.8,38.8,237.5,37.4z M205.9,46.5c-0.3-0.5-0.2-1.3-0.5-1.3c0.3-1.3,0.7,0.9,1.1,1C206.4,47.2,205.9,45.5,205.9,46.5
		z M212.7,45.8c0.2,0.3,0.2,0.6,0.2,0.9c-0.4,0-0.6-0.3-0.5-0.9c-0.3,0.2-1.2,1-1.7-0.8c0.4,0.5,0.2-0.2,0.6,0c-0.1-0.4,0-0.9,0-1.3
		c0.2-0.2,0.3-0.2,0.6,0c0.2,0.6,0.1,1.1,0.2,1.7c0.1-1.3,0.5-1,0.8-1.2c0.5,1.3,0.7,1.1,1.3,1.6C214,46.7,213.2,46,212.7,45.8z
		 M217.5,45.3c0-0.7-0.3-0.2-0.5-0.9c-0.1,1.1-0.6-0.2-0.8,0.4c-0.3-0.9-0.5-1.1-0.8-1.1c-0.1,0.3,0.2,0.6,0.2,0.9
		c-0.7-1-0.5-1.8-0.4-3.3c0.2,0.3,0.1,0.6,0.2,0.9c0.1-0.3,0.3,0.4,0.4,0.2c-0.2-0.3-0.3-0.6-0.3-0.9c0.2-0.6,0.4,0,0.2-0.9
		c0.2,0,0.3-0.2,0.6,0.5c0,0.4-0.3,0.2-0.1,0.6c0.2,0,0.5,0.1,0.7,0.3c-0.2,0.7,0.1,0.2,0.2,0.7c-0.1,0.8-0.4-0.3-0.5,0.2
		c0.4,1,0.5,0.6,0.8,1.1C217.5,44.3,217.9,45.5,217.5,45.3z M220.5,49.1c-0.4,1.1,0,3.2-0.6,2.6c0.3-0.7,0.5-2.9-0.2-3.5
		c-0.1-0.7,0.2-0.5,0.3-0.8c0.3,1.1,0.5,0.3,0.9,0.7c-0.2,1.1,0.3,0,0.5,1.1C221.2,49.7,220.8,48.8,220.5,49.1z M227.5,47.5
		c-0.2-0.5-0.3-0.1-0.5-0.7c0.2-0.6,0.2-0.5,0.3-1.3c0.3,0.9,0.5,0.5,0.8,1.1C228,47.2,227.6,46.2,227.5,47.5z M238.9,50.5
		c-0.1-1.8,0.8-0.9,1.3-0.3C239.8,50.9,239.4,50.8,238.9,50.5z M240.9,52.4c0.3-1.1,1,0.6,0.9,1.7C241.5,53.4,241.5,53,240.9,52.4z
		 M249.7,49.9c-0.3-0.5-0.1-1-0.2-1.5c-0.2,0.2-0.4,0-0.6,0.5c-0.3-0.5-0.1-1,0-1.5c0.4,1,0.6,0.2,1,0.8
		C249.8,49,250.1,49.6,249.7,49.9z M254.3,35c-0.1,0.7-0.3,0.2-0.4,0.9c0.2,0.5,0.4,0.3,0.3,0.9c-0.2-0.2-0.8,0.1-0.8-1
		C253.6,35.4,253.9,34.4,254.3,35z M253.8,50.5c0.1-0.2,0.2-0.1,0.3,0.2c-0.4,0.9-0.8-1.4-1.1-1.7l-0.3,0.9c-0.6-1.2-1.1-1-1.6-0.6
		c0,0.9-0.1,1.6-0.3,1.9c-0.1-1.4-0.2,0.5-0.6-0.4c0.4-1,0.7-1.6,0.8-2.8c0.5,1.7,1.2-0.1,1.7-0.3c0,0.4-0.4,0.7-0.2,1.1
		c0.2-0.5,0.5-0.3,0.7-0.9c-0.1-0.2-0.3-0.1-0.2-0.6c0.3,0.6,0.8-0.5,0.9,0.6c-0.4-0.5-0.8,0.9-0.4,1.8c0-1.4,0.9-0.5,0.9,0.1
		C254.3,49.7,253.5,49.1,253.8,50.5z M221.3,76.8c-0.4-1.5-0.2,0.2-0.5-1.1c-0.3,0.3-0.8,1.1-1.1,0.2c0.1,0.1,0.4-0.1,0.2-0.4
		c-0.2,0.2-0.4,0.1-0.7-0.4c0.1-0.7,0.3-0.2,0.6,0.4c0.1-0.6,0.5-0.3,0.4-1.3c0.5,0.8,0.8-1,1.3,0.7c-0.1-1.1,0.3-1.1,0.6-0.6
		C221.5,74.6,221.8,75.9,221.3,76.8z M224.5,77.1c-0.1-1-0.3-0.3-0.3,0.4c-0.2-0.1-0.3-0.2-0.3-0.7c-0.3,0.9-0.9-0.4-1.3,0.6
		c-0.3-0.4-0.2-1.6-0.4-0.6c-0.3-0.5-0.5-2-0.1-1.5c0,0.2-0.1,0.5,0.1,0.7c-0.2-2.1,0.6-1.5,1-2.1l0.4,0.9c0.2-0.1,0.4-1.2,0.7-0.4
		c0,1.2-0.5,1.4-0.9,1.1c0.1,0.3,0,0.3-0.1,0.4c0.2,0.1,0.5,0.8,0.7,0.7c0.2-1.1,0.4-1.9,0.8-0.9C224.4,75.8,224.7,76.6,224.5,77.1z
		 M257.5,34.7c0.4,0.2,0.7-0.6,1.1,0.4c-0.3,0.2-0.2,1.4-0.5,1.5c-0.4-0.4-0.1-1.7-0.3-1.5c-0.1,0.4,0.1,0.9-0.1,1.3
		C257.4,35.8,257.5,35.2,257.5,34.7z M256.4,49.9c0.6,0.9,1.2,0.4,1.6-0.3c-0.1,0.5,0.1,1,0.2,1.5c0-0.8,0-0.9,0.3-0.9
		c0.2,0.3,0.1,0.6,0.1,0.9c0.1-1,0.1-0.3,0.4-0.3c-0.2-0.8,0.2-0.9,0.4-0.3c0,0.6-0.3,0.4-0.4,1.3c-0.5-0.2-0.5-0.8-0.6,0.3
		c-0.3,0-0.3-0.6-0.3-1.1C257.6,51.8,256.7,51.3,256.4,49.9z M259.4,70.2c0.2,0.5,0.3,0.3,0.2,1c-0.3,0-0.2-0.8-0.5-1.3
		c-0.2,0.9-0.6-0.5-0.8,0.5c0.2,0.2,0.3,0,0.6,0.8c-0.1,0.5-0.3,0-0.3,0.7c-0.2-0.3,0-1.5-0.3-1.1c-0.2,0.4,0.2,0.9,0,1.3
		c-0.1,0.1-0.3-0.1-0.4-0.4c0-0.6,0.2-1.1,0.1-1.7c-0.1,0.1-0.3-0.4-0.5-0.6c0.9-0.2,1.8-0.3,2.7,0.6
		C260,71.2,259.6,69.2,259.4,70.2z M261,52.4c-0.2-1.6-0.3-0.4-0.7-1.2c0.2-0.7,0.4-0.7,0.2-2c0.5,2.1,1.2,0.4,1.9,1.2
		c-0.4,0.5-1,0.5-1.6,0.6C261,51.5,261.2,52,261,52.4z M264.2,50.9c0.4,0.8,0.7-0.8,1.1,0.1C265,51,264.2,52.7,264.2,50.9z
		 M265.9,51.1c0.5,1,1.2-0.1,1.4,1C266.9,51.6,266,53,265.9,51.1z M266.8,40.1c0.5-0.9,0-4,0.6-3.1c0,0.3-0.3,0.9-0.2,1.7
		c0.1-0.4,0.3,0.1,0.5,0.6C267.5,39.7,267.2,40.8,266.8,40.1z M269,55.2c0.2-0.4,0-0.7,0.2-1.1c0.4,1.6,0.8,0.3,1.1,1
		C270.2,56.3,269.5,55.3,269,55.2z M283.8,39.4c-0.4-0.7-1.8,2.7-1.5-0.1c-0.3,0-0.9,0.8-0.9-0.5c0.1-0.7,0.9-0.9,1.1,0.1
		c0.2-1.4,0.3,0,0.5,0.1c-0.2-1,0.1-1.7,0.3-2.2c0.3,0.8-0.4,1.6-0.1,2.4c0.1-0.3,0-0.6,0.2-0.9C283.5,38.3,283.9,39,283.8,39.4z
		 M292,38.8c0.1,0.4,0.2,0.2,0.3,0.6c-0.2,0.3-0.5,0.5-0.5,1.3c-0.1-0.9-0.2-1.8-0.2-2.7c0.3,0.4,0.9-0.2,1,0.7
		C292.4,38.4,292.2,38.8,292,38.8z M244.9,106.8c-0.6-1.5-0.6-1.3-1.1-1.9c0.2-0.7,0.5-1.4,0.9-1.3c0.1,0.4-0.2,0.9,0.1,1.3
		c0.3-0.5,0.1-1.1,0.2-1.7c0.1,0.4,0.2,0.2,0.4,0.6C245.2,105.3,245,105.6,244.9,106.8z M246.6,105.4c-0.3,0.5-0.7,0.2-1-0.2
		c0.1-0.8,0.2-0.3,0.2-1.5c0.1,0.2,0.3,0.8,0.3,0.6c0.1-0.2-0.1-0.5-0.1-0.7c0.3,0.3,0.4-0.6,0.7,0.6
		C246.6,105,246.2,104.3,246.6,105.4z M297.8,106.2c-0.2-0.7-0.1-1.4-0.1-2.1c-0.2,0.9-0.5,1.2-0.5,0.1c0.3-0.3,1-0.9,1.1,0.5
		C297.7,104.2,297.9,105.7,297.8,106.2z"/>
	<path class="st1" d="M404.6,65.1c0-0.2,0-0.3,0-0.5c0.3,0.3,0.4-0.3,0.7-0.5c0-0.9-0.3-0.6-0.4,0.1c-0.3-0.4,0.3-0.9-0.1-1
		c0.2-0.5,0.6-0.6,0.4-1.4c-0.2,0-0.3,0.3-0.1,0.8c-0.1,0.2-0.2-0.2-0.2-0.3c-0.2,0.3-0.2,0.7-0.4,1.1c-0.3-0.1-0.7-0.4-1.1,0.2
		c-0.4-1.6-0.9-0.3-1.3-0.8c0.1-1.3,0.7-0.4,0.8-1.5c-0.7,0.4-1-0.7-1.8,0.4c-0.2-0.7-0.3-1.3-0.6-0.4c-0.1-0.7,0-1.5,0.2-1.7
		c-0.1-0.4-0.2,0.1-0.3-0.2c0.1,0.5-0.3,1,0,1.6c-0.4-0.9-0.8,0.3-1.3,0c0.6-0.6,0.9-1.3,1-1.3c-0.2-1.2-0.9,0.4-1.3,0.7
		c0-0.8-0.4-0.6-0.7-0.5c0,0.2,0.1,0.4,0,0.6c-0.1,0.1-0.1,0-0.2,0.1c0-0.3,0.1-0.5,0-0.8c-0.5-0.1-1,0.5-1.5,0.6
		c0-0.2,0-0.3-0.1-0.5c0.5-0.3,0.7-0.8,1.2-1.1c-0.4-0.7-0.8-0.2-1.2-0.6c-0.1,0.6,0.2,0.2,0.2,0.6c-0.1,0.4-0.2,0.3-0.3,0.4
		c-0.3-0.5-0.1-1.3-0.3-1.3c-0.1,0.3,0,0.5-0.2,0.8c0.1,0.2,0.1-0.1,0.2-0.1c0.1,0.4,0.1,1.6,0.2,0.6c0.3,0.9-0.1,1.2-0.3,1.1
		c0.3-0.5-0.3-0.6-0.1-1.3c-0.2-0.3-0.3,0.8-0.5,0.6c-0.2-0.6,0.3-1,0.4-1.1c0.1-0.4-0.1-0.8,0-1.2c-0.2-0.4-0.4,0.3-0.7-0.2
		c0-0.7,0.2-0.5,0.4-1.2c-0.2-0.9-0.4,0.3-0.7-0.5c-0.1,0.6,0.3,0.3,0.4,1c-0.2,0-0.4,0.1-0.5-0.2c0.3,0.7,0.1,1,0,1.7
		c-0.1,0.1-0.1,0-0.2,0.1c-0.3-0.3,0.1-0.6-0.1-1c-0.3,1-1.7,0.1-1.6-1.1c-0.2,0.6-0.4,0.2-0.4,0.9c-0.3-0.5-0.1-0.9-0.3-1.4
		c0.3,0.2,0.6-0.4,0.9-0.1c-0.2-0.7-0.9-0.8-1.3-0.6c-0.1-0.3,0.1-0.6-0.1-0.9c-0.3,0.5-0.5,1-0.9,0.1c0,0.8-0.3,0.7-0.1,1.6
		c-0.2-0.7-0.4,0.3-0.7-0.4c0.2,1.2-0.5,0.4-0.5,1.2c-0.4-0.5,0.2-0.9-0.1-1.4c-0.2,0.6-0.4,0.6-0.5,0.4c0-0.4,0-0.7,0.1-1.1
		c0.6-0.4,1.2,0.3,1.7-0.5c-0.1-0.6-0.3,0.3-0.4-0.5c-0.8,1.7-1.6-1.1-2.4,0.3c-0.8-1.6-2.2,0-2.6-1.7c-0.2-0.1-0.5-0.2-0.7-0.3
		c-0.1,1.2-0.5,0.3-0.8,0.6c0-0.3,0.1-0.5-0.1-0.8c0,0.8-0.4,0.8-0.4,0.1c-0.6,0.9-1.3-0.5-2,0.1c0.2,0.5-0.1,0.7-0.2,0.9
		c-0.1-0.4,0.2-0.7,0.2-1.1c-0.6-0.8-1.1,0.2-1.7,0.2c0-1.2-0.7-1.3-0.8-0.5c-0.1-0.6-0.2-0.2-0.4-0.6c-0.2,1.7-1.6-0.8-2.2,0.7
		c-0.6-1.7-1.5,1.1-2-0.7c0.2,0.2,0.4-0.1,0.5-0.1c-0.2-0.9-0.7,0.3-1.2,0c-0.2-0.1-0.9-1.1-0.9-0.2c-0.1,0.4-0.3-0.5-0.4-0.6
		c-0.4,0.6-0.8,0.1-1.2,0.7c-0.5-0.6-1.6-0.4-2.4-0.5c-20.8-3.9-41.4,0.7-61.2,6.4c-0.2-0.3-0.2-0.7-0.1-1.1
		c1.7,0.7,2.9-1.4,4.6-0.8c0-0.6,0.1-0.6,0.3-0.8c0.1,0.3-0.1,0.1-0.1,0.5c0.3,0.3,0.3-0.8,0.7-0.1c0.1-0.4-0.2-0.8-0.1-1.2
		c0.9,1.4,1.9,0.7,2.6-0.2c0.7,0.1,1.5,0.5,2-0.5c0.1,0.1,0.2,0.3,0.1,0.5c0.9-1.1,2.6-0.2,3.1-1.5c0.2,0.4,0.1,0.6,0.3,0.6
		c0-0.2-0.1-0.4-0.2-0.6c1.5,0.8,2.3-1.4,3.9-0.4c0-1,0.8-0.2,1.1-0.2c0.6-0.1,0.8-1.2,1.2-0.4c0.4-0.7,0.9-0.8,1.5-0.1
		c0.2-0.3-0.2-0.6,0-0.9c0-0.4,0.5,0.5,0.3,0.6c0.2-0.8,0.6-0.2,0.9-0.7c0.2,0.2,0.1,0.4,0.1,0.6c0.3-0.9,0.8-0.4,1.2-0.9
		c0.2,1.2,0.1,0.1,0.5,0.6c-0.1-0.4,0-0.8,0.2-0.8c0,0.3,0.1,0.5,0.3,0.8c0.1-1.2,0.9,0.3,1.3-1c0.1,0.2,0.2,0.5,0.2,0.8
		c0.7-0.5,2.4-0.3,2.5-1.1c0.3-0.2,0.8,0.8,1.1-0.4c0.4,0.7,1.1,1,1.1,0.2c2.4,0.2,4.4-0.7,6.8-0.4c0.1-0.2,0-0.4,0.1-0.6
		c0.2,0.4,0.3,0.3,0.6,0.8c1.2-1.1,3.1,0.6,4.5-1.1c0.1,0.3,0.1,0.5,0.3,0.8c0.6-0.2,1.1-0.7,1.7-0.4c-0.1-0.4-0.3-1.8,0.2-2.2
		c0.2,0.6,0.1,1,0.5,1.2c0.1,0.5-0.2,1.1-0.4,0.5c-0.1,0.8,0.5,1.1,0.4,0.3c0.9,1.1,1.5-0.6,2.4,0.6c0.1-1.1,0.6-0.8,1.1,0.2
		c0.1-0.2,0-0.4,0-0.6c0.7,0.5,1.4,0.1,2.1,0.6c0-0.3-0.1-0.5,0-0.8c1,0.5,2.3-0.7,3.2,0.8c0-0.2,0-0.3-0.1-0.5
		c1.1,0.3,2.2-0.3,3.3,0.6c0.7-0.7,2.1-0.1,3.1,0c0.2-0.4-0.1-0.7,0.1-1.1c0.1-0.1,0.2-0.1,0.2,0c-0.1,1.7,0.8,0.8,1.2,1.3
		c0.1-0.8-0.3-0.2-0.4-0.6c-0.1-0.7,0.3-0.5,0.3-0.6c0.5,2,1.3,0.8,1.9,1.6c0.2-0.4-0.1-0.7,0.1-1.1c0.1-0.1,0.2,0.2,0.2,0
		c0.1,0.3-0.1,0.5-0.1,0.8c0.2,0.4,0.4,0.4,0.6-0.1c0-0.3-0.2-0.6,0-0.9c-0.1-0.3-0.2,0.2-0.4-0.3c0.2-0.6,0.4,0.2,0.6-0.6
		c0.2,0.9,0.4,0.5,0.6,0.6c0.1,0.8-0.4-0.2-0.5,0.5c0.4,1-0.1,0.4-0.3,0.8c0.6,1.1,0.5-0.1,1.1,0.7c0.1-0.3-0.2-0.6-0.2-0.9
		c0-0.1,0.1,0.1,0.2,0.2c0.1-0.4,0-0.6-0.2-0.6c0.3-0.9,0.6-0.5,0.9-1.4c0.2,0.3,0.3,0.3,0.3,0.9c0.3,0,0.5-1.3,0.8-0.8
		c0.2,0.3-0.2,0.6-0.2,0.9c0.2,0.4,0.4-0.4,0.3-0.8c0.2-0.5,0.4,0.6,0.6,0.2c0.1,0.3-0.1,0.6,0.2,0.9c0.2-1.2,1.2-1.5,1.2-0.3
		c0.3-0.1,0.5,0.5,0.8-0.5c0.4,1.3,0.8-0.2,1,1c0.3-1.9,1.2,1,1.6-0.4c0.5,0.4,1,0,1.5,0.5c0.2,0.4-0.3,0,0,0.6
		c0.8-1.4,1.6,0.6,2.4-0.2c-0.1-0.3-0.2-0.1-0.3-0.5c0-0.2,0.1-0.4,0-0.6c0.4,0.2,0.8,0.9,1.1,1c0.1-0.4-0.1-0.3-0.2-0.5
		c-0.1-0.6,0.3,0.1,0.4-0.6c0,0.4,0.1,0.6,0.3,0.6c0.3-1.8,1,0.7,1.5-0.6c0.2,0.4,0.2,0.8,0,1.3c0.2,0.6,0.3,0,0.5,0.3
		c0.1-0.3-0.1-0.5-0.2-0.8c0.2-0.7,0.3-0.5,0.5-0.6c0.1,0.3,0,0.6-0.1,0.9c0.4-0.6,0.8,0,1.3-0.1c0.1,0.3-0.1,0.6,0.1,0.9
		c0.2-1.6,1.5-0.4,2-1.1c0.1,0.8,0.6,0.6,0.2,1.3c0.3,0.2,0.3-0.2,0.3-0.8c0.3-0.1,0.3,1.5,0.7,0.8c-0.1-0.6-0.2,0-0.4-0.3
		c0.1-0.1,0.1-0.3,0.1-0.5c0.6,0.1,1.2,1,1.8-0.2c0,0.9,0,0.8,0.2,1.6c0.2-0.4-0.1-0.9-0.2-1.4c0.3-1.3,0.6,0.8,1-0.2
		c0.4,0.6-0.2,1.1,0.1,1.7c0.2-0.5,0.1-1.1,0.2-1.7c0.2-0.5,0.2,0.6,0.4,0.3c0.1,0.3-0.1,0.5-0.2,0.8c0.2,0.2,0.6-0.2,0.4-0.7
		c0.4,1.1,0.4,0.1,0.7,1.3c0.4-0.6,0.4-0.4,0.9,0.1c0.1-0.4-0.2-0.8,0.1-1.2l-0.3-0.8c-0.2,0-0.1,0.8-0.4,0c-0.1,0.2-0.1,0.4,0,0.6
		c-0.4-0.1-1.6,0.2-1.3-1.4c-0.1-0.4-0.3,0.5-0.4,0.6c-0.2-0.7,0-1.2,0.2-1.4c-0.1-0.2-0.7-0.2-0.5,0.6c-0.3,0.2-0.5-0.5-0.8,0.4
		c-0.1-0.4,0.3-0.7,0.2-1.1c-0.2-0.6-0.8,0.5-0.7-0.8c-0.2-0.4-0.2,0.5-0.1,0.6c-0.2,0-0.4,0-0.7-0.5c-0.1,0.3,0,0.5-0.1,0.8
		c-0.1,0.3-0.3-0.1-0.4,0.1c0-0.3,0-0.5,0.1-0.8c-0.5,0.6-1.1,0.5-1.6,0.2c-0.1-0.5,0.2,0,0.3-0.6c-0.2-0.5-0.4,0.2-0.6-0.5
		c-0.4,0.8-0.4-1.4-0.8-0.5c0.1,0.2,0.2,0.2,0.4,0.3c-0.2,0.8-0.3-0.2-0.5,0.6c-0.2-0.3,0-0.5,0.1-0.8c-0.1-0.1-0.2,0.2-0.3-0.2
		c-0.1,1.1-1.2,0.4-1.7,0.1c0-0.2,0-0.2,0-0.3c-0.7,0.1-1.4,0.1-2.2-0.3c-0.1-0.3,0.1-0.5,0.2-0.8c-0.3-0.8-0.5,0.3-0.4,0.8
		c-0.4,0.2,0-0.9-0.4-1.3c-0.3,0.3,0.2,0.7,0.1,1.1c-0.5-0.1-1,0.9-1.6-0.2c-0.2,1.1-0.4,0.6-0.7,0.9c-0.2-0.3-0.1-0.6-0.3-1
		c-0.4,0.7-0.8,0.5-1.2,0.4c-0.1-0.6,0.3-0.4,0.4-0.4c-0.3-0.6-0.7-0.2-1,0.4c-0.3-0.4,0-0.7-0.2-1.1c0.2-0.5,0.4-0.1,0.4-0.8
		c-0.8-0.1-1.3,0.3-2,1.1c-0.4-0.5,0.2-0.9-0.1-1.4c-0.7,0.1-1.3,0.3-2-0.7c-0.3,1-0.6,0.2-0.7,0c-0.1,0.3,0.1,0.6-0.1,0.9
		c-0.5-1-1.6,0.6-1.7-0.8c-0.8,0.2-1.9-0.8-2.4,0.1c-0.4-0.9-0.8,0.1-1.2-1.1c-0.2,0.9-0.5,0.1-0.7,1.1c-0.2-0.3-0.1-0.6-0.3-0.9
		c-1.5-0.1-2.9,0.3-4.4-0.7c0,0.4-0.1,0.8,0.1,0.8c-1.2-0.6-2.5-1-3.6-0.3c-0.3,0.4-0.6-0.7-0.9-0.6c0,0.2,0.1,0.4,0,0.6
		c-0.4-0.3-0.9-0.7-1.4,0l-0.4-0.9c-1.2,0.9-2.5,0.3-3.8-0.1c0,0.2,0,0.3,0,0.5c-2.3-0.7-4.4,0.2-6.6-0.1c-0.2,1-1.8,0.2-2.8,0.2
		c-0.5,0-0.9,0.7-1.3-0.1l-0.2,0.6c-0.4-1.1-0.8,0.5-1.3-0.6c-0.9,1.2-2.6-0.1-3.7,0.9l-0.3-0.6c-1.5,1.2-3.2,0.1-4.7,1.4
		c-0.8-0.9-1.3,0.7-2.2-0.2c-0.3,0.9-0.9-0.1-1.2,0.7c-1.3-0.5-2.4,0-3.5,0.5c-2.6-0.1-5,1.5-7.6,1.5l-0.2,0.6
		c-0.1,0.2-0.1-0.2-0.1-0.5c-1.3,0.7-2.3,0.8-3.5,1.6l-0.3-0.6c-0.2,0.1,0.1,1.1-0.4,0.7c-0.1-0.3,0.1-0.1,0.1-0.5
		c-0.2-0.2-0.4,0-0.4,0.5c-4.7,0.8-9.2,2.4-13.6,4.3c0.5,3.8-0.1,8.1-2.4,12.4c-7.3,13.7-2.9,30.6-2.2,46.2c0.2,0.1,0.3,0.2,0.5,0.3
		c1.4,0.5,2.6,1,3.8,1.7c0-0.3-0.1-0.6-0.1-1c0.2,1,0.4,1,0.7,1.4c0.1,0,0.1,0.1,0.2,0.1c0,0,0,0,0,0c0.1-0.1,0.5,0.5,0.1-0.3
		c0.2,0,0.4,0.4,0.7,0.7c0,0.1,0,0.2-0.1,0.3c0.1,0.1,0.2,0.1,0.3,0.2c0.4-0.6,0.9-1,1,0.3c0.2,0,0.2-0.7,0.5-0.2
		c-0.1-1.5,0.7-0.5,0.8-2c0.3,1,0.5,0.3,0.6,1.2c0.2,0.2,0-0.8,0.1-1.1c0.4,0,1,0.4,1.2-0.6c0.2,0.8,0.5,0.5,0.4,0
		c0.3,0.8,0.4,0.2,0.7,0.7c-0.2-0.5-0.2-0.5-0.5-1.2c0.2-0.1,0.6,0.4,0.7,0.9c0.3,0.1-0.1-0.9,0.6-0.1c0-0.3-0.2-0.5-0.1-0.8
		c-0.2,0.2-0.5,0-0.8-0.4c0.4,0,0.8,0,1.2-0.1c0.1,0.1,0.1,0.3,0.2,0.4c-0.1,0.3-0.6-0.3-0.4,0.7c0.4,0.4,0.4-0.8,1,0
		c0-0.2,0-0.5,0.2-0.3c0-0.3-0.1-0.5-0.2-0.8c0.1-0.6,0.5,0,0.6-0.5c0.3,0.3,0.2,0.6,0.4,0.9c0.1-0.4-0.3-0.7,0-0.8
		c0.3,0.4,0,0.8,0.3,0.7c0.1-0.3-0.1-0.5-0.1-0.8c1.2,1.7,1.9-0.3,2.7,0.5c0.2,0.3,0,0.6,0.1,0.9c0.4,0.3,0.4-1.2,1,0
		c0-0.3-0.1-0.5-0.2-0.8c0-0.6,0.2-0.2,0.2-0.6c0.2,0.2,0.1,0.5,0.1,0.8c0.2,0.4,0.3-0.1,0.5,0.1c0-0.2-0.1-0.4-0.2-0.6
		c0-0.5,0.2,0,0.3-0.3c0.1,0.3,0,0.5,0.2,0.8l0.1-0.6c0.2,0.3,0.1,0.6,0.4,0.9c0.5-0.3,0.9-0.6,1.5-0.6l-0.3-0.4
		c0.1,0,0.2-0.7,0.4-0.4c0.2,0.2,0.1,0.5,0.1,0.8c0.4,0.3,0.8-0.6,0.9-0.9c0.2,0.6,0.4,0.7,0.5,0.3c-0.4-0.6-0.1-0.6-0.1-0.9
		c-0.4,0.4-0.8-0.5-1.3,0c0,0.3,0.1,0.1,0.2,0.3c0,0.7-0.3-0.4-0.3,0.3c-0.3-0.7-0.3-0.5-0.7-1.2c0.8,0.6,1.4-0.9,2,0.1
		c0-0.2-0.1-0.3,0-0.5c0.2-0.3,0.1,0.6,0.3,0.7c0.1-1.3,0.6-0.6,0.9-0.4c-0.1-0.9,0.2-0.8,0.4-0.7c0,0.6,0,1.2,0.2,1.8
		c-0.1,0.2-0.4,0-0.3,0.6c0.2-0.1,0.2,0,0.4,0.6c0-0.7,0.1-0.6,0.1-1.1c0.1-0.3,0.4,0.3,0.5-0.3c0.4,1.1,0.8,0.4,1.1-0.1
		c0.2,0.9,0.4,0.8,0.5,0.1c0.1,0.3,0.1,0.5,0.1,0.8c0.4,0.4,0.6-0.7,1-0.4c0.1-0.3-0.3-0.6-0.2-0.9c0-0.4,0.4,0.8,0.3,0
		c0.1,0.3,0.2,0.5,0.2,0.8c0.2,0.1-0.2-0.8,0.2-0.5c0.2,0.3,0.3,0.6,0.3,0.9c0.2-0.5,0.8,0.3,0.8-0.7c0.2,0.3,0.1,0.6,0.4,0.9
		c-0.2-0.9,0.3-0.2,0.3-0.2c0.3-0.2,0.3-1.4,0.8-0.5c-0.1-0.9,0.4-0.5,0.7-0.7c0.1,0.3,0,0.5,0.2,0.8c0-1,0.4-0.1,0.5-1.1
		c0-0.7-0.4-0.8-0.5-0.4c-0.1-0.1,0.1-0.7,0.2-0.6c0-0.7-0.3-0.2-0.4-0.3c-0.1-0.3,0-0.5,0-0.8c0.1-0.1,0.5,0.9,0.5,0
		c0.2,0.3,0.4,0.7,0.3,1.1c0.3,0.5,0.4-0.3,0.7,0.4c-0.1,0.7-0.2,1.3-0.4,1.7c0.2,0.1,0.4,0.4,0.6,0.6c0-0.3-0.1-0.9,0.2-0.5
		c0-0.3-0.1-0.5-0.1-0.8c0.2-0.4,0.2,0.4,0.5,0.7c-0.3-1.3,0.7-1.6,1-0.2c-0.1-0.8,0.2,0,0.3-0.8c-0.3-0.5-0.3,0.3-0.6-0.3
		c-0.1-0.6,0.5-0.1,0.7,0c0-0.3,0-0.6,0.1-0.9c0.1-0.4,0.2,0.5,0.1,0.6c0.2,0.2,0.1-0.8-0.1-1.1c-0.1,0.2-0.3-0.1-0.3,0.5l-0.3-0.9
		c0.2-0.5,0.6,0.5,0.8-0.1c0.2,0.6-0.1,1.8,0.3,1.8c-0.2-0.8,0-0.4,0.2-0.8c0.2,0.9-0.1,0.4,0.4,0.9c-0.1-0.6-0.1-0.8,0.1-1.1
		c0.3,1.2,0.3-0.5,0.7,0.6c-0.6,0.2-1,1.3-1.8,0.6c0.4,1-0.4,0.5-0.1,1.7c0.1,0.3,0.2,0.1,0.3,0.4c-0.1-1,0.5-0.3,0.7,0.3
		c-0.3-0.9,0.1-0.8-0.2-1.7c0.1,0,0.2-0.5,0.4,0c0.2,0.5-0.4,0,0.1,0.8c0,0.7-0.3-0.4-0.3,0.3c0.2,0.3,0.1,0.5,0.3,0.8
		c0.1-1.1,0.4-0.3,0.6,0.4c-0.2-1.3,0.6-0.5,0.9-0.8c0-0.6-0.1-0.4-0.3-0.8c0.2-1.1,0.9-0.2,1-1.1c0.3,0.3,0.1,0.7,0.2,1.1
		c-0.3,0-0.5,0.3-0.9,0c0,0.4,0,0.8,0.2,1.2c0-0.3,0.1-0.2,0.2,0c0-0.2,0-0.4-0.1-0.6c0.4,0.9,1.1-0.1,1.2-1
		c0.1,1.6,0.5,0.7,0.8,1.8c0.1-0.3,0.1-0.3,0.2-0.2c0-0.8-0.3-0.1-0.4-0.6c-0.2-0.6,0.1-1.1,0.2-2c0.4,0.8-0.1,0.9,0,1.5
		c0.4,0.6,0.2-0.1,0.4-0.5c-0.1-0.4-0.1-0.7-0.2-1.1c0.1-0.2,0.3,0.5,0.4-0.2c-0.3-0.6-0.4,0.7-0.8-0.4c-0.2,0.7-0.4,1.2-0.7,1.1
		c-0.1-0.4,0.2-0.3,0.3-0.3c0-0.6-0.4-0.5-0.2,0c-0.6-3,1.5-0.6,2.2-1.6c-0.1-0.2-0.2-0.4-0.2-0.6c-0.2-0.4-0.2,0.5-0.4-0.1
		c-0.1-0.4,0.3-1,0.5-0.3c-0.2-0.7,0.1-1.7,0.4-1c0.1,0.2-0.2,0.7-0.4,0.3c0.2,0.9,0,0.9,0.1,1.7c0.3,0.3,0.3,0.6,0.6,0.9
		c-0.3,0.4-0.7-0.2-0.9,1c0.3,0.7,0.1,0.7,0.5,1.2c-0.1-0.5-0.4-1-0.1-1.6c0.4,0,0.8,0.3,1.1,0c-0.2-0.3-0.3-0.6-0.2-0.9
		c-0.2-0.1-0.4-0.1-0.5-0.1c0-0.4,0.1-0.7,0.2-0.9c0.1,0.2,0.1,0.4,0.1,0.6c0.4,0.4-0.1-0.9,0.3-0.6c0.1,0.5,0,0.9,0.1,1.4
		c0.2-1.2,1.1-0.1,1.3-1.3c0.1,0.4,0,0.7,0.3,1.1c0.2-0.4,0.4,0,0.5-0.8c-0.2-0.3-0.3-0.6-0.3-0.9c0.2-0.4,0.5-0.1,0.7-0.6
		c0.2,0.6,0.1,1.8-0.3,0.9c0.2,0.5,0,0.9,0.2,1.4c0.1-1.1,0.4-0.7,0.7-1.4c-0.2-0.6-0.2,0.3-0.4-0.1c-0.1-0.8,0.3-0.1,0.4-0.8
		c0.1,0.3,0.1,0.5,0.3,0.8c-0.1-1.7,0.6,0,0.8-0.8c0.3,1.1-0.3,0.8-0.2,1.6c0.1,0.1,0.1-0.1,0.1-0.2c0.3,0.3,0,0.6,0.2,0.9
		c0.1-0.5,0.5,0,0.3-0.8c0.1-0.7,0.4,0.3,0.5,0c0.1,0.4,0.1,1-0.1,0.6c0.2,1.1,0.6-0.9,0.8,0.6l0.2-0.9c-0.2-0.2-0.2-0.5-0.3-0.8
		c0.2-0.4,0.2,0.2,0.4,0.6c0.2-1.3,0.7-0.1,1.3,0.4c0.2-0.9,1.1,0.3,1.5-0.4c-0.1-0.7-0.3-0.2-0.4-0.5c0-0.8,0.5-0.7,0.8-0.6
		c0.2,0.8-0.3,0-0.2,0.8c0.2,0.3,0.4,0.6,0.4,0.9c0.1-0.3,0.2-1.3,0.3-1.9c0.2-0.2,0.3,0.8,0.5,1.1c0.1,0.1,0.4-0.9,0.5,0.1
		c0.3-0.9,0.8-0.6,1.2-0.5c0.3,0.5-0.1,0.9,0.2,1.4c0.3-0.5-0.2-0.9,0-1.4c0.2-0.5,0.4,0.8,0.6,1.2c0.1-0.3,0.3,0.1,0.4,0
		c0,0.4,0.1,0.8,0.4,1.2c0-0.2,0-0.7,0.1-0.5c0.1-0.4-0.2-0.1-0.3-0.6c0.1-0.6,0.3-0.1,0.4,0c0.1-0.4-0.3-0.6-0.3-0.5
		c-0.1-0.4,0-0.7-0.1-1.1c0.2,0,0.3,0.5,0.3-0.3c0.3,0.7,0,0.6,0.1,1.1c0.3,0.4,0.2-0.4,0.2-0.8c0.2-0.3,0.5,0.1,0.8,0
		c0.1,0.5-0.1,0.9,0,1.4c0.3,0.2,0.6,1.4,0.9,0.9c0.3,0.9,0.4,1.4,0.9,1.5c-0.2-0.3-0.4-0.3-0.4-0.9c0.1-0.4,0.3-0.2,0.5-0.2
		c0.1-0.3-0.1-0.6,0-0.9c-0.2,0.1-0.7-0.8-0.6,0c-0.1-0.4-0.2-0.7-0.1-1.1c0.2-0.1,0.2,0.9,0.4-0.2c0.3,0.3-0.1,0.6,0.2,0.9
		c-0.1-0.9,0.2-0.9,0.4-0.5c0.1-0.6-0.1-0.7-0.3-0.6c0.1-0.3,0.2-0.1,0.2-0.5c0.1,0.4,0.5,0.7,0.4,1.1c0.1,0.1,0.4-0.9,0.4,0.1
		c0.2,0.3,0.1-1.4,0.4-0.9c0.1,0.3,0,0.5-0.1,0.8c0.3,0.1,0.9,0.9,0.9,0c0.1-0.1,0.5,0.1,0.3,0.6c0.5-0.1,1-1.1,1-3
		c0.1-0.1,0.3,0.1,0.4-0.2c0.3,0.5-0.1,1,0.3,1.5c-0.2,0.6-0.2,0.2-0.4,0c-0.2,0.5-0.2,1,0,1.6c0-0.2-0.1-0.3-0.1-0.5
		c0.1-0.3,0.3-0.7,0.5-0.2c0.2,0.4-0.2,0.1-0.1,0.6c0.2,0.6,0.2-0.4,0.5,0.3c-0.1-1.5,0.6-0.5,1.1,0.3c0.1-0.6,0.2-1.6-0.2-1.7
		c0.2,0.8-0.1,0.5-0.3,0.3c-0.1-0.3,0.1-0.3,0.1-0.2c-0.1-0.7-0.7-0.2-1-0.5c0.8-1.1,2.2-0.2,3.2-0.9c0.1,0.2,0,0.4-0.1,0.6
		c0.2,0.2,0.3,0.4,0.4-0.3c0.2,1,0.2,0.1,0.5,0.6c0.2,0.4-0.3,0.7,0,1.1c0.1-1,0.3-0.4,0.7-0.1c0.1-0.8,0.3-1.3,0.6-0.3
		c0.1-0.7,0.3-0.2,0.5-0.9c0.7,2.2,1.6,0.5,2.7,1.6c-0.1-0.7,0.1-1.3,0.3-0.3c0.2-0.4,0.1-0.7,0.1-1.1c0.1-0.1,0.1-0.1,0.2,0
		c0,0.5,0.1,0.9-0.1,1.4c0.4,0.6,0-1.3,0.4-0.3c0-1.1,0.1-0.7,0.4-0.8c0.1,0.4,0,0.7-0.1,1.1c0.4-0.8,1.3-0.1,1.5-2
		c0.2-0.3,0.3,0.2,0.4,0.3c0.2,0.5-0.1,0.9,0.2,1.4c0.2-0.4,0.1-0.8,0-1.2c0.3,0.2,0.2-0.3,0.4-0.6c0.2,0.8-0.1,1.9-0.3,1.9
		c0.1,0.2,0.1,0.5,0,0.3c0.4,0.9,1,1.9,1.4,0.2c0.2,0.4-0.2,0.8,0.1,1.2c0.1-0.9,0.7,0.1,1.1,0.1c0.1-0.3,0-0.5,0.1-0.8
		c0,0.3,0,0.5,0.1,0.8c0.2,0,0.1-0.2,0.2-0.6c0.1,0.2,0,0.4,0,0.6c0.3,0.7,0.5,0.1,0.4-0.6c0.1,0.2,0.1,0.2,0.2,0.2
		c0.1,0.2,0,0.4-0.1,0.6c0.5,0.1,1.3,1.2,1.6,0.1c0.5,0.9,0.3-0.3,0.6,0.3c0.2-1.2,0.4-1,0.7-1.7c-0.1-0.4-0.3-0.2-0.4-0.5
		c0.1-0.5,0.3,0.3,0.5-0.1c0.1,0.2,0,0.4-0.1,0.6c0.3,0.1,0.7,0.7,1,0.8c0.1,0.2,0,0.4-0.1,0.6c0.2,0.1,0.3,0.3,0.5-0.1
		c0.1-1.7,1.3,0.7,1.7-0.4c-0.6-0.3-1.2-0.4-1.9-0.9c0.2-0.4,0.4,0,0.6,0c0.1-0.7-0.3-0.2-0.4-0.5l0.3-0.9c0.1,0.3,0.1,0.5,0.2,0.8
		c0.4-0.4,0.3-1.8,0.9-1.2c0.1,0.5-0.3,0.6-0.4,1.1c0,0.4,0.2,0.7,0.1,1.1c0.1-0.2,0.3-2.1,0.7-1.4c0.1,0.3,0.1,0.6-0.1,0.9
		c0.2,0.6,0.4-1.3,0.7-0.9c0.2,0.4-0.1,0.8,0.1,1.3c0-0.1,0-0.2,0-0.3c0-0.4,0.3-0.1,0.2-0.9c0.1,0.1,0.5,0.4,0.4-0.4
		c0.1,0.1,0.2-0.2,0.4,0.2c0,0.6-0.3,1.1-0.2,1.7c0.1-0.2,0.3-0.4,0.4-0.7c0.2,0.3,0,0.6,0.2,0.9c0.3-0.2,0.6,0.1,0.9,0.1
		c0.1,0.4-0.2,0.2-0.2,0.8c0.4,0.5,0.4-1.6,0.9-0.4c0.1-0.1,0.2-1,0.3-0.6c0.1-0.4-0.2-0.1-0.2-0.6l0.1-0.5c0.3,0.6,0.6,0,1,0.7
		c0,0.8-0.4,0.9-0.6,0.1c-0.1,0.4-0.3,0.6-0.4,0.6c0.2,0,0.6,1.1,0.8,0.1c0.2,0.5,0,0.9,0.2,1.4c0.2-1.1,0.8-1,1.3-1
		c0.1,0.6-0.2,0.2-0.2,0.6c0.2,0,0.1,0.5,0.3,1c0.3-0.4,0.5,0,0.8-0.6c0.4,1,0.4-0.2,0.9-1.2c-0.2,0.1-0.4,0.4-0.7,0.1
		c-0.1,0.2,0,0.4,0,0.6c-0.1,0.2-0.3,0.2-0.4,0c-0.1-0.3,0.2-0.4,0.2-0.3c-0.1-0.5-0.6-2-0.9-1c-0.2-0.9-0.8-0.9-1.1-0.6
		c-0.1-0.5-0.1-0.8-0.3-0.2c-0.6-1.1-1.1-1.3-1.6-0.9c-0.1-1.1-0.6-0.3-0.5-1.3c-0.1,0.3-0.3,0.3-0.5,0.4c0.1,0.3,0.2,0.2,0.3,0.5
		c-0.1,0.1-0.2,0.1-0.3,0.3c-0.1-0.3-0.1-0.5,0-0.8c-0.2-0.5-0.3-0.2-0.4-0.7c-0.1,0.2,0,0.4-0.1,0.6c-0.1-0.5-0.3-0.9-0.4-0.2
		c-0.1-0.2-0.2-0.7-0.3-0.5c-0.2-0.3,0.3-0.6,0-0.9c-0.2,1.2-1.1,0.6-1.3-0.3c-0.2-0.4,0,0.5-0.2,0.6c0,0.1-0.1,0-0.1,0.2
		c-0.2-0.4-0.1-0.7-0.3-1.1c-0.3,1-1,0.1-1.5-0.2c-0.1,0.6-0.2,0.4-0.3,0.8c0.3,0.7,0.2-0.6,0.5-0.1c-0.1,0.5-0.1,0.4,0.1,1.1
		c-0.3,1-0.6,0.4-0.8-0.3c0.1-0.6,0.3,0.7,0.4,0c-0.2,0-0.4-0.9-0.2-1.4c-0.3,0-0.7-0.5-1-0.5c0.1-0.9,0-0.5-0.3-0.9
		c0.2-0.2,0.4,0,0.6,0.6c0.1-0.3-0.2-0.6,0-0.9c-0.2,0.2-0.4-0.3-0.6-0.2c-0.1,0.4,0.1,0.8,0.3,1.3c-0.3,0.2-0.6-0.3-0.9,0.4
		c0,0.4,0.1,0.8,0.1,1.3c-0.3,0.2-0.1-0.8-0.3-1.1c-0.1-0.3,0.1-0.1,0.1-0.5c-0.4-1.1-1-0.4-1.5-1.6c-0.4,1-0.8,0.3-1.3,0.3
		c-0.2-0.8,0.3-0.7,0.2-1.5c-0.4-0.6-0.3,1-0.5-0.5c-0.1,0.5,0,1,0.1,1.6c-0.3,0.4-0.7,0.2-1.1-0.2c0,1.2-0.4,0.7-0.7,0.6
		c-0.1-0.2,0-0.4,0.1-0.6c0.1-0.2,0.2,0.3,0.3,0.5c0.1-0.2,0.1-0.3,0-0.5l0.1-0.3c-0.2-0.4-0.4,0.5-0.6-0.5c0.1-0.4,0.3,0,0.4-0.1
		c0-0.8-0.3-0.4-0.5-0.6c0.3-1.3-0.4-0.3-0.8-0.8c0.1,0.5,0,1.4-0.2,1.4c0.1-0.8-0.2-0.8-0.3-1.7c0,0.2-0.1,0.2-0.1,0.2
		c0.2,0.9-0.2,0.8-0.2,1.6c-0.1-0.1-0.7-1-0.9-0.2c-0.2-0.4-0.1-0.8-0.1-1.2c-0.3-0.4-0.6-0.5-0.8-0.9l-0.2,0.6l0.3,0.6
		c0.1-0.9,0.4,0.1,0.6,0.2c-0.2,0.7-0.5-0.3-0.7,0.3c-0.1-1.9-0.6-0.8-1.2-1.7c0.2,0.2,0.3-0.2,0.5,0.2c0-0.8-0.5-0.5-0.6-0.5
		c0,0.4,0,0.8,0,1.2c-0.3,0.2-0.2-0.8-0.4-1.1c0,0.3-0.1,0.2-0.2,0c0.1,1-0.2,1-0.6,0c0.2,1-0.1,0.3-0.2,1.2
		c-0.4-0.9,0.3-0.8-0.1-1.6c0,1.1-0.2,0.8-0.3,1.5c-0.3-0.7,0.3-0.7,0.1-1.2c-0.3,0-0.3,0-0.4,0.8c-0.3-0.7,0.1-0.4,0-0.9
		c-0.6-1.1-0.6,0.2-1,0.6c-0.2-0.4-0.1-0.7-0.4-1.1c-0.2,0.7-0.5,0-0.7,0.5c-0.1-0.4,0-0.8-0.1-1.2c0-0.3,0.1-0.1,0.2-0.3
		c0.2,0.3,0,0.6,0.1,0.9c0.3-0.2,0.4-0.7,0.8-0.5c-0.3-0.3-0.5-0.8-0.7-0.5c-0.2-0.4,0.3-0.1,0.1-0.6c0.3,0.3,0.5,0.2,0.8,0.3
		c0-0.2-0.1-0.4-0.1-0.6c0.2-0.3,0.1,0.6,0.3,0.8c0.1-0.3,0.2-0.3,0.3-0.2c-0.1-1.9,0.6,0.5,0.8-0.8c0.2,0.4,0,1,0.3,0.9
		c0.1-0.6-0.2-1.2,0-1.9c-0.2-0.5-0.3,0.1-0.5-0.3c0,0.2,0.1,0.4,0.2,0.6c-0.1,0.5-0.4,0.1-0.6,0c-0.1-0.6,0.2-0.3,0.2-0.9
		c0.2-0.1,0.5,0.2,0.6-0.3c0.2,0.4,0,0.9,0.3,0.9c0.2-2.3,1.5-0.6,2.2-0.8c0.1,0.4-0.2,0.8,0,1.2c-0.6-0.2-1.1-0.6-1.7-0.6
		c0.2,0.5,0.4,0.4,0.2,1.1c0.2-0.1,0.3-0.3,0.5-0.3c0.1,0.4-0.1,0.8,0.2,1.2c0.1-0.9,0.2-0.6,0.5-0.5c0.2,0.4,0,0.7,0.2,1.1
		c0.4,0.3,0.8-0.3,1-0.9c0,0.3,0.2,0.5,0.1,0.8c-0.1,0.4-0.1-0.8-0.2,0c0.4,0.6,0.7,0.1,1,0.6l0.3-1.1c0.1,0.4,0.2,0.8,0.4,1.3
		c0.2-1.1-0.2-1-0.3-1.6c0.2-0.6,0.5,1.1,0.6,0.2c0.3,0.6-0.1,1.2,0.2,1.9c0-0.2,0-0.3-0.1-0.5c0.4-0.5,0.8,0,1.3,0.2
		c0.2-0.7-0.2-1.4-0.4-1.3c0.2-0.3,0.3-1.8,0.5-1.1c0.1,0.6-0.2,0.2-0.1,0.8c0.1,0.7,0.2-0.4,0.3,0.3c0.1-0.6-0.1-0.8,0.2-1.1
		c0.1,0.3,0.2,0.6,0.1,0.9c0.3,0.6,0.2-1.2,0.5-0.6c0.1,0.5-0.2,0.9,0,1.4c0.2-0.4,0.1-0.7,0.2-1.1c0.1-0.1,0.1-0.1,0.2,0
		c0,0.5-0.3,0.5-0.1,1.2c0.3-0.1,0.2,0.4,0.6,1.1c0.5,0.6,1-0.2,1.4-0.2c-0.2,1.1,0.9,0.7,1.3,1.1c0,0.8-0.5-0.1-0.7,0.7
		c0.5,0.8,0.8-0.8,1.1,0.2c0-0.2-0.1-0.4-0.1-0.6c0.1-0.7,0.3,0,0.4-0.6c0.5,1.6,0.9,0.1,1.2,1.3c0.5-0.7,0.8,0.2,1.1-0.9
		c-0.2-0.1-0.1-0.2-0.2-0.6c0.6-1,0.8,0.8,0.9,2.1c0.1-0.6,0-1.2,0-1.9c0.2,0.2,0.5,0.1,0.7,0.5c0.1,0.4-0.3,0.3-0.4,0.8
		c-0.1-0.4,0.8,0.6,1,0.4c0.1,0.2,0.2,1,0,0.6c0,0.7,0.2,0,0.3,0c0.1-0.2-0.1-0.4-0.1-0.6c0.4,0,1.2,1.9,1.7,1.1l0.3,0.8
		c0.1-0.3,0.2,0.2,0.3-0.3c0.5,1.7,0.9,0.1,1.4,1.7c0.5-0.8,1-0.1,1.4,0.9c-0.3,0.5-0.3,0.8-0.5,1.2c0.5,0,1-1.1,1.3-0.1
		c0-1.3,0.3-1.9,0.2-3.4c0.3,0.2,0.5,0.6,0.8,0.8c0-1.4-1-0.6-1-2.3c0.1-0.4,0.2,0.5,0.3,0.6c0-1,0.4,0,0.6-0.9c0,0.5,0,1,0.2,1.6
		c0-0.8,0.1-0.9,0.4-1.4c0.2,0.6,0.5,1.4,0.5,0.5c0.2,0.4,0.1,1,0.3,1c0.1,0.6,0,0.4-0.1,0.8c0.2,0.2,0.5,0.3,0.7-0.1
		c0.2,0.5-0.2,1,0,1.6c0.1-0.2,0.2-1.5,0.4-0.7c0-0.4,0.2-0.7-0.1-1.1c0.3-0.3,0.3-0.2,0.4-1.1c0.1-0.5,0.2,0.9,0.3,0.3
		c0.2-0.6-0.1-0.6-0.2-1c0.1-0.1,0.3,0.3,0.4,0c0.1,0.4-0.2,0.8,0,1.2c0.1-0.7,0.4-0.3,0.3,0.2c0.3-1.2,0.9-0.6,1.3,0.6
		c0-0.4,0.2-0.7,0.2-1.1c-0.2-0.3-0.1-0.4-0.3-1c-0.1,0.2,0,0.5,0.1,0.8c-0.4,0.2-0.9-0.8-1.3-1.2c0.4-0.5,0.7,0.8,1.1,0.3
		c-0.2-0.2-0.4-0.4-0.6-0.8c0.2-0.4,0.4,0.5,0.6-0.6c0.1,0.4-0.1,0.8,0.1,1.3c0.1-0.3,0.2-0.1,0.3-0.4c0.1,0.3,0,0.5-0.1,0.8
		c0.1,0.3,0.2-0.2,0.3,0.3c0.1-0.9,0.4-0.3,0.4-1.2c0.3,0.5,0,1,0.2,1.6c0.2-0.5,0.7,0.2,0.7,0.7c0.3-0.5,0.3,0.4,0.6,0.1
		c0.1,0.6-0.2,0.2-0.2,0.6c0.3,0.7,0.6,0,0.9,0.6c0.1-0.5,0.1-0.6,0.2-1.4c0.2,0.2,0.5-0.1,0.5-0.9c0.2,0.3-0.1,0.6,0.1,1
		c0.1,0.2,0.3-0.4,0.5,0.2c0.2-0.4,0.1-0.8,0.3-0.8c0.2,0.5-0.3,1-0.2,1.5c-0.1,0.5-0.2-1-0.4-0.2c0,0.7,0.4,0.7,0.7,0.2
		c0.2,0.3,0.1,0.6,0.2,1c0.3-0.5,0.8-1.1,0.9-0.4c0.1,0.2,0.1-0.3,0.1-0.5c0.2-0.1,0.4-0.3,0.6,0.5c0.1-0.6,0.2-0.2,0.4-0.7
		c-0.2,0.5-0.4-1.1-0.7-0.2c-0.1-0.8,0.1-1.1-0.3-1.6c0.3-1,0.4,0.1,0.5,0.2c0.2-0.7-0.2-0.6-0.2-1.3c-0.1,0.5-0.2,0.5-0.3,0
		c-0.1,0.6-0.3,0.2-0.3,0.8c0.2,0.4,0.3,0,0.2,0.8c-0.1,0.3-0.2-0.7-0.4-0.2c-0.1-0.6,0.2-0.8-0.1-1.1c0.1,1.1-0.2-0.1-0.4-0.1
		c0-0.2,0-1.1,0.2-0.8c-0.1,0-0.5-1.1-0.7-0.7c-0.2-1.4-0.5-0.5-0.7-1.8c-0.3,0.3-0.2,0.9-0.5,0.9c-0.1-0.3,0.1-0.5,0.2-0.8
		c-0.2-1-0.4-0.4-0.7-0.9c-0.1,0.4,0,0.6,0.1,0.6c-0.2,0.8-0.4,0-0.4,0.7c0-0.1-0.1-1-0.2-0.6c-0.1-0.6,0-0.4,0.2-0.8
		c-0.3-0.6-0.6,0.1-0.9-1c-0.1,1.6-0.4-0.8-0.6,0.6c0.1-1-0.2-0.4-0.3-1.1c0.2-0.1,0.4-0.3,0.6,0.5c0.2-1.3,0.7-0.2,1,0.6
		c0-0.5,0-0.9,0.3-1.4c-0.5,1.4-1.5-2.4-2,0.4c-0.3-0.2-0.7,0-1-0.6c-0.1,0.4,0,0.6,0.1,0.6l-0.3,0.9c-0.1,0.1-0.2-0.1-0.3-0.3
		c0.2-0.5,0.3,0.1,0.5-0.7c-0.2-0.4-0.3-0.4-0.5-0.8l-0.2,0.6c-0.1,0-0.2-0.1-0.3-0.2c-0.1-0.4,0-0.7,0.2-1.1
		c-0.4-0.3-0.2,1.5-0.6,0.9c0,0.3,0,0.5,0.1,0.8c-0.1,0.3-0.2,0.4-0.3,0.3c0.2-1.4-0.6-1.8-0.9-2.4c0.3-0.4,1.1,0.7,1.1-0.5
		c0.3,0,0.7,0.6,1,0.4c0-0.9-0.4-0.3-0.5-0.7c0.3-0.4,0.3,0,0.4-0.9c0.1,1.4,0.3,0.2,0.4,1.6c0.3-0.5,0.1-1.1,0.1-1.7
		c0.2-0.3,0.2,0.7,0.3,1c0.1-0.4,0.3-0.2,0.4-0.7c0.2,0.3,0.1,0.6,0.2,1c0.2-0.7,0.1,0,0.4,0.2c0.3-0.5,0.5,0,0.8-0.6
		c0.2,0.4,0,0.7,0,1.1c-0.3,0.2-0.7-0.6-0.7,0.7c0.1,0.1,0.3-0.5,0.4-0.6c0,0.2,0,0.4,0.1,0.6c0.2-0.7,0.3-0.7,0.5-0.1
		c0.3-0.5,0-1.2,0.3-1.7c0.1-0.1,0.1,0,0.2-0.1c0.2,0.4,0,0.8,0,1.3c0.1,0.8,0.3,0.1,0.4,0.7c0.1-0.2,0.1-0.4,0-0.6
		c0.3-0.4,0.6,1.1,1-0.2c0.6,0.6,1,0,1.5,1.1c0.2-0.8,0.4-0.2,0.5-0.3c0.1-0.8,0-0.9,0.2-1.4c-0.2-0.7-0.2-0.5-0.4-1.3
		c-0.1,0.8,0,0.6-0.2,1.2c-0.2,0.2-0.4-0.4-0.7,0.4c-0.1-0.6,0.2-1.1,0.3-1.7c-0.1-0.4-0.5,0.1-0.5-0.8c-0.4-0.3-0.7,0.8-1.1-0.4
		c0.2-0.5,0.4-0.1,0.7-0.6c-0.1-0.2-0.3,0-0.4-0.7c-0.1,0.7-0.1,0.7-0.2,0c-0.4,1.1-0.8-0.6-1.3-0.3c-0.2-0.3,0-0.6,0.1-0.9
		c-0.1-0.6-0.3,0-0.4-0.4c0.1,0.6,0.1,1.1,0.4,1.8c0,0.3,0,0.5-0.1,0.8c-0.1,0-0.3-0.1-0.4-0.2c-0.1-0.3,0.1-0.6-0.1-0.9
		c-0.1,0.2-0.1,0.5-0.2,0.8c-0.1,0.1-0.1-0.2-0.2,0c-0.1-0.7,0.1-0.4,0.1-0.9c0.2-0.4,0.3,0.6,0.5-0.1c-1.7-0.8-3.4-0.9-5.1-2.2
		c-0.1,1.3-0.7,0.6-0.8-0.4c-0.1,0.7,0.1,1.4,0,2c-0.3,0.3-0.3-1-0.6-0.5c-0.1-0.2,0.1-0.4,0.1-0.6c-0.3-0.2-0.6,0.5-0.8,0.1
		c0.3-1.7-0.7-1-1.1-2.3c-0.2,0.3,0,0.6,0.1,0.9c-0.4-0.1-0.3-0.2-0.7-0.7c-0.1,0.3,0.2,0.5,0.1,0.8c-0.1,0.1-0.2-0.1-0.3-0.3
		c0,0.3-0.1,0.6-0.2,0.9c-0.2,0.5-0.2-0.8-0.4,0c-0.1-0.3,0-0.6,0.1-0.9c-0.7-0.5-0.6-1-1.4-0.6c-0.1-0.3-0.1-0.5,0-0.8
		c-0.5,0.9-1,0-1.5,0.5c0-0.2-0.1-0.4,0-0.6c-0.2,0-0.4,0.4-0.6,1.1c-0.2-0.3-0.2-0.6,0-0.9c-0.7,0.3-1.4-1.5-2,0.2
		c-0.2-0.4,0-0.7-0.2-1.1c0.1-0.3,0.2,0.2,0.3-0.3c-0.5,0.2-1.1,1.1-1.8,0.4c-0.1,0.7,0.5,0.5,0.2,1.3c-0.3-0.7-0.6-1.2-0.8-1
		c-0.1,1,0.2,0.1,0.4,0.5c-0.2,0.7-0.4,0.3-0.6,0.4c0-0.5,0-1,0-1.6c-0.6,0.2-0.9,1.4-1.6,0.7c-0.1-0.2,0.1-0.4,0-0.6
		c-0.1-0.3-0.2-0.1-0.3-0.5c-0.2,0.6-0.1,0.6-0.3,0.9c0-0.3-0.1-0.6-0.3-0.9c-0.3,0.3-0.6,0.1-0.8,0.1c-0.1-0.4,0.1-0.5,0.2-0.3
		c-0.3-1-0.7,0.1-0.8,1.1c-0.3-0.4-0.1-0.8,0-1.2c-0.4,0-0.7,1.3-1.1,0.7c-0.1-0.2,0.1-0.9,0.2-0.3c-0.1-0.7-0.3-0.9-0.6-1
		c0.1,0,0.3-0.2,0.1-0.6c0.1-0.2,0.2,0.4,0.3-0.3c-0.2-0.6-0.4,0-0.6-0.3c0.1,0.4,0,1.2-0.2,0.8c-0.1,0.3,0.1,0.1,0.2,0.5
		c-0.2,0.3-0.4,0.4-0.6,1.2c-0.3-0.4,0.1-0.8-0.2-1.3c-0.1,0.5-0.4,0.5-0.4,1.2c-0.5-0.2-1.1-0.7-1.4-0.4c0,0.4,0.1,0.7-0.1,1.1
		c-0.2-0.9,0.1-1.4-0.4-1.6c0.1-0.6,0.3-0.2,0.4-0.3c-0.1-0.8-0.5,0.1-0.8-0.2c0,0.3,0.1,0.5,0,0.8c-0.2-0.3-0.3-0.1-0.5-0.9
		c-0.2,0.4,0,0.7-0.2,1.1c-0.2,0.1-0.4-1.4-0.6-0.2c-0.2-0.3-0.1-0.6-0.3-0.9c0.1-0.4,0.2-0.2,0.4-0.2c-1-1.6-2.2-0.1-3.3-0.5
		c0-0.4,0-0.8,0.1-1.2c-0.2-0.2-0.4,0.3-0.6-0.2c-0.1,0.4,0,0.7,0,1.1c-0.5,0-1.6-1.5-1.9,0.6c-0.2-0.7,0.2-0.6,0.1-1.1
		c-0.4,0-0.5,0-0.8-0.2c0,0.3,0,0.5,0,0.8c-0.3,0.3-1.1-1.5-1.2-0.2c-0.2-0.4-0.1-0.7-0.4-1.1c-0.2,0.2-0.3,0.9-0.5,0.1
		c-0.1,1.6-1-0.4-1.4,0.8c0-0.3-0.3-0.6-0.2-0.9c-0.3,0.3-0.5,0.9-0.9-0.1c-0.1,0.4-0.2,0.6-0.3,0.6c0-0.2-0.1-0.4-0.2-0.6
		c0,0.5-0.3,0.5-0.2,0c-0.1,0.5-0.5,0.4-0.8,0c0.1,0.7,0,0.7-0.2,0.8c-0.1-0.2,0-0.4,0-0.6c-0.3-0.2-0.6,0.1-0.9-0.1
		c0.2-0.8,0.3,0.1,0.3-0.8c-0.2-0.2-0.4-0.4-0.5-0.1c-0.1-0.3,0-0.5,0.1-0.8c0.2,0,0.5,1,0.7,0.1c-0.2,0.2-0.3-1-0.5-0.8
		c-0.1-0.7,0.1-0.8,0.3-0.9c0.1,0.4,0,0.7,0,1.1c0.3,0.4,0.3-0.4,0.3-0.8c0.2,0,0.4-0.3,0.6,0.3c-0.4-0.1-0.2,1-0.6,0.8
		c-0.1,0.6,0.4,0.3,0.1,0.9c-0.2,0.5,0-1-0.2-0.5c-0.2,0.7,0,0.4,0.2,0.9c-0.1,0.1-0.1,0.1-0.2,0c0.3,0.6,1-0.4,1.5,0.1
		c-0.2-0.9,0.2-0.2,0.1-0.9c-0.3,0-0.5,0.2-0.7,0.6c-0.4-2.1,0.7-1.4,0.9-2c0.5,0.8,0.2,1.6,0.5,2.3c-0.1-1,0.4,0.3,0.5-0.6
		c-0.2,0.2-0.7-0.2-0.6-1.1c0.4,1,0.3-0.6,0.8,0.1c0.3,0.5,0,0.9,0.3,1.4l0.2-0.8c-0.1-0.2-0.2-0.4-0.2-0.6c0.5-0.8,1-0.5,1.5-0.9
		c-0.2-0.7-0.4-0.2-0.6-0.5c0.3-0.5,0.8-0.9,1.1,0.3c-0.2-0.1-0.3,0-0.4,0.6c0,0.6,0.3,0.2,0.2,0.8c0.4-0.2,0.6-1.4,0.9,0
		c0.1-0.6,0.3-0.2,0.4-0.2c0-0.3,0.1-0.5,0-0.8c0.5,0.5,1.1-0.6,1.4,0.6c0.2-0.1,0.5-0.3,0.7-0.5c0,0.3,0,0.5,0,0.8
		c0.2,0.3,0.1-0.6,0.2-0.8c0.3,0.5,0.2,1,0.1,1.6c0.3,0.3,0.6-0.1,0.8,0.9c0-0.6-0.2-1.3,0-1.9c-0.4-0.5,0,1.4-0.5,0.6
		c-0.1-0.6-0.1-1,0.1-1.2c0.4-0.3,1,1.2,1.4,0.8c0.2,0.9-0.1,0.5-0.3,0.9c0.2,0.5,0.4-0.1,0.5-0.3c0-0.2-0.1-0.4-0.2-0.6
		c0.1-0.2,0.2,0.4,0.2-0.3c0.4,0.6,0.6-1,1,0.5c0-0.7,0.5-0.8,0.6,0c0.1-1.3,0.6-1.3,1-0.8c0.1-0.2,0-0.4,0.1-0.6
		c0.3,0.5,0.6,0.1,0.7,1.1l0.3-1.1c0.4,0.5,0,1,0.2,1.6c0.2-0.6,0.5-0.5,0.7-0.1c0-0.5,0.2-1,0.3-1.5c0.2,0.6-0.2,1.2,0.1,1.9
		c-0.1-1.5,0.7-1.4,1.1-0.7c0.3-0.3,0.2-1.2,0.5-0.9c0,0.6-0.2,1.2,0.2,0.9c0.1,0.5-0.1,0.9-0.2,1.4c0,0.2,0.1,0.1,0.1,0l0.1,0.3
		c0.2-0.4,0-0.8,0.2-1.2c0.3-0.5,0.3,0.8,0.6,1.3c0.2-0.6,0.4,0.3,0.6-0.1c-0.3-0.9-0.5-0.7-0.7-0.3c0-0.4-0.2-0.7-0.3-1.1
		c0.3,0.2,0.2-0.5,0.5,0.2c0.2-0.3-0.2-0.6,0.1-0.9c0.3,0.8,0.8,0.6,1.2,0.8c0.1-0.4-0.4-0.5-0.5-0.3c-0.1-1.2,0.4-1,0.7-0.8
		c0.2,0.8-0.4,0-0.2,0.6c0.3,0.8,0.2-0.6,0.5-0.1c-0.3,1.5,0.9-0.2,1.3,1.3c0.1-0.6,0.5-1,0.8-1.7c0,1.4,0.9,0.2,1-0.3
		c0.1,0.2,0.2,0.4,0.1,0.6c0.1-0.5,0.3,0.1,0.6-0.6c0.2,1.1,0.4,0,0.8-0.3c0.1,0.4,0,0.7,0.2,1.1c0.7-0.8,1.1,0,1.8-0.5
		c0.1,0.4,0,0.8,0.2,0.8c0-1.3,0.4-0.5,0.6,0.3c-0.2-1,0.2-1.6,0.5-1.2c0.1,0.8-0.4,0-0.3,0.8c0.1,0.3,0.2,0.2,0.3,0.5
		c0.1-0.4-0.1-0.8,0.1-0.8c0.1,0.3-0.1,0.5,0,0.8c0.4,0.4,0.5,0,0.4-0.6c0.3-0.2,0,1,0.3,0.8c0-0.8,0.2-1,0.4-1.2
		c0.1,0.9,0.2,0,0.4,0.8c0-0.7,0.3-0.6,0.5-0.3c0,0.4-0.1,0.2,0,0.8c0.1-1,1,0.2,0.8-1.4c0.2,0.5,0.4-0.9,0.6-0.4
		c0.2,0.7-0.2,0.5-0.3,1.2c0.2,0.3,0.4-0.1,0.6,0.2c0.1-2,0.9-1,1.1-1.3c0,0.6-0.3,0.8-0.4,1.1c-0.1-0.2-0.1-0.4,0-0.6
		c-0.3-0.4-0.2,0.5-0.4,0.6c0.4,0.2,0.5,0,0.8,1.3c0.2-0.3,0-0.7,0-1.1c0.4,1.2,1.7,0,2.2,0.5c0.1-0.1,0.5-0.6,0.3-1.1
		c0.3-0.7,0.6,0.7,0.6-0.6c0.2,0.4,0,0.8,0,1.3c-0.1,0.2-0.2-0.3-0.3-0.5c-0.2,0.6,0.1,1-0.2,1.2c0.3,0,0.3-0.4,0.7-0.9
		c0,0.2,0,0.4,0.1,0.6c0.2-0.5-0.1-0.4-0.1-1.1c0.2-0.3,0.3,0.3,0.5-0.4c-0.9-0.8-1.8-1-2.6-1.2c-0.3-0.3,0.1-0.6-0.1-0.9
		c-0.2,0-0.2,0.4-0.3,0.8c-0.2-0.6,0.1-1.2,0.3-1.9c0.5,0.1,1.1,1.5,1.7,0.6c0.2,0,0.4,0.6,0.5,0.5c-0.2-0.7-0.1-0.6,0.2-0.3
		c0.2-0.3,0-0.6,0.1-0.9c0.4,1.2,0.5,0.3,0.9,0.4c0.2,0.3,0,0.6,0.2,1c0-0.7,0.2-1.1,0.4-0.7c0.2,0.3-0.3,0.6,0,0.9
		c0.1-0.3,0.2-0.2,0.2,0c0-0.3,0.1-0.5,0.2-0.8c0.5,0.4,0.7,0.5,1.1,1.4c0.1-1.3,0.4,0.4,0.6-0.4c0.1,0.6-0.2,0.2-0.3,0.8
		c0.2,0,0.4-0.2,0.6,0.2c0.1-0.1,0.2-1,0.3-0.6c-0.1-0.8,0-0.7,0.3-1.4c-0.4,0.1-0.6-0.9-1-0.2c-0.2-0.7,0.1-0.5-0.1-1.1
		c-0.2,0.4-0.3,0.9-0.2,1.4c-0.1,0.2-0.3,0-0.4,0.4c0-1-0.4-0.5-0.6-0.4c-0.1-0.7,0.2-0.6,0.3-1.4c-0.2-0.2-0.2,0.1-0.4,0.6
		c-0.1-0.3-0.2-0.9-0.6-1c0,0.4-0.2,0.8-0.3,1.2c-0.1-0.5,0-1-0.2-1.6c-0.2,0.5-0.3-0.1-0.5,0c0.1-0.4-0.1-0.7-0.1-1.1
		c-0.6,0.3-1.2-0.1-1.9-0.5c-0.3,1-0.7-0.4-1,0.2c-0.6-1.7-1.5,0.9-1.9-1.2c-0.1,0.6-0.2,0.2-0.3,0.6c-0.2-0.6-0.3-0.6-0.5-1
		c0.2-0.4,0.4,0.3,0.5-0.8c-0.1,0.8,0.2,0.4,0.4,0.6c0.1-0.7-0.1-0.5-0.2-0.6c0.3-0.7,0.5-0.3,0.8-0.3c0.1,0.3-0.3,0.5-0.4,0.3
		c0.1,0.8,0.7,0,1,0.2c-0.1-0.6-0.3,0.1-0.4-0.5c0.5,0.2,0.7-0.5,1.2-0.7c0.2,0.4-0.4,0.7,0,1.1l0.2-0.6c0.5,0.7,1.1,0.2,1.5-0.3
		c-0.3,0.9,0.2,0.6,0.5,0.8c0-0.4,0.2-0.8-0.1-0.8c0.4-1.2,0.5,0.7,0.8-0.2c0.2,0.5,0.1,0.9,0.1,1.4c0.2,0.2,0.4-0.8,0.4-1.1
		c0.2-0.4,0.7,1.1,0.8-0.1c0.1,0,0.5,0.5,0.4,0.8c0.2-0.7,0.9-0.9,1.4-0.2c-0.3,0.3-0.3,0.2-0.5,1c0.2,0.4,0.4,0.6,0.6,1
		c0.2-0.2-0.2-1.1,0.1-0.8c0.1-0.8-0.3,0-0.3,0c0-1,0.6-1.7,0.9-0.5c0.4,0.1,0.8-1.9,1.2-0.8l0.2-0.6c0.2,0.3,0,0.6,0,0.9
		c0.2,0.3,0.5-0.9,0.7-0.2c0.1,0.6-0.2,0.4-0.3,0.7c0.7-0.4,1.3-0.9,1.7,0.3c0.2,0,0.4,0.1,0.6-0.6c-0.1-0.3-0.2-0.5,0-0.8
		c0.2,0.8,0.9-0.2,1.3,0.8c-0.1,0.3-0.2,0.6-0.3,0.5c0.2,0.4,0.7,0.5,0.9,0.6c0.3-0.8-0.2,0-0.3-0.8c0.2-0.5,0.4,0,0.6-0.6
		c0-0.3,0-0.5,0.1-0.8c-0.1-0.5-0.2-0.1-0.2-0.7c0.1,0,0.2-0.1,0.2-0.3c0.3,1.2,0.4,0.9,0.7,1.5c-0.2,0.7-0.4-0.5-0.6,0.3
		c0.1,0.6,0.3,0.2,0.4,0.8c-0.1-0.6,0.5-1.1,0.7-1c0,0.2-0.1,0.4-0.1,0.6c0.1,0.8,0.3,0.1,0.4,0.7c0.1-0.3-0.1-0.6-0.1-1
		c0.4-0.5,0.8,0.3,1.2,0C405.1,64.6,404.7,65.6,404.6,65.1z M365.4,43.8c0.5,1.2,0.6,1.1,1.1,1.6c-0.2,0.6-0.5,1.2-1,1.1
		c-0.1-0.4,0.3-0.7,0-1.1c-0.3,0.5-0.1,0.9-0.2,1.4c-0.1-0.3-0.2-0.2-0.3-0.5C365.1,45.1,365.3,44.9,365.4,43.8z M311.4,51.2
		c0.3,0.5,0.3,1.1,0.5,1.7c0.1-0.8,0.4-1.1,0.5-0.2c-0.3,0.3-0.8,1-1.2-0.2C311.8,52.9,311.3,51.7,311.4,51.2z M334.7,103.5
		c0,1.2-0.3,0-0.4,0c0.3,0.8,0.1,1.4,0.1,1.9c-0.4-0.7,0.1-1.3-0.3-2c0,0.3,0,0.5,0,0.8c-0.1,0-0.5-0.5-0.5-0.9
		c0.4,0.5,1.1-2.4,1.2-0.1c0.2,0,0.6-0.7,0.8,0.3C335.5,104,334.9,104.2,334.7,103.5z M345.8,90.8c0.4,0.3,1.1-0.9,1.3,0.8
		C346.6,90.8,346,91.8,345.8,90.8z M346.8,103.4c0-0.3,0.1-0.8,0-1.4c-0.1,0.3-0.3,0-0.4-0.4c0.2-0.4,0.4-1.4,0.7-0.8
		C346.8,101.5,347.4,104.1,346.8,103.4z M351.6,92.8c-0.6-1.7-1.1-0.3-1.7-0.9c0.3-0.5,0.9-0.5,1.3-0.6c-0.1-0.4-0.3-0.7-0.2-1.1
		c0.2,1.3,0.3,0.3,0.7,0.9C351.6,91.7,351.4,91.7,351.6,92.8z M370.5,101.8c-0.3-0.1-1.1,0.9-1.2-0.8
		C369.7,102.1,370.2,100.7,370.5,101.8z M390.2,96.2c-0.1-0.3-0.1-0.5-0.1-0.8c0.3,0,0.4,0.3,0.3,0.8c0.2-0.2,1-0.6,1.2,0.9
		c-0.3-0.5-0.2,0.1-0.4,0c0,0.4-0.1,0.7-0.2,1.1c-0.1,0.1-0.3,0.1-0.4,0c-0.1-0.5,0-0.9,0-1.4c-0.2,1.1-0.5,0.7-0.7,0.9
		c-0.2-1.1-0.4-1-0.8-1.5C389.3,95.3,389.9,96,390.2,96.2z M384.4,92.8c0.4-0.9,0.2-2.7,0.7-2.1c-0.3,0.5-0.6,2.4-0.1,3
		c0,0.6-0.2,0.4-0.3,0.6c-0.1-0.9-0.4-0.3-0.7-0.7c0.2-0.9-0.2,0-0.3-1C383.9,92.3,384.2,93,384.4,92.8z M369.5,90.9
		c0,1.5-0.7,0.8-1.1,0.3C368.8,90.6,369.2,90.7,369.5,90.9z M357.2,91.3c-0.1,0.1-0.2,0.1-0.3-0.1c0.3-0.8,0.7,1.1,1,1.4l0.2-0.8
		c0.5,0.9,0.9,0.7,1.3,0.5c0-0.8,0.1-1.4,0.2-1.5c0.1,1.2,0.2-0.4,0.5,0.3c-0.3,0.8-0.5,1.3-0.6,2.3c-0.5-1.4-1,0.2-1.4,0.3
		c0-0.3,0.3-0.6,0.1-0.9c-0.2,0.4-0.4,0.3-0.5,0.8c0.1,0.2,0.2,0.1,0.2,0.5c-0.3-0.5-0.6,0.5-0.8-0.5c0.3,0.4,0.6-0.8,0.3-1.6
		c0.1,1.1-0.7,0.5-0.8,0C356.8,91.9,357.5,92.4,357.2,91.3z M384.2,71.9l-0.3-0.8c-0.2,0.1-0.4,1-0.7,0.3c0.1-1,0.6-1.1,0.9-0.9
		c-0.1-0.2,0-0.3,0.1-0.3c-0.2-0.1-0.4-0.7-0.6-0.7c-0.3,0.9-0.5,1.5-0.9,0.7c0.5,0,0.3-0.7,0.5-1.1c0,0.8,0.2,0.3,0.4-0.3
		c0.1,0.1,0.2,0.2,0.2,0.6c0.4-0.7,0.8,0.4,1.2-0.4c0.2,0.4,0,1.4,0.3,0.5c0.2,0.5,0.2,1.7-0.1,1.2c0.1-0.2,0.1-0.4,0-0.6
		C385.3,72,384.6,71.4,384.2,71.9z M386.5,70.6c0.3-0.2,0.9-0.9,1-0.1c0-0.1-0.4,0-0.2,0.3c0.2-0.2,0.4-0.1,0.6,0.3
		c-0.2,0.6-0.3,0.1-0.5-0.3c-0.2,0.5-0.5,0.2-0.5,1.1c-0.4-0.7-0.8,0.8-1-0.7c0,0.9-0.4,0.9-0.6,0.4c0.5-0.2,0.4-1.3,0.9-2
		C386.4,71,386.4,69.5,386.5,70.6z"/>
</g>
<g>
	<g>
		<path class="st1" d="M532.2,79.2c1.4-1.8,3.7-4.4,3.6-6.9c-0.1-2.8-2.7-5.8-4.7-7.7c-4.5-4.3-12.3-2-16.4,1.8
			c-1.9,2-3.6,4-3.3,6.9c0.3,2.6,2.3,8,4.6,9.5c1.9,1.3,6.6,1.1,8.8,1C528.3,83.8,530.2,81.7,532.2,79.2z M527,65.1
			c-0.9,1.1-1.7,2.1-2.6,3.2c-0.9,1.1-2,2-2.9,3c-0.7-0.1-1.5,0-2.3,0.1c-1.6,0.1-3.2,0.2-4.8,0.3c0.3-1.3,1-2.5,2.1-3.6
			C519.1,65.7,523.4,64.1,527,65.1z M521,81.3c-3.7-0.7-6.4-3.8-6.7-7.2c2.1-0.3,6.4-1.2,7.8,0.3c1.7,1.8,2.3,4.6,3.7,6.6
			C524.3,81.5,522.8,81.6,521,81.3z M527.9,79.9C527.9,79.9,527.9,79.9,527.9,79.9c-1.6-2.3-2.4-5.3-4.2-7.4
			c0.8-0.9,1.7-1.7,2.5-2.6c1-1.3,2-2.6,3.1-3.8c0,0,0,0,0,0c0.1,0.1,0.2,0.1,0.3,0.2c1.2,0.9,3.7,3.9,3.9,5.6
			c0.2,1.6-1.3,3.4-2.1,4.5C530.3,77.9,529.1,79.1,527.9,79.9z"/>
		<path class="st1" d="M545.5,89.9c-4.5-2.1-12.3-2.5-15.5,2c-1.6,2.2-3.4,6.4-2.9,9.2c0.5,2.8,3.4,4.5,5.6,6
			c2.7,1.8,5.2,3.3,8.4,2.4c2.2-0.6,6.6-1.7,8.1-3.6c1.7-2.2,2.1-8,1.5-10.6C550.1,92.6,547.9,91.2,545.5,89.9z M544.3,92
			c1.2,0.6,2.2,1.7,2.9,2.9c-1.4,0.3-2.8,0.7-4.3,1c-0.9,0.2-1.8,0.3-2.5,0.7c-1.2-0.7-2.5-1.3-3.6-2c-1.2-0.8-2.3-1.6-3.5-2.3
			C536.5,90.3,541.3,90.5,544.3,92z M529.4,100.8c-0.3-1.8,1.1-5.4,2.2-6.9c0,0,0,0.1,0.1,0.1c1.4,0.9,2.7,1.8,4,2.7
			c1,0.7,2.2,1.2,3.2,1.8c-1.1,2.5-0.9,5.6-1.8,8.2c0,0,0,0.1,0,0.1c-1.1-0.3-2.2-0.8-3.2-1.5C532.6,104.3,529.7,102.6,529.4,100.8z
			 M545.4,105.4c-1.9,1.3-4,1.8-6,1.7c0.8-2.4,0.6-5.2,1.6-7.5c0.6-1.2,1.9-1.2,3.1-1.5c1.3-0.3,2.7-0.7,4-1
			C548.9,100.1,548.2,103.5,545.4,105.4z"/>
		<path class="st1" d="M542.8,70.6c2.2,0.3,4.3-1.3,4.7-3.5c0.4-2.3-0.9-3.8-2.9-4.6c-0.2-0.1-0.4-0.1-0.6-0.1
			c-2.2-0.1-4.6,0.9-5.1,3.3C538.4,68.1,540.6,70.3,542.8,70.6z M541.3,66.1c0.4-1.1,1.7-1.3,2.7-1.2c0.8,0.3,1.3,0.9,1.1,1.8
			c-0.2,1-1,1.7-2,1.6C542.1,68.1,540.9,67.1,541.3,66.1z"/>
		<path class="st1" d="M551,75.5c-0.2-0.1-0.4-0.1-0.6-0.1c-2.2-0.1-4.6,0.9-5.1,3.3c-0.5,2.3,1.7,4.5,3.9,4.8
			c2.2,0.3,4.3-1.3,4.7-3.5C554.3,77.8,553,76.3,551,75.5z M551.6,79.6c-0.2,1-1,1.7-2,1.6c-1-0.1-2.1-1.2-1.8-2.2
			c0.4-1.1,1.7-1.3,2.7-1.2C551.2,78.1,551.7,78.6,551.6,79.6z"/>
		<path class="st1" d="M520.3,92.8c-0.2-0.1-0.4-0.1-0.6-0.1c-2.2-0.1-4.6,0.9-5.1,3.3c-0.5,2.3,1.7,4.5,3.9,4.8
			c2.2,0.3,4.3-1.3,4.7-3.5C523.6,95.1,522.3,93.6,520.3,92.8z M520.9,96.9c-0.2,1-1,1.7-2,1.6c-1-0.1-2.1-1.2-1.8-2.2
			c0.4-1.1,1.7-1.3,2.7-1.2C520.6,95.4,521.1,95.9,520.9,96.9z"/>
		<path class="st1" d="M564.5,33.4c0.4,0.4,1.3,0.5,1.7,0c1.4-1.7,2.8-3.3,4.1-5.1c0.3-0.4,0.1-1.1-0.2-1.4
			c-3.8-4.5-15.2-20.8-20.2-8.6c-1.7,4.2-2.4,9-3.6,13.4c-0.5,2-1,3.9-1.5,5.9c-14.1,0-28.2-0.4-42.2-0.4c-0.2,0-0.4,0-0.5,0.1
			c-0.4,0.1-0.7,0.5-0.7,1.1c1.6,17.7,3.7,35.4,6.5,53c0.7,4.6,1.5,9.2,2.4,13.8c0.5,2.4,0.4,6.5,2.1,8.4c1.3,1.4,3.6,1.2,5.4,1.2
			c4.7,0.1,9.4,0.3,14.1,0.3c4.1,0,8.3-0.1,12.4-0.1c2.3,0,6.2,0.5,8.4-0.6c4.6-2.4,4.1-11.5,4.8-15.9c3.1-19.9,6.3-39.7,9.4-59.6
			c0.1-0.7-0.3-1.5-1.1-1.5c-3.9,0.1-7.9,0.2-11.8,0.2c1-3.8,2.1-7.6,3.3-11.4C559.6,28.5,562,31,564.5,33.4z M542.8,55.8
			c1.2-5.3,2.5-10.6,3.8-15.8c1.4,0,2.8,0,4.3,0c-1.3,5.3-2.5,10.7-3.8,16C545.6,55.9,544.2,55.9,542.8,55.8z M540.4,55.5
			c-3.1-0.4-6.2-0.9-9.4-1.5c-9-1.6-16.9-1.9-25.7,0.6c-0.5-5-1.1-10.1-1.5-15.1c13.4,0,26.9,0.4,40.3,0.4
			C542.8,45.1,541.5,50.3,540.4,55.5z M556.9,86.3c-0.6,3.8-1.2,7.6-1.8,11.5c-0.6,3.5-0.5,8.1-1.8,11.5c-1.6,4.1-5.3,3.3-9,3.4
			c-3.8,0-7.6,0.1-11.4,0.1c-3.6,0-7.2,0-10.7-0.1c-1.7,0-3.9,0.3-5.6-0.2c-3.3-1-3-2.1-3.5-4.7c-1.4-7.4-2.7-14.8-3.8-22.3
			c-1.4-9.4-2.6-18.9-3.7-28.3c11.7-3.4,21.7-0.8,33.4,0.9c7.7,1.1,15.5,0.6,22.7-2.2C560.2,65.9,558.5,76.1,556.9,86.3z
			 M564.3,39.7c-0.7,4.4-1.4,8.9-2.1,13.3c-4.2,1.9-8.4,2.7-12.7,2.9c1.3-5.3,2.5-10.7,3.8-16C557,39.9,560.6,39.8,564.3,39.7z
			 M551.5,37.6c-1.4,0-2.8,0-4.3,0c0.4-1.5,0.8-3,1.2-4.5c1.1-4.3,1.6-10.5,3.9-14.3c3-5.1,6.5-0.7,9.1,2c1.3,1.4,6.3,5.6,6.2,7.3
			c-0.1,0.9-2,2-2.4,2.9c-0.1-0.1-0.1-0.2-0.2-0.3c-1.7-2.8-5.2-5.2-7.5-7.5c-0.7-0.7-1.7-0.3-2,0.5C554,28.2,552.7,32.9,551.5,37.6
			z"/>
		<path class="st1" d="M506.5,47.2c0.3,1.4,0.6,2.9,0.8,4.4c0.3,1.5,2.5,0.9,2.3-0.6c-0.3-1.6-0.5-3.3-0.9-4.9
			c-0.1-0.2-0.3-0.8-0.3-1.1c0-0.1-0.1-0.1-0.1-0.2c0.2,0,0.4,0,0.7-0.1c0.9,0,1.8,0,2.8,0.1c1.5,0.2,1.5-2.2,0-2.4
			c-1.7-0.2-5.2-0.7-5.7,1.6C505.8,45.2,506.3,46.3,506.5,47.2z"/>
		<path class="st1" d="M515.4,45.2c1.5,0,1.5-2.4,0-2.4C513.9,42.9,513.9,45.2,515.4,45.2z"/>
	</g>
	<g>
		<path class="st1" d="M109.8,725C109.8,725,109.7,725,109.8,725c-0.1-0.1-0.1-0.2-0.2-0.2c-2.6-2.7-9.7-2.3-13-2.5
			c-9.6-0.7-19.3-0.8-29-0.7c-9.5,0.1-19.1,0.3-28.6,1.1c-3.3,0.3-11.1,0-13.5,2.8c-1.1,1.3-0.8,3.5-0.7,5c0.1,4.3,0.6,8.6,1,12.8
			c1.3,12.7,3.1,25.3,4.9,37.9c0.8,5.9,1.7,11.7,2.6,17.6c0.9,6,2.5,6.6,8.4,7.2c9.8,1,19.7,1.2,29.5,1.1c4.6-0.1,9.1-0.3,13.7-0.5
			c4-0.2,9.8,0.5,13.6-0.9c5.6-2,5.9-12.9,6.8-17.8c1.7-10,2.3-20.2,3.4-30.4c0.7-6.6,1.5-13.1,1.8-19.6
			C110.7,734.7,112,728,109.8,725z M108.2,738c-0.2,4.3-0.6,8.6-1.1,12.9c-0.8,7.5-1.5,14.9-2.2,22.4c-0.8,8.1-1.1,18.3-4.4,25.9
			c-2.3,5.3-5.7,4.5-11,4.8c-4.2,0.2-8.3,0.4-12.5,0.6c-8.4,0.3-16.7,0.3-25.1-0.1c-3.8-0.2-7.5-0.5-11.3-0.9
			c-4.5-0.5-4.5-2.2-5.1-5.9c-0.8-5.1-1.5-10.3-2.3-15.4c-1.7-11.6-3.2-23.2-4.6-34.8c-0.5-4-0.9-8-1.2-12.1
			c-0.1-1.6-1.2-6.5-0.2-7.9c1.6-2.5,10-2.2,12.7-2.4c7.8-0.6,15.6-0.9,23.4-1c9.3-0.1,18.6-0.1,27.9,0.3c3.6,0.2,7.3,0.4,10.9,0.8
			c1.3,0.2,4.5,0.2,5.6,1.2C109.5,728.9,108.3,735.4,108.2,738z"/>
		<path class="st1" d="M63.3,754c-5.5-6-15.1-3.2-20.3,1.9c-2.7,2.9-4.5,5.6-3.8,9.7c0.6,3.2,2.5,8.8,4.9,11c2.3,2.2,8.1,2,11.1,1.8
			c4.1-0.2,6.2-2.7,8.6-5.8c1.8-2.4,4.8-5.9,4.7-9.2C68.5,760.1,65.5,756.4,63.3,754z M58.4,753.8c-1.3,1.7-2.5,3.4-3.8,5
			c-1.1,1.4-2.4,2.5-3.4,3.9c-0.8-0.1-1.6,0-2.7,0c-2.1,0.2-4.3,0.2-6.4,0.5c0.3-2.1,1.2-4,2.5-5.5
			C48.1,754.3,53.8,752.1,58.4,753.8z M49.5,775.8c-4.9-0.9-7.4-5.6-7.6-10.3c2.8-0.3,8.3-1.6,10.1,0.7c2,2.6,2.8,6,4.6,8.7
			c0.1,0.1,0.1,0.1,0.2,0.2C54.7,776.1,52.4,776.4,49.5,775.8z M63.3,769.4c-1.4,2-2.8,3.6-4.5,4.7c0-0.1-0.1-0.2-0.1-0.3
			c-2-3-2.9-6.9-5.2-9.7c-0.1-0.1-0.1-0.1-0.2-0.2c1.1-1.3,2.4-2.5,3.5-3.9c1.3-1.7,2.5-3.4,3.8-5.1c0.4,0.3,0.7,0.5,1,0.9
			c1.5,1.5,4.2,5,4.5,7.2C66.4,765.2,64.5,767.6,63.3,769.4z"/>
		<path class="st1" d="M90.5,766.1c-5.7-2.9-15.5-3.1-19.2,3.1c-1.9,3.1-4,8.4-3.2,12c0.7,3.1,4.2,5.3,6.5,7
			c3.2,2.4,6.3,4.4,10.3,3.2c2.8-0.8,8.1-2.3,9.9-4.7c2-2.6,2.4-10.5,1.8-13.5C96,769.7,93.5,767.8,90.5,766.1z M89.3,768.2
			c2.1,1.2,3.5,2.6,4.3,4.4c0,0,0,0,0,0c-2.2,0.5-4.4,1.2-6.7,1.7c-0.9,0.2-1.9,0.3-2.8,0.6c-1.4-0.9-2.9-1.6-4.3-2.6
			c-1.6-1.1-3.1-2.3-4.7-3.4C79,765.9,85,766,89.3,768.2z M70.4,780.2c-0.3-2.2,1.2-6.5,2.2-8.3c0.2-0.4,0.5-0.9,0.8-1.2
			c0,0,0.1,0.1,0.1,0.1c1.7,1.2,3.3,2.4,5,3.6c1.3,0.9,2.7,1.5,4,2.3c-0.4,1.5-0.6,3.5-0.8,5c-0.4,2.1-0.6,4.3-1.3,6.3
			c-0.1,0.3-0.1,0.5,0,0.7c-1.3-0.4-2.6-1.1-3.9-2C74.5,785.3,70.8,782.9,70.4,780.2z M93.2,784.7c-1.1,1.8-5.4,3.4-7.5,4
			c-1.2,0.3-2.2,0.4-3.2,0.3c0.1-0.1,0.2-0.3,0.2-0.4c1-3.3,1.7-7.1,2.1-10.5c0.2-1.2-0.2-0.8,0.9-1.1c0.7-0.3,1.6-0.4,2.3-0.5
			c2-0.5,4-1.1,6.1-1.6c0,0,0,0,0.1,0c0.1,0.6,0.2,1.3,0.2,2.1C94.5,778.9,94.3,783,93.2,784.7z"/>
		<path class="st1" d="M33.4,742.3c-0.3-1.9-0.7-3.7-1-5.6c-0.4-2.3-1.3-5.6,2.2-5.4c1.5,0.1,1.5-2.3,0-2.4c-7.8-0.3-4.3,9.6-3.5,14
			C31.3,744.4,33.6,743.8,33.4,742.3z"/>
		<path class="st1" d="M39,731c1.5,0,1.5-2.4,0-2.4C37.5,728.6,37.5,731,39,731z"/>
		<path class="st1" d="M96.8,747c-7.2,1-13.7,1.7-21,0.5c-7.4-1.2-14.8-3.3-22.4-3.5c-4.5-0.1-9.1,0.3-13.6,0.8
			c-2.1,0.3-5.5,0.1-7.1,1.6c-1.9,1.8-0.9,4.6-0.6,6.8c0.6,4.8,0.9,9.5,1.4,14.3c1,9.4,3.2,18.6,4.9,27.9c0.1,0.6,0.6,0.9,1,0.8
			c0,0,0.1,0,0.1,0c19.4,0.9,38.9,0.8,58.3,0.2c0.5,0,1.1-0.4,1.1-0.9c2.5-13.7,3.8-27.9,5.2-41.8C105,747,103.8,746,96.8,747z
			 M101.9,754c-0.6,6.1-1.5,12.2-2.3,18.4c-0.5,4.7-1,9.4-1.6,14.1c-0.1,1.2-0.5,7.4-1.2,7.8c-0.8,0.5-3.3,0-4.3,0
			c-17.4-0.1-34.6,0.6-52-0.2c-2.1-11.6-4.3-22.9-5.4-34.7c-0.2-2.2-1.3-5.9-0.9-8c0.9-4.5,4-4,7.5-4.3c4.9-0.5,9.8-0.9,14.7-0.4
			c8.4,0.8,16.6,3.4,25,4c3.7,0.2,7.3,0.1,10.9-0.5c1.9-0.3,3.9-0.9,5.8-0.9C102.1,749.1,102.2,750.8,101.9,754z"/>
	</g>
	<g>
		<path class="st1" d="M96.2,18.5c-6.9-3.7-15.9-2-19.6,5.1c0,0,0,0,0,0c-16.7-0.5-33.5,0.2-50,0.7c-0.7,0-1.2,0.5-1.2,1.2
			c-0.2,4.9-0.8,9.4,3.4,12.8c4.5,3.7,11.2,4.1,14.2,9.4c3.6,6.5,4,14.8,11.9,16.9c0.1,6.9,0.1,13.8,0,20.7c-3.8,0-21.3,0-20.4,7.1
			c0.7,5.6,15.8,5.5,19.6,5.7c6,0.3,12.1-0.1,18.1-1.1c2.4-0.4,9.1-1.5,9.9-4.6c1.8-6.9-16.1-7.2-20.3-7.3c0.1-6.9,0.1-13.7,0-20.6
			c1.7-0.5,3.4-1.3,4.8-2.5c5.4-4.5,4-12.3,8.8-17.1c3.8-3.8,10.5-4.3,14.1-8.4c0.7-0.9,1.2-2,1.5-3.2c3.1,1.2,6.3,2,9.4,3.2
			c0.6,0.2,1.3-0.3,1.5-0.8C103.1,29.1,102.8,22,96.2,18.5z M39.5,26c16.3-0.5,33.2-0.6,49.5,0.7c0,0.6,0.1,1.1,0,1.7
			c-9.8-1-19.9-0.1-29.7-0.5c-10.6-0.5-21.2,0.2-31.8,0.3c0.1-0.7,0.3-1.3,0.7-1.5C30,25.2,37,26.1,39.5,26z M59.2,90.2
			c0,1.5,2.3,1.5,2.4,0c0-0.9,0-1.9,0-2.8c4,0.1,8,0.3,11.9,1.2c1,0.2,4,0.6,4.6,1.5c1.9,2.6-1.9,3.4-3.5,3.9
			c-6.4,1.9-14,2-20.6,1.6c-4.2-0.2-11.2-0.1-15-2.3c-4-2.4,1.4-4,3.9-4.6c3.9-0.9,7.8-1.1,11.8-1.2c0,0.9,0,1.8,0,2.7
			c0,1.5,2.3,1.5,2.4,0c0.2-8.5,0.2-16.9,0.1-25.3c0.7,0.1,1.4,0.1,2.1,0C59.4,73.3,59.4,81.8,59.2,90.2z M78.4,40
			c-6.5,3.4-7.6,7.2-9.8,14c-2.1,6.5-8.8,10.8-15.2,7.5c-5.7-2.9-5.6-10-8.4-15.1c-3-5.3-7.2-5.5-12.3-8.5c-2.1-1.2-4.2-2.8-4.9-5.3
			c-0.1-0.5-0.2-1.2-0.3-2.1c10.6-0.1,21.2-0.7,31.9-0.3c9.8,0.4,19.8-0.5,29.6,0.5c-0.3,1.9-0.9,3.6-2.1,4.8
			C84.5,37.5,81,38.6,78.4,40z M91.3,25.6c0-0.3-0.1-0.5-0.3-0.6c0-0.1-0.1-0.1-0.2-0.2c0,0,0,0,0,0c-0.2-0.2-0.4-0.3-0.7-0.3
			c-3.6-0.3-7.2-0.5-10.8-0.6c3.7-5.4,11.8-6.4,17.1-2.3c4,3.1,4,7.8,3.2,12.3c-2.8-1-5.6-1.8-8.4-2.9C91.5,29,91.4,27.1,91.3,25.6z
			"/>
		<path class="st1" d="M53.8,54.5c-2.1-1.1-2.5-3.8-3.3-5.9c-0.6-1.4-2.9-0.8-2.3,0.6c1.1,2.7,1.6,5.8,4.4,7.3
			C53.9,57.3,55.1,55.2,53.8,54.5z"/>
		<path class="st1" d="M55.8,55.4c-1.5,0-1.5,2.4,0,2.4C57.3,57.8,57.3,55.4,55.8,55.4z"/>
	</g>
	<g>
		<path class="st2" d="M498.7,712.5c-0.3,0.7,0,1.3,0.5,1.6c0.4,0.4,1,0.6,1.6,0.1c3.4-2.6,6.9-6.5,6.4-11.1
			c-0.4-4.7-12.7-14.8-4.1-18.1c1.5-0.6,1.4-2.9-0.4-2.9c-5.8,0-11.8,2-12.1,8.6C490.1,699.6,502.7,702.8,498.7,712.5z M496.5,697.1
			c-4.2-4.9-3-9.2,1.1-11c-0.7,1.5-0.8,3.3-0.2,5.4c0.6,2.2,2,4.2,3.4,6c3.1,4,4,7.7,1.7,11.1c0-2.1-0.5-4.2-1.5-6
			C499.8,700.4,498.1,698.9,496.5,697.1z"/>
		<path class="st2" d="M518.5,711.8c-0.3,0.7,0,1.3,0.5,1.6c0.4,0.4,1,0.6,1.6,0.1c4.1-3.1,8.2-7.7,7.6-13.2
			c-0.6-5.9-15.8-18-4.8-22.3c1.5-0.6,1.4-2.9-0.4-2.9c-6.9,0-13.9,2.3-14.4,10.2C508,696,523.4,699.8,518.5,711.8z M515.3,693.2
			c-5.5-6.5-3.5-12,2.2-14.2c-1.2,1.8-1.4,4.2-0.6,7.1c0.7,2.6,2.4,5,4,7.1c4,5.3,5.1,10.2,1.5,14.7c0.2-2.8-0.4-5.7-1.7-8.1
			C519.2,697.1,517.2,695.4,515.3,693.2z"/>
		<path class="st2" d="M566.5,756.2c-0.1-7.3-0.4-18.4-4.8-24.5c-3.5-4.8-9.7-4.7-15-4.1c-0.1-4.3-1.3-8-6.6-8.7c-0.1,0-0.1,0-0.1,0
			c-0.1,0-0.2-0.1-0.3-0.1c-14.4-0.6-28.9-0.7-43.4-0.4c-1.1,0-2.2,0-3.4,0c0-0.1,0-0.1,0-0.2c0-1.9-3-1.9-3,0c0,0,0,0.1,0,0.1
			c-4.3-0.1-8.7-0.1-12.5,0.7c-2.7,0.6-4.5,2.1-5.3,4.9c-1.6,5.2-0.2,12.7-0.2,18.1c0,6.6,0.1,13.2,0.2,19.7
			c0.1,8.6-1.5,19.2,2.7,27.1c3.8,7.2,9.7,10.6,17.7,10.6c10.8,0,21.5,0.2,32.3,0.2c8,0,12.6-2.5,17.3-9.2c1.8-2.6,2.9-5.1,3.6-7.7
			c0.1,0,0.2,0.1,0.3,0.1c5.7,0.3,12.2-1.1,16.1-5.6C566.7,771.8,566.5,762.8,566.5,756.2z M546.7,744.8c6.1,0,6.4,6,6.6,11.4
			c0.2,5.1,0.5,11.7-6.3,11.8C547,760.3,546.9,752.5,546.7,744.8z M543.8,774.7c-0.4,9.5-5.4,21.1-16.3,22
			c-9.7,0.8-19.8-0.1-29.6-0.2c-4.7,0-10.2,0.7-14.4-2c-5.4-3.5-7.9-9.4-8.2-15.5c-0.6-11.4-0.4-22.9-0.4-34.4c0-2.6,0-5.3,0-7.9
			c0-3.1-1.1-9.2,0.1-12c1.4-3.1,8.8-3.5,15-3.5c0.1,6.5,0.4,12.9,0.4,19.4c-2.8,1.7-5.5,5.6-7.7,8c-0.3,0.2-0.6,0.5-0.6,1
			c-0.5,3.6-0.3,7.3-0.3,10.9c0,2.9-0.7,7,0.3,9.7c0.2,0.7,0.7,1,1.4,1.1c2.9,0.3,6,0,8.9,0c2.5,0,5.7,0.4,8.2-0.3
			c0.7-0.2,1-0.8,1.1-1.4c0.6-5.4,0.9-11.9,0.3-17.4c-0.2-1.9-0.5-2.4-1.9-3.9c-2.1-2.3-4.3-5.1-6.8-7.1c0,0,0,0,0,0
			c0-6.6-0.3-13.2-0.4-19.8c2,0.1,3.7,0.1,4.7,0.1c13.9-0.3,27.9-0.1,41.8,0.4c5.5,1,3.9,8.3,4,12.2c0.1,4.3,0.2,8.7,0.3,13
			C544,756.2,544.2,765.5,543.8,774.7z M498.7,769.3c0-0.2,0-0.4,0-0.5C498.7,769,498.7,769.1,498.7,769.3z M498.9,764.1
			c0,0.9-0.4,2.8-0.2,3.8c-2.1-0.7-7,0.3-9,0.3c-1.3,0-3.2-0.3-4.5,0c0.5-2.1-0.4-7.5-0.4-9c0-2.9-0.2-5.9,0.2-8.7
			c1.4-1.7,5.7-7.1,6.5-7c1,0.1,3.8,3.9,4.6,4.7c2.5,2.6,3.1,2.4,3,5.7C499,757.3,498.9,760.7,498.9,764.1z M561.7,771.4
			c-2.6,6.5-9,8.6-15.5,8.3c0.5-2.8,0.6-5.6,0.7-8.8c8,0.1,9.5-6.8,9.4-13.8c-0.1-7.7-0.8-15.6-9.7-15.4c-0.1-2.1-0.1-4.1-0.2-6.2
			c0-1.6,0.1-3.3,0.1-5.1c7.7-0.8,12.2,0.9,14.9,9.6c1.6,5,1.9,10.8,1.9,16.1C563.5,761.2,563.6,766.8,561.7,771.4z"/>
		<path class="st2" d="M536.5,731.5c-1.7-4.5-6.9-5.1-11.1-5.2c-1.9-0.1-1.9,2.9,0,3c2.3,0.1,5.6,0,7.4,1.9c1.6,1.7,1.3,5.1,1.4,7.3
			c0.2,4.4,0.2,8.8,0.4,13.2c0.1,1.9,3.1,1.9,3,0c-0.2-4.1-0.2-8.2-0.4-12.3C537.1,736.9,537.4,733.9,536.5,731.5z"/>
		<path class="st2" d="M519.3,726.3c-1.9,0-1.9,3,0,3C521.2,729.3,521.2,726.3,519.3,726.3z"/>
	</g>
</g>
</svg>
