<?xml version="1.0" encoding="utf-8"?>
<!-- Generator: Adobe Illustrator 22.1.0, SVG Export Plug-In . SVG Version: 6.00 Build 0)  -->
<svg version="1.1" id="Layer_1" xmlns="http://www.w3.org/2000/svg" xmlns:xlink="http://www.w3.org/1999/xlink" x="0px" y="0px"
	 viewBox="0 0 109.9 109.9" style="enable-background:new 0 0 109.9 109.9;" xml:space="preserve">
<style type="text/css">
	.st0{fill:#FBFBFB;}
</style>
<g>
	<g>
		<path class="st0" d="M66.7,98.5c-8,0-16.3,0.8-24.2-0.2c-1.6-0.2-1.5,2.2,0,2.4c7.9,1,16.2,0.3,24.2,0.2
			C68.3,100.9,68.3,98.5,66.7,98.5z"/>
		<path class="st0" d="M72.5,62.9c5.7-14.1,9.2-29.4,5-44.5c-0.1-0.4-0.4-0.6-0.7-0.8c-0.1-0.1-0.3-0.1-0.5-0.1c-0.2,0-0.5,0-0.7,0
			c0.1-4.8-3.1-8.9-8.2-7.7c-1.7-7.1-12.3-8.1-15.1-1.5c-3.9-3-11-1.9-12.7,3C36,10.7,33,13.9,34,17.5c-0.2,0-0.3,0-0.5,0
			c-0.2,0-0.4,0.1-0.6,0.1c-0.3,0.1-0.5,0.4-0.6,0.8c-4.2,15.1-0.6,30.4,5,44.5c3.3,8.3,3.9,14.8,1.9,23.7c-1.3,5.7-3.2,11.1-2.6,17
			c0.1,0.6,0.3,1,0.9,1.2c5.6,1.8,12.2,1,18.1,1c5.4,0,11.3,0.5,16.6-1c0.6-0.2,0.8-0.6,0.9-1.2c0.6-5.7-1.2-10.8-2.5-16.3
			C68.5,78.3,69,71.5,72.5,62.9z M34.5,20c13.6-0.2,27.3-0.6,40.8,0c1.1,4.2,1.5,8.6,1.5,13c-14.6-0.3-29.2,1.4-43.8,0.2
			C33,28.6,33.5,24.2,34.5,20z M39.9,13.9c0.6,0.3,1.7,0.1,1.8-0.7c1.9-4.4,5.3-5,10.2-1.8c0.5,0.8,2.1,0.8,2.2-0.3
			C55,5.4,65,3.8,65.3,11.4c0,0.7,0.8,1.5,1.5,1.2c4.3-1,5.8,1.3,6.3,4.8C61,17,48.8,17.3,36.7,17.5C35.8,14.3,37.7,13,39.9,13.9z
			 M67.6,103.2c-3.9,0.4-8,0.2-11.9,0.2c-4.2,0-8.5,0.2-12.6-0.1c-4-0.2-4.2-0.5-3.9-4.1c0.2-2.4,0.6-4.8,1.3-7.1
			c1.6-6,3.5-12.5,2.8-18.8c-0.9-8.4-6.1-16-8.1-24.2c-1.1-4.4-1.8-9-2-13.6c14.6,1.2,29.1-0.5,43.7-0.2c-0.2,4.7-0.9,9.3-2,13.8
			c-2,8.2-7.2,15.8-8.1,24.2c-0.7,6.3,1.2,12.8,2.8,18.8c0.6,2.3,1.1,4.7,1.3,7.1C71,102.5,71.2,102.9,67.6,103.2z"/>
		<path class="st0" d="M67,59.9c0.3-1.1,1.4-2.2,1.9-3.3c0.5-1,1-2.1,1.3-3.2c0.9-2.6,1.4-5.4,1.8-8.1c0.3-1.5-2.1-2.2-2.3-0.6
			c-0.5,2.7-0.9,5.5-1.8,8.1c-0.5,1.3-1,2.6-1.7,3.8c-0.5,0.9-1.3,1.6-1.5,2.7C64.3,60.8,66.6,61.5,67,59.9z"/>
		<path class="st0" d="M71.2,41c1.6,0,1.6-2.4,0-2.4C69.6,38.6,69.6,41,71.2,41z"/>
	</g>
</g>
</svg>
