<?xml version="1.0" encoding="utf-8"?>
<!-- Generator: Adobe Illustrator 22.1.0, SVG Export Plug-In . SVG Version: 6.00 Build 0)  -->
<svg version="1.1" id="Layer_1" xmlns="http://www.w3.org/2000/svg" xmlns:xlink="http://www.w3.org/1999/xlink" x="0px" y="0px"
	 viewBox="0 0 109.9 109.9" style="enable-background:new 0 0 109.9 109.9;" xml:space="preserve">
<style type="text/css">
	.st0{fill:#FBFBFB;}
</style>
<g>
	<path class="st0" d="M89.9,35.7c-6-7-12.3-6.6-19.3-2.9c0-1.6-0.1-3.1-0.4-4.4c-0.3-1.1-0.7-1.9-1.3-2.6c7.6-6.1,0.6-19.4-8.6-16.4
		c-1.2-3.1-4.6-5.5-7.7-6c-4.1-0.7-7,1.4-10,3.8C36.5-1.8,20,4.3,20.5,15c-5.4,0-7.4,5.5-3.5,8.8c-1,0.7-1.7,1.8-1.9,3.3
		c0,0,0,0.1,0,0.1c0,0.1,0,0.2,0,0.2c0.2,23.6-0.4,47.2,0.5,70.8c0.1,1.9-0.3,4.3,1.3,5.8c2.4,2.3,8.2,1.9,11.3,2.3
		c11.6,1.2,23.4,1.1,35-0.4c7.8-1,6-5.4,6.2-12.7c0-0.4,0-0.7,0-1.1c4.3,2.4,10.9,2.7,14.9,0.3c8.9-5.2,9.7-17.7,10.3-26.9
		C95,56.7,96.1,43,89.9,35.7z M17.5,27.5c1.1-4.4,21.5-2.4,25.6-2.4c6.2,0,15.7-1.5,21.5,0.9c3.7,1.6,3.5,6.3,3.2,10.5
		c-9.7-1-19.4-1.2-29.2-0.7c-7,0.3-14.1-0.6-21.1,0.1C17.5,33.1,17.5,30.3,17.5,27.5z M70.1,49c0.2,0,0.5,0,0.8-0.2
		c3.3-2.2,8.7-1.8,10.1,2.1c0.9,2.4,0.8,6.2,0.8,8.8c0.1,3.4-0.6,7.4-1,10.9c-0.4,3.1-0.8,6.9-4.3,7.9c-2.2,0.6-4.9,0.4-6.8-0.7
		c0.2-6.4,0.4-12.9,0.4-19.3C70.1,55.3,70.1,52.1,70.1,49z M21.6,17.5c1,0.2,1.7-0.6,1.5-1.5c-2-9.5,13.8-14.9,18.1-6.2
		c0.4,0.8,1.4,0.7,1.9,0.3c2.1-1.8,4.5-4.2,7.4-4.3c3.2-0.1,7.2,2.5,7.7,5.7c0.1,0.8,1.2,1.1,1.8,0.7c7.7-4,12.6,7.7,6.7,12
		c-2-1-4.6-1.2-7-1.3c-9.2-0.6-18.5-0.3-27.7-0.2c-3,0-8.4-1-12.4-0.2C18.1,21.1,17.9,16.8,21.6,17.5z M65.1,103
		c-1.5,1.2-8.2,1-10.5,1.1c-2.8,0.2-5.6,0.3-8.5,0.4c-5.6,0.1-11.3-0.1-16.9-0.7c-2.8-0.3-7,0.2-9.3-1.2c-2.9-1.8-2-5.2-2.1-8.1
		c-0.5-18.7-0.3-37.4-0.3-56.1c7.7-1,15.7,0.1,23.4-0.2c8.9-0.4,17.8-0.1,26.7,0.8c0,0.4,0,0.9,0,1.3c0,5.3,0,10.6,0,15.9
		c0,10.7-0.4,21.5-0.7,32.2C66.8,92.1,68.3,100.5,65.1,103z M92.1,63.2c-0.3,7.2-0.6,15.8-4.4,22.2C84.2,91,75,94,69.4,89.1
		c0.1-2.9,0.2-5.8,0.3-8.7c3.4,1.3,8.3,1.3,11-1.1c1.5-1.3,2.1-3.5,2.4-5.4c0.7-4.2,1.3-9,1.3-13.3c0-3.6,0.4-11-2.5-13.7
		c-2.8-2.7-8.6-2.4-11.8-0.5c0-1.3,0-2.6,0-3.9c0-2,0.3-4.4,0.4-6.8c3.8-2.2,7.5-4.3,11.8-2.6c3.6,1.4,6.4,4.5,7.8,7.9
		C92.7,47.6,92.4,56.2,92.1,63.2z"/>
	<path class="st0" d="M41.9,43.3c-3.4,1.3-3.2,8.3-3.4,11c-0.6,6.6-1,13.3-1,20c0,3.1-1.6,25.8,6,22.9c2.9-1.1,2.3-5.9,2.4-8.2
		c0.4-7.8,0.8-15.7,1.1-23.5C47.1,62.9,48.8,40.6,41.9,43.3z M44.5,66.5c-0.4,7.9,0.3,16.9-1.2,24.7c0.2,1-0.1,1.8-0.8,2.5
		c-0.6,1.5-1,1.4-1.1-0.4c-1-1.6-1-5.6-1.2-7.1c-0.4-4-0.3-8-0.3-12c0-7.3,0.4-14.6,1.2-21.8c0.2-1.6-0.4-5.9,2.4-5.3
		c0.9,0.2,1,5.3,1.1,6.3C45,57.8,44.7,62.2,44.5,66.5z"/>
	<path class="st0" d="M26.9,43.3c-3.4,1.3-3.2,8.3-3.4,11c-0.6,6.6-1,13.3-1,20c0,3.1-1.6,25.8,6,22.9c2.9-1.1,2.3-5.9,2.4-8.2
		c0.4-7.8,0.8-15.7,1.1-23.5C32.1,62.9,33.8,40.6,26.9,43.3z M29.5,66.5c-0.4,7.9,0.3,16.9-1.2,24.7c0.2,1-0.1,1.8-0.8,2.5
		c-0.6,1.5-1,1.4-1.1-0.4c-1-1.6-1-5.6-1.2-7.1c-0.4-4-0.3-8-0.3-12c0-7.3,0.4-14.6,1.2-21.8c0.2-1.6-0.4-5.9,2.4-5.3
		c0.9,0.2,1,5.3,1.1,6.3C30,57.8,29.7,62.2,29.5,66.5z"/>
	<path class="st0" d="M56.9,44.2c-3.4,1.3-3.2,8.3-3.4,11c-0.6,6.6-1,13.3-1,20c0,3.1-1.6,25.8,6,22.9c2.9-1.1,2.3-5.9,2.4-8.2
		c0.4-7.8,0.8-15.7,1.1-23.5C62.1,63.8,63.8,41.5,56.9,44.2z M59.5,67.4c-0.4,7.9,0.3,16.9-1.2,24.7c0.2,1-0.1,1.8-0.8,2.5
		c-0.6,1.5-1,1.4-1.1-0.4c-1-1.6-1-5.6-1.2-7.1c-0.4-4-0.3-8-0.3-12c0-7.3,0.4-14.6,1.2-21.8c0.2-1.6-0.4-5.9,2.4-5.3
		c0.9,0.2,1,5.3,1.1,6.3C60,58.7,59.7,63.1,59.5,67.4z"/>
	<path class="st0" d="M80.6,35.3c-1.5-0.4-2.2,1.9-0.7,2.4c4,1.2,5.3,4.8,6.1,8.4c0.3,1.6,2.7,0.9,2.4-0.7
		C87.5,40.9,85.4,36.7,80.6,35.3z"/>
	<path class="st0" d="M75.7,35.4c-1.6,0-1.6,2.5,0,2.5C77.3,37.9,77.3,35.4,75.7,35.4z"/>
</g>
</svg>
