<?xml version="1.0" encoding="utf-8"?>
<!-- Generator: Adobe Illustrator 22.1.0, SVG Export Plug-In . SVG Version: 6.00 Build 0)  -->
<svg version="1.1" id="Layer_1" xmlns="http://www.w3.org/2000/svg" xmlns:xlink="http://www.w3.org/1999/xlink" x="0px" y="0px"
	 viewBox="0 0 109.9 109.9" style="enable-background:new 0 0 109.9 109.9;" xml:space="preserve">
<style type="text/css">
	.st0{fill:#FBFBFB;}
</style>
<path class="st0" d="M85.7,23.7c0-1.3,0.4-3.3,0-4.6c-0.1-0.4-0.2-0.7-0.4-1c-0.2-0.5-1.4-1.1-1.8-1.5c-1.5-1.6-2.5-3.2-3.3-5
	c1.3-0.3,2.4-0.7,3-1.6c2.6-4.3-3.5-5.5-6.2-5.6C69.2,3.9,61.4,3.9,53.5,4c-6.8-0.2-13.6-0.1-20.4,0.3c-2.7,0.2-7.6,0.3-6.8,4.6
	c0.3,1.8,1.5,2.4,2.8,2.7c-0.9,2.5-2.2,3.7-3.8,5.9c-0.5,0.7-0.9,0.8-1.1,1.5c-0.4,1,0,2.9,0,3.9c0,7.6,0,15.1,0,22.7
	c0,9.9,0.1,19.8,0.1,29.6c0,4.7,0.1,9.3,0.2,14c0.1,4.4,3.6,5.4,5.2,9c-1.4,0.2-2.5,0.7-3.1,1.7c-2.6,4.3,3.5,5.5,6.2,5.6
	c7.8,0.4,15.7,0.4,23.5,0.3c6.8,0.2,13.6,0.1,20.4-0.3c2.7-0.2,7.6-0.3,6.8-4.6c-0.4-2-1.8-2.6-3.3-2.8c0.7-1.8,1.9-3,3.4-4.4
	c-0.3,0.3,1.6-1.1,1.8-1.5c0.5-1.1,0.2-2.5,0.2-3.7c0.1-4.4,0.1-8.9,0.2-13.3c0.1-9.9,0.1-19.8,0-29.6C85.8,38.3,85.7,31,85.7,23.7z
	 M26.8,76c-0.1-10.1-0.1-20.2-0.2-30.4c0-3,0-6.1,0-9.1c4.6-0.3,9.1-0.4,13.6-0.2c-4.2,3.7-7.1,9.1-7.7,15.5
	c-0.8,8.3,1.8,17.9,7.7,23.9C35.8,76,31.3,76,26.8,76z M35.2,51.1c1.6-12.3,12.6-19.8,24.7-17.3c11.5,2.4,15.5,12.8,15.2,23.4
	C74.2,69.2,65.3,80.1,52.5,79C39.1,77.9,33.7,62.6,35.2,51.1z M77.5,57.3c0.2-8-2-15.6-7.1-20.6c4.3,0.1,8.7,0.1,12.9-0.3
	c0,3.1,0,6.2,0,9.2c0,9.9,0,19.8,0,29.6c0,0.1,0,0.1,0,0.2c-4.7,0.1-9.4,0-14.1,0C74,70.9,77,64.3,77.5,57.3z M39,6.5
	c4.8-0.1,9.7-0.2,14.5,0c5.2-0.1,10.4-0.1,15.6,0c2.3,0,5.7-0.5,7.9,0.3c1.5,0.5,2.6,1.4,1.2,2.3c-0.3,0.2-1.4,0-1.8,0
	c-9.1-0.1-18.1,0.1-27.2,0.2c-4.2,0-8.4,0.1-12.6,0.1c-1,0-6.3,0.8-7,0C26.7,6.4,37.8,6.5,39,6.5z M29.3,17c1.2-1.6,1.8-3.3,2.3-5.2
	c0.3,0,0.6,0,0.9,0c5.8,0,11.6-0.1,17.4-0.2c7-0.1,13.9-0.2,20.9-0.2c1.5,0,4.3,0.4,6.9,0.3c0.7,1.9,1.6,3.6,2.9,5.2
	c0,0,1,1,1.8,1.6c-10,0.7-20,0.5-30,0.9c-1.6,0.1-1.6,2.5,0,2.4c10.3-0.4,20.7-0.2,31-0.9c0,0.7-0.1,1.5-0.1,2c0,3.7,0,7.4,0.1,11.1
	c-5.2,0.4-10.6,0.3-15.8,0.2c-0.1,0-0.1,0-0.2,0c-2.5-1.6-5.5-2.7-8.9-3.1c-5.6-0.7-10.7,0.5-14.9,3c-5.6-0.4-11.2-0.4-16.8,0
	c0-3.6,0-7.2,0-10.8c0-0.4-0.1-0.9-0.1-1.5c4.7-0.4,9.4-0.2,14.1-0.1c1.6,0,1.6-2.4,0-2.4c-4.7-0.1-9.4-0.3-14.1,0.1
	c0-0.2,0.1-0.3,0.1-0.4C26.7,19,28.9,17.6,29.3,17z M27.6,91c3.4,0.4,6.8,0.8,10.2,0.7c1.6,0,1.6-2.4,0-2.4c-3.7,0-7.3-0.4-10.9-0.8
	c-0.4-3.2-0.2-6.7-0.1-10.1c5.4-0.1,10.7,0.1,16.1-0.4c0,0,0.1,0,0.1,0c2.7,1.9,5.8,3.2,9.5,3.4c5.4,0.4,10.1-1.1,14-3.7
	c0.2,0.1,0.4,0.2,0.6,0.2c5.4-0.1,10.8,0.1,16.3,0c0.1,3.6,0.4,7.5-0.2,11c-12,0.5-24.1,1.5-36.1,1c-1.6-0.1-1.6,2.4,0,2.4
	c11.7,0.5,23.5-0.4,35.2-0.9c-1.3,2.2-3.7,4-4.6,6.8c-0.1,0-0.2,0-0.3,0c-5.8,0-11.6,0.1-17.4,0.2c-7,0.1-13.9,0.2-20.9,0.2
	c-1.5,0-4.3-0.4-6.8-0.3C31.2,95.4,28.7,93.5,27.6,91z M70.8,103.4c-4.8,0.1-9.7,0.2-14.5,0c-5.2,0.1-10.4,0.1-15.6,0
	c-2.3,0-5.7,0.5-7.9-0.3c-1.5-0.5-2.6-1.4-1.2-2.3c0.3-0.2,1.4,0,1.8,0c9.1,0.1,18.1-0.1,27.2-0.2c4.2,0,8.4-0.1,12.6-0.1
	c1,0,6.3-0.8,7,0C83.1,103.5,72.1,103.4,70.8,103.4z"/>
</svg>
