<?xml version="1.0" encoding="utf-8"?>
<!-- Generator: Adobe Illustrator 22.1.0, SVG Export Plug-In . SVG Version: 6.00 Build 0)  -->
<svg version="1.1" id="Layer_1" xmlns="http://www.w3.org/2000/svg" xmlns:xlink="http://www.w3.org/1999/xlink" x="0px" y="0px"
	 viewBox="0 0 109.9 109.9" style="enable-background:new 0 0 109.9 109.9;" xml:space="preserve">
<style type="text/css">
	.st0{fill:#FBFBFB;}
</style>
<g>
	<g>
		<path class="st0" d="M105,11.3c-6.7-0.1-13.5-0.2-20.2-0.2c1.3-1.7,2.7-3.4,4-5.1c1.1-1.5-1.4-2.9-2.4-1.4
			c-1.7,2.2-3.4,4.4-5.1,6.5C55.9,11,30.4,11.3,4.9,11.3c-0.2,0-0.4,0-0.6,0.1c-0.5,0.2-0.8,0.6-0.9,1c-0.1,0.4,0,0.7,0.2,1.1
			c0,0.1,0.1,0.1,0.1,0.2c0,0,0,0,0,0c9,9.8,18.5,18.7,28.1,27.9c4.1,3.9,8,8,12,11.9c1.7,1.6,4.2,5.1,6.8,7.4
			c0.2,9.8,0.2,19.7,0,29.5c-4.6,0.1-25.4,0-24.3,8.5c0.9,6.6,18.9,6.6,23.4,6.8c7.2,0.4,14.4-0.1,21.5-1.3
			c2.9-0.5,10.9-1.8,11.8-5.5c2.1-8.2-19.2-8.6-24.3-8.7c0.2-9.7,0.2-19.4,0-29.1c1-0.8,1.8-1.8,2.6-2.4c5.1-4.6,10-9.4,14.7-14.4
			c9.9-10.3,19.4-20.9,29.8-30.7C107,12.9,106.2,11.3,105,11.3z M8.1,14.1c23.6,0,47.3-0.3,71-0.2c-2.4,2.9-4.7,5.8-7.1,8.7
			c-18.7-0.1-37.5-1.3-56.2-0.3C13.2,19.6,10.6,16.9,8.1,14.1z M56.1,96.5c0,1.8,2.8,1.8,2.8,0c0-1.1,0-2.2,0-3.3
			c4.8,0.1,9.5,0.4,14.2,1.5c1.2,0.3,4.7,0.8,5.5,1.8c2.2,3.1-2.3,4.1-4.1,4.6c-7.6,2.3-16.7,2.3-24.6,1.9c-5-0.3-13.3-0.1-17.8-2.8
			c-4.8-2.8,1.6-4.8,4.6-5.5c4.6-1.1,9.3-1.3,14-1.4c0,1.1,0,2.1,0,3.2c0,1.8,2.8,1.8,2.8,0c0.3-11.2,0.3-22.5,0.1-33.7
			c0.4,0.2,0.8,0.3,1.2,0.3c0.5,0,0.9,0,1.3-0.2C56.3,74.2,56.3,85.3,56.1,96.5z M66.5,50.3c-1.7,1.7-3.4,3.3-5.2,4.9
			c-3.4,3.1-5.6,4.6-9.9,1.8c-3.6-2.4-7-6.9-10.2-10c-3.4-3.3-6.6-6.8-10.1-10c-4.4-3.9-8.6-7.9-12.7-12.1
			c17.1-0.7,34.2,0.3,51.3,0.4c-1.5,1.9-3,3.9-4.5,5.8c-4.3-2.2-10.2,0.1-12.3,4.4c-1.7,3.4-0.2,7.3,2.5,9.7
			c-1.2,1.8-2.7,3.4-3.9,5.2c-1,1.5,1.4,2.9,2.4,1.4c1.2-1.8,2.5-3.4,3.7-5.1c0.2,0.1,0.3,0.2,0.5,0.2c3.9,1.7,8.9,0,11.2-3.6
			c2.4-3.7,1.7-8.5-1.7-10.9c1.8-2.4,3.7-4.8,5.6-7.2c5.9,0,11.7-0.1,17.5-0.5c-4.1,4.3-8.2,8.7-12.3,13
			C74.6,42.1,70.6,46.3,66.5,50.3z M58.8,44.4c-2.4-1.2-4.6-4.3-3.7-7c1.1-3,5.3-5,8.3-3.8c-0.1,0.2-0.3,0.4-0.4,0.6
			c-1.1,1.5,1.4,2.9,2.4,1.4c0.2-0.2,0.4-0.5,0.5-0.7C71.3,37.9,64.9,47.5,58.8,44.4z M93.8,21.9c-6.1,0.4-12.1,0.6-18.2,0.7
			c2.4-2.9,4.7-5.8,7.1-8.7c6.3,0,12.7,0.1,19,0.2C99,16.7,96.3,19.3,93.8,21.9z"/>
		<path class="st0" d="M30,28.6c-1.3-1.3-3.3,0.7-2,2c2.3,2.1,4.4,4.4,6.3,6.8c1.2,1.4,3.1-0.6,2-2C34.3,33,32.2,30.7,30,28.6z"/>
		<path class="st0" d="M38.5,38.1c-1.8,0-1.8,2.8,0,2.8C40.3,41,40.3,38.1,38.5,38.1z"/>
	</g>
</g>
</svg>
