<?xml version="1.0" encoding="utf-8"?>
<!-- Generator: Adobe Illustrator 22.1.0, SVG Export Plug-In . SVG Version: 6.00 Build 0)  -->
<svg version="1.1" id="Layer_1" xmlns="http://www.w3.org/2000/svg" xmlns:xlink="http://www.w3.org/1999/xlink" x="0px" y="0px"
	 viewBox="0 0 109.9 109.9" style="enable-background:new 0 0 109.9 109.9;" xml:space="preserve">
<style type="text/css">
	.st0{fill:#FBFBFB;}
</style>
<g>
	<path class="st0" d="M58.7,41.9C58.1,27.2,43.7,11.4,30.7,5.7c-5.4-3.1-14.3-1.9-19.7,1.2c-6.3,3.6-7.4,11.4-7.5,18
		c-0.3,15.8,9.1,34,25.9,37.3C43,64.8,59.2,57.1,58.7,41.9z M29.3,8.2c9.7,4.2,18.1,13.3,23,22.5c3.2,6,5.2,13.6,1.7,20
		c-2.2,4.1-6.1,6.2-10.4,7.4c-9.4,0.9-20.1-9.5-24.5-17.1c-4.8-8.3-12-19.9-8.5-29.6C15.3,6.9,23.9,5.1,29.3,8.2z M8,36.9
		c-1.6-5.6-2.2-12.1-1.1-18c0.8,9,6.4,18.6,10.8,25.3c3.7,5.5,10.5,12.3,17.7,15.3C22.2,59.9,11.5,49.5,8,36.9z"/>
	<path class="st0" d="M18.9,9.2C18.9,9.2,18.9,9.2,18.9,9.2c-0.1,0.3-0.2,0.6,0,1c0,0,0,0,0,0c0.7,6.3,2.8,11.6,6.8,16.6
		c6.5,8.2,14.2,14.3,15.2,25.5c0.2,1.8,2.6,1.8,2.8,0c0.9-7.6,0.6-14.9-4.7-20.9C32.4,24,25.6,19,21.6,9.4c0-0.1-0.1-0.1-0.1-0.2
		c0,0,0,0,0-0.1c-0.1-0.1-0.2-0.3-0.3-0.4c-0.1,0-0.1-0.1-0.2-0.1c-0.1,0-0.2-0.1-0.2-0.1C20.1,8.3,19.4,8.5,19,9
		C19,9.1,18.9,9.1,18.9,9.2z M30.5,27.2c2.8,2.6,6.3,5.3,8.4,8.7c1.4,2.2,2,4.8,2.3,7.4c-3.3-7-9-12.5-13.4-18.8
		C28.6,25.4,29.5,26.3,30.5,27.2z"/>
	<path class="st0" d="M50.5,42.9c-0.2,1.8,2.7,1.8,2.8,0c0.3-3.3-0.4-6.5-1.9-9.5c-0.8-1.6-3.3-0.2-2.5,1.4
		C50.3,37.3,50.8,40,50.5,42.9z"/>
	<path class="st0" d="M50.4,46.3C50.3,46.3,50.3,46.3,50.4,46.3c-1.9,0-1.9,2.8-0.1,2.8c0,0,0.1,0,0.1,0
		C52.2,49.2,52.2,46.3,50.4,46.3z"/>
	<path class="st0" d="M98.8,50.2c-5.3-3-14.2-4.3-19.7-1.2c-13,5.7-27.4,21.5-27.9,36.2c-0.6,15.1,15.7,22.9,29.2,20.3
		c16.8-3.3,26.1-21.5,25.9-37.3C106.2,61.5,105.1,53.7,98.8,50.2z M55.8,93.9c-3.4-6.4-1.5-14,1.7-20c5-9.2,13.3-18.2,23-22.5
		c5.4-3.1,14-1.3,18.7,3.2c3.5,9.7-3.7,21.3-8.5,29.6c-4.4,7.7-15.1,18-24.5,17.1C62,100.1,58,98,55.8,93.9z M74.5,102.7
		c7.2-3,14-9.8,17.7-15.3c4.4-6.6,10.1-16.3,10.8-25.3c1.1,5.9,0.5,12.5-1.1,18C98.3,92.7,87.7,103.2,74.5,102.7z"/>
	<path class="st0" d="M66.5,94.6c2.9-17.2,21.9-23.5,25.1-40.7c0-0.1,0-0.1,0-0.1c0-0.1,0-0.3,0-0.4c0,0,0-0.1,0-0.1
		c0-0.2-0.1-0.3-0.2-0.4c0,0,0,0,0,0c-0.4-0.5-1.1-0.8-1.6-0.6c-0.3,0.1-0.6,0.3-0.7,0.6C84.8,60.9,77,66.7,70.7,73.2
		c-5.9,6.1-7.4,12.7-6.9,21C63.8,95.7,66.3,96.2,66.5,94.6z M70.8,77.1c1.9-2.3,4.2-4.1,6.2-6.3c2.6-2.8,5.4-5.3,7.9-7.9
		c-5,7.9-13,13.6-17.7,21.7C67.8,82,68.9,79.5,70.8,77.1z"/>
	<path class="st0" d="M80.2,88.3c-2.2,3.3-5.7,5.4-9.2,7.2c-1.6,0.8-0.2,3.3,1.4,2.5c4-2,7.7-4.4,10.2-8.2
		C83.6,88.2,81.2,86.8,80.2,88.3z"/>
	<path class="st0" d="M83.7,84c-1.8,0-1.8,2.8,0,2.8C85.6,86.8,85.6,84,83.7,84z"/>
	<path class="st0" d="M24.3,88.5c-1.8,0-1.8,2.8,0,2.8C26.1,91.3,26.1,88.5,24.3,88.5z"/>
	<path class="st0" d="M23.9,76.9c0-0.1,0-0.2,0-0.3c0-1.8-2.8-1.8-2.8,0c0,0.1,0,0.2,0,0.3C21.1,78.7,23.9,78.7,23.9,76.9z"/>
	<path class="st0" d="M38.6,71.8c-1.8,0-1.8,2.8,0,2.8C40.5,74.6,40.5,71.8,38.6,71.8z"/>
	<path class="st0" d="M34.6,85.7c0,0.1,0,0.2,0,0.3c0,1.8,2.8,1.8,2.8,0c0-0.1,0-0.2,0-0.3C37.5,83.9,34.6,83.9,34.6,85.7z"/>
	<path class="st0" d="M29.5,79.3c-1.8,0-1.8,2.8,0,2.8C31.4,82.2,31.4,79.3,29.5,79.3z"/>
	<path class="st0" d="M32.1,67.1c-0.1,0-0.2,0-0.3,0c-1.8,0-1.8,2.8,0,2.8c0.1,0,0.2,0,0.3,0C34,69.9,34,67.1,32.1,67.1z"/>
	<path class="st0" d="M44.1,75.7c-1.8,0-1.8,2.8,0,2.8C45.9,78.5,45.9,75.7,44.1,75.7z"/>
	<path class="st0" d="M43.6,90.5c-1.8,0-1.8,2.8,0,2.8C45.4,93.4,45.4,90.5,43.6,90.5z"/>
	<path class="st0" d="M74.4,37.6c1.8,0,1.8-2.8,0-2.8C72.6,34.7,72.6,37.6,74.4,37.6z"/>
	<path class="st0" d="M69.2,24.8c1.8,0,1.8-2.8,0-2.8C67.4,22,67.4,24.8,69.2,24.8z"/>
	<path class="st0" d="M79.1,21.5c1.8,0,1.8-2.8,0-2.8C77.3,18.6,77.3,21.5,79.1,21.5z"/>
	<path class="st0" d="M94.3,30.5c1.8,0,1.8-2.8,0-2.8C92.5,27.6,92.4,30.5,94.3,30.5z"/>
	<path class="st0" d="M82.5,39.9c1.8,0,1.8-2.8,0-2.8C80.6,37.1,80.6,39.9,82.5,39.9z"/>
	<path class="st0" d="M83.5,31.5c0.2-0.2,0.3-0.3,0.5-0.5c1.3-1.3-0.7-3.3-2-2c-0.2,0.2-0.3,0.3-0.5,0.5
		C80.2,30.8,82.2,32.8,83.5,31.5z"/>
	<path class="st0" d="M88.6,23.8c1.8,0,1.8-2.8,0-2.8C86.8,21,86.8,23.8,88.6,23.8z"/>
	<path class="st0" d="M100,39c1.8,0,1.8-2.8,0-2.8C98.1,36.1,98.1,39,100,39z"/>
	<path class="st0" d="M90.5,44.7c1.8,0,1.8-2.8,0-2.8C88.7,41.8,88.7,44.7,90.5,44.7z"/>
</g>
</svg>
