<?xml version="1.0" encoding="utf-8"?>
<!-- Generator: Adobe Illustrator 22.1.0, SVG Export Plug-In . SVG Version: 6.00 Build 0)  -->
<svg version="1.1" id="Layer_1" xmlns="http://www.w3.org/2000/svg" xmlns:xlink="http://www.w3.org/1999/xlink" x="0px" y="0px"
	 viewBox="0 0 109.9 109.9" style="enable-background:new 0 0 109.9 109.9;" xml:space="preserve">
<style type="text/css">
	.st0{fill:#FBFBFB;}
</style>
<g>
	<g>
		<path class="st0" d="M103.9,58c-1.4-5.5-2.8-11-4.5-16.4c-1.7-5.2-3.5-11.9-8-15.5c-5.7-4.6-12.9-2.3-18.1,1.6
			c-0.4,0-0.8,0-1.2-0.1c1.9-3.5,5.5-8.5-0.4-9.7c-2.9-0.6-6.6-0.1-9.5-0.1c-4.6,0-9.1,0.1-13.7,0.1c-10.4,0-20.9-0.1-31.3-0.1
			c-1.9,0-5.4-0.3-5.6,2.5c-0.2,2.7,4.1,4.7,6.3,6.8c-0.8,0.1-1.5,0.2-2.2,0.4c-0.5,0.2-0.9,0.6-0.9,1.2c-0.1,3.8-0.5,7.8,0,11.5
			c0.1,0.5,0.3,1,0.9,1.2c0.5,0.1,1,0.2,1.5,0.3c-4.3,9-7.6,18.3-10.6,27.8C5,75.1,1.1,85.2,7.4,89.4c5.1,3.4,14,2.7,19.9,2.8
			c7.6,0.1,15.1-0.5,22.7-0.4c7,0.1,14.1,0.4,21.1,0.3c3.6-0.1,8.7-0.2,11.6-2.8c4.7-4.3,0.7-14-0.6-18.7
			C79.2,60.5,75.5,50.8,71.7,41c0.8-0.1,1.5-0.2,2.2-0.4c0.1,0,0.3,0,0.4-0.1c0.1,0,0.1,0,0.2-0.1c3.6-2.5,7.8-5,10.6-0.8
			c1.3,2,2.2,4.2,3.2,6.3c2.5,5.4,4.7,11,6.9,16.6c0.8,1.9,1.7,7.1,3.4,8.5c1.9,1.6,6.2-0.4,7-2.6C106.7,65.7,104.6,60.6,103.9,58z
			 M21.6,20.4c2,0,4,0,6,0c6.4,0,12.9,0.1,19.3,0c5.7,0,11.4-0.1,17.1-0.1c1.7,0,5.6-0.7,7.1,0c2.4,1.3-0.8,5.3-1.6,7.2
			C61.2,27.4,53,28,44.8,27.7c-5.6-0.2-11.3-0.3-16.9-0.3c-2,0-4.5-0.3-6.9-0.3c-0.9-1.6-2.9-2.4-3.7-3.8
			C15.2,19.2,19.6,20.4,21.6,20.4z M77.1,62.9c1.9,5.8,9.1,21.5,2.1,25.4c-3.4,1.9-8.3,1.3-12,1.3c-5.3,0-10.7-0.2-16-0.3
			c-11.5-0.2-23.1,1.2-34.6-0.1c-6-0.7-10.9-3.5-9.8-10.7c0.6-3.9,2.1-7.7,3.3-11.4c2.8-8.5,5.8-16.9,9.7-25c0-0.1,0-0.2,0.1-0.3
			c2.1,0,4.3-0.3,6.1-0.3c6.3-0.1,12.6-0.1,18.9-0.1c5.9,0.1,11.8,0,17.7-0.3c2.1-0.1,4.4,0,6.7-0.1C72,48.4,74.7,55.6,77.1,62.9z
			 M54.6,39.1c-6.7,0.1-13.4,0-20.1,0c-5.8,0-11.5,0.1-17.3,0.1c0,0,0,0,0,0c0-1.1,0-2.1,0-3.2c0-1.5-0.5-4.3-0.2-6.1
			c0.2-0.1,0.6-0.1,1,0c0.8,0.2,1.8,0,2.6,0c2.8,0,5.7,0,8.5,0c5.2,0,10.4,0.1,15.6,0.3c7.3,0.2,14.7-0.3,22-0.3
			c1,0,4.3-0.5,5.2,0.1c0.6,0.4,0.6,2,0.6,3.5c0.1,1.2,0.2,2.6,0.1,3.8c0,0.4,0,0.6,0.1,0.7c-0.1,0-0.3,0-0.6,0.1
			C67.3,39.9,59.8,39,54.6,39.1z M100.6,69.4c-0.7-0.4-1.2-3.1-1.5-3.8c-3.1-8-6.2-16.2-10.1-23.9c-1-2-2.2-5.1-4.2-6.4
			c-3-2-6.5-0.3-9.4,1.6c0.1-2.5-0.3-5.1-0.5-7.4c4.8-3.4,11.4-5.4,16-0.5c2.8,3,4,7.2,5.3,11c1.3,3.8,2.4,7.6,3.4,11.5
			c1.2,4.4,3.1,9.3,3.4,13.9C103.1,66.6,102.8,70.5,100.6,69.4z"/>
		<path class="st0" d="M51,57c-4.2,1.2-8.3,3-12.7,3.8c-7.2,1.3-13.2-1.4-19.5-4.7c-0.6-0.3-1.1-0.1-1.4,0.2
			c-0.1,0.1-0.1,0.1-0.2,0.2c0,0,0,0.1-0.1,0.1c0,0.1-0.1,0.1-0.1,0.2C14.2,64.3,4.8,82.3,17.6,85c8.2,1.8,17.5,0,25.7-0.2
			c9.1-0.2,19.4,1.7,28.3-0.3c4.6-1,6.3-3.7,5.6-8.3c-0.7-5.2-2.9-14.1-7.2-17.7C64.8,54.3,57.1,55.3,51,57z"/>
	</g>
</g>
</svg>
